<?xml version="1.0" encoding="UTF-8"?>
<svg id="Capa_2" data-name="Capa 2" xmlns="http://www.w3.org/2000/svg" viewBox="0 0 91.5 99.63">
  <defs>
    <style>
      .cls-1 {
        fill: #4c222a;
      }
    </style>
  </defs>
  <g id="Capa_1-2" data-name="Capa 1">
    <path class="cls-1" d="M91.5,28.8c-.36,6.44-15.56,18.15-32.29,18.87-9.3,8.41-20.75,20.3-44.63,47.05-3.04-1.7-6.71-3.13-14.04,4.92l-.54-.09c12.52-13.77,36.31-35.87,56.71-51.96-5.19-.09-9.84-1.07-13.78-2.68-1.07,1.61-2.24,3.22-3.49,4.92-4.83,6.53-12.7,13.51-15.92,13.51-2.15,0-3.58-2.06-3.13-5.1.45-4.47,4.3-10.91,6.89-14.22,1.7-2.06,3.49-3.93,5.37-5.54-6.71-6.26-9.84-14.76-9.84-22.18C22.81,7.96,27.55,0,34.34,0c7.25,0,14.67,9.75,14.67,22.18,0,2.95-.18,5.54-.54,7.87.54-.09,1.07-.18,1.52-.18,1.88,0,2.69,1.25,2.69,2.06h-.09c-.09-.81-.72-1.79-2.24-1.79-.54,0-1.17.18-1.97.54-.89,5.81-2.68,9.93-5.37,14.04,4.03,1.61,8.59,2.59,13.86,2.68,14.58-11.54,27.37-19.94,32.91-19.94,1.17,0,1.79.54,1.7,1.34ZM42.75,44.81c-2.33-.9-4.38-1.97-6.26-3.31l-2.68,3.13c-2.24,2.68-11,12.7-11,16.99,0,.9.45,1.34,1.07,1.34,2.77,0,10.64-6.98,15.38-13.24,1.25-1.7,2.41-3.31,3.49-4.92ZM48.3,30.05c.36-2.32.53-4.92.53-7.87C48.83,9.93,41.41.18,34.34.18c-6.62,0-11.36,7.96-11.36,16.1,0,7.42,3.13,15.83,9.84,22,5.54-4.83,11.45-7.6,15.47-8.23ZM36.58,41.32c1.88,1.25,3.94,2.41,6.26,3.31,2.59-4.02,4.47-8.14,5.37-13.86-2.69,1.34-6.62,4.92-11.63,10.55ZM69.32,59.03c-.63,3.94-4.83,11.9-9.57,17.89-7.51,9.39-14.49,14.58-16.73,14.58s-3.49-2.32-2.95-5.72c.89-4.92,5-11.99,7.78-15.65,7.06-8.85,16.19-14.04,20.48-14.04,1.34,0,1.25,1.07.99,2.95ZM69.13,59.03c.18-1.61.36-2.59-.62-2.59-2.33,0-6.71,5.01-14.22,14.31-6.44,8.14-11.36,15.12-11.81,18.16-.27,1.25,0,2.15.9,2.15,1.88,0,8.4-4.92,16.1-14.4,4.47-5.72,9.13-13.95,9.66-17.62ZM89.89,27.72c-2.41,0-9.12,2.77-14.94,7.07-5.82,4.47-10.37,8.05-15.56,12.7,16.28-.72,31.48-12.07,31.84-18.6.09-.63-.27-1.16-1.34-1.16Z"/>
  </g>
</svg>