<?xml version="1.0" encoding="UTF-8"?>
<svg id="Capa_2" data-name="Capa 2" xmlns="http://www.w3.org/2000/svg" viewBox="0 0 74.77 76.83">
  <defs>
    <style>
      .cls-1 {
        fill: #4c222a;
      }
    </style>
  </defs>
  <g id="Capa_1-2" data-name="Capa 1">
    <path class="cls-1" d="M74.77,8.68c-.72.54-1.43,1.16-2.24,1.88-9.48,9.03-18.87,21.11-34.44,46.15,3.22.81,6.62,1.43,10.56,1.43,1.52,0,10.55-.18,10.91-3.85,0-.27-.27-.36-.27-.63q0-.09.09-.09c.36,0,.53.63.53.72-.53,4.2-9.84,4.29-11.26,4.29-4.03,0-7.51-.62-10.82-1.52l-9.39,15.47c-3.67-1.43-8.94-2.68-13.24,4.29l-.53-.09c3.58-5.63,9.21-13.5,15.74-22-4.83-1.7-9.66-3.22-15.29-3.22-2.06,0-4.3.45-6.44.98-5.28,3.4-5.28,5.54-6.71,6.17-2.05.98-2.68-1.88-.98-3.04,2.59-1.88,5.36-2.77,7.78-3.49,10.82-3.94,49.99-23.07,48.92-44.63-.17-3.67-2.14-7.24-5.9-7.24-1.16,0-2.24.45-2.95,1.61l-.17-.18c.53-.8,2.14-1.7,3.58-1.7,4.38,0,6.35,3.85,6.44,7.51.53,20.84-36.76,40.6-49.19,44.54,2.14-.54,4.11-.98,6.16-.98,5.55,0,10.29,1.61,15.12,3.22,13.95-17.98,32.02-38.55,43.74-46.15l.27.54Z"/>
  </g>
</svg>