<?xml version="1.0" encoding="UTF-8"?>
<svg id="Capa_2" data-name="Capa 2" xmlns="http://www.w3.org/2000/svg" viewBox="0 0 74.15 75.22">
  <defs>
    <style>
      .cls-1 {
        fill: #4c222a;
      }
    </style>
  </defs>
  <g id="Capa_1-2" data-name="Capa 1">
    <path class="cls-1" d="M27.19,32.02c-.81,0-1.34-.36-1.34-1.16.09-2.41,3.58-4.56,8.76-5.46,3.76-4.83,6.53-9.84,8.32-14.4.36-.72.54-1.61.9-2.32,1.17-3.4,1.7-6.35,1.79-8.68h.18c-.09,2.15-.63,4.92-1.61,8.05,1.88-2.86,5.01-4.83,8.14-4.83,3.4,0,9.21,5.1,13.95,5.1,3.4,0,7.52-2.68,7.52-5.81,0-.72-.18-1.25-.54-1.97l.18-.09c.45.72.72,1.43.72,2.24,0,4.92-6.71,11.09-13.6,11.09-5.37,0-9.39-4.92-14.31-4.92-1.34,0-2.15.53-2.68,1.16-1.79,4.74-4.65,10.2-8.68,15.29,1.62-.27,3.49-.45,5.37-.45h.27c9.57,0,17.53,7.51,17.26,18.16-.53,18.24-25.66,32.2-43.64,32.2C4.56,75.22-.17,69.13,0,62.07c.27-9.03,11.18-21.38,24.69-21.38,4.11,0,6.79,1.7,8.23,3.85h-.18c-1.43-2.15-4.11-3.67-8.14-3.67-11.36,0-23.52,10.56-23.79,21.82-.18,6.8,4.2,12.34,13.24,12.34,16.01,0,38.1-19.5,38.64-39.8.18-6.8-5.54-10.19-12.16-10.19-2.06,0-4.02.18-5.81.54-1.25,1.61-2.69,3.31-4.2,4.83-1.17,1.07-2.59,1.61-3.31,1.61ZM34.35,25.67c-4.92.98-8.23,3.04-8.32,5.19,0,.63.45.98,1.17.98.81,0,2.06-.63,3.13-1.61,1.43-1.52,2.77-3.04,4.03-4.56Z"/>
  </g>
</svg>