<?xml version="1.0" encoding="UTF-8"?>
<svg id="Capa_2" data-name="Capa 2" xmlns="http://www.w3.org/2000/svg" viewBox="0 0 92.98 94.36">
  <defs>
    <style>
      .cls-1 {
        fill: #4c222a;
      }
    </style>
  </defs>
  <g id="Capa_1-2" data-name="Capa 1">
    <path class="cls-1" d="M92.98,5.81c-.09,1.88-2.42,3.93-7.43,3.93-1.52,0-5.54-.89-10.55-1.97C51.21,22.09,9.35,62.34,2.83,82.28c-1.61,4.74-1.7,8.32,1.25,11.36l-.9.72C-14.08,65.47,43.07,22,73.21,7.42c-7.6-1.7-16.72-3.67-22.09-3.67-9.21,0-17.35,6.62-17.61,12.7-.09.98.17,2.06.71,2.77-.36.36,0,.36-.36.36-.18-.81-.62-1.88-.54-3.13C33.77,7.6,47.81,0,56.13,0c5.72,0,13.5,3.31,20.12,5.99,5.9-2.59,10.47-3.94,12.7-3.49,2.68.18,4.03,1.7,4.03,3.31ZM77.42,6.44c4.12,1.7,7.6,2.95,9.75,2.95,3.31,0,4.83-1.7,4.92-3.4,0-1.52-1.16-3.04-3.31-3.31-2.5-.36-6.44,1.07-11.36,3.76Z"/>
  </g>
</svg>