<?xml version="1.0" encoding="UTF-8"?>
<svg id="Capa_2" data-name="Capa 2" xmlns="http://www.w3.org/2000/svg" viewBox="0 0 129.04 87.11">
  <defs>
    <style>
      .cls-1 {
        fill: #4c222a;
      }
    </style>
  </defs>
  <g id="Capa_1-2" data-name="Capa 1">
    <path class="cls-1" d="M9.82,82.11H2.12c-4.11-.81-1.52-7.16,1.61-5.63,3.76,1.79,4.92,4.56,11.9,4.83,21.46-3.4,46.86-55.18,77.63-74.23-3.94-4.56-10.92-6.62-20.03-6.62C38.7.45,6.51,35.42,6.51,55c0,6.17,2.86,13.06,12.43,13.06,11.8,0,30.41-13.15,30.41-30.14,0-3.85-1.79-6.97-5.9-7.51l.54-.09c3.76.72,5.54,3.75,5.54,7.6,0,17.08-18.69,30.32-30.68,30.32-9.12,0-13.78-5.64-13.78-14.4,0-2.6.36-5.37,1.16-8.41C14.02,20.66,41.84,0,71.71,0c10.29,0,17.89,2.33,22.63,6.44C101.04,2.51,107.93.09,115.08.09c5.99,0,11.27,2.59,13.95,8.5h-.27c-2.06-5.01-6.89-8.32-13.68-8.32-7.78,0-14.58,2.77-20.48,6.44,4.48,3.85,6.44,9.3,6.17,15.65-.45,9.21-8.14,16.9-16.81,20.3,2.14,2.77,3.31,6.53,3.31,10.38,0,20.66-22.99,34.08-43.11,34.08-11.36,0-15.92-5.28-26.48-5.37-1.43.18-2.86.27-4.29.27l-3.58.09ZM82.7,41.23c7.43-4.65,13.51-13.95,14.13-22.09.18-5.01-.98-8.85-3.31-11.72-1.62.98-3.22,2.15-4.65,3.22-18.6,13.59-21.11,32.73-37.47,52.32-7.87,9.39-19.94,16.46-32.37,18.51,7.69.45,14.49,4.2,19.94,4.83.89.09,1.79.18,2.77.18,18.6,0,41.5-19.77,41.5-39.89,0-1.16-.27-2.32-.72-3.4-2.51.81-4.92,1.16-7.34,1.16-1.25,0-2.41,0-3.75-.27-1.52-.18-2.51-1.25-2.51-2.59,0-1.79,1.88-3.67,5.1-3.67h.17c3.49,0,6.35,1.34,8.5,3.4ZM74.3,38.1h-.54c-2.68,0-4.74,1.79-4.74,3.4,0,1.25.9,2.24,2.51,2.41.72.18,1.43.18,2.06.18,2.69,0,5.46-.81,8.14-2.32-1.52-2.15-4.21-3.67-7.43-3.67Z"/>
  </g>
</svg>