<?xml version="1.0" encoding="UTF-8"?>
<svg id="Capa_2" data-name="Capa 2" xmlns="http://www.w3.org/2000/svg" viewBox="0 0 71.68 78.62">
  <defs>
    <style>
      .cls-1 {
        fill: #4c222a;
      }
    </style>
  </defs>
  <g id="Capa_1-2" data-name="Capa 1">
    <path class="cls-1" d="M20.61,62.87c-.18-.54-.18-1.25-.09-1.88.45-5.99,10.29-23.16,15.47-23.16,1.17,0,1.61,1.16,1.34,2.68-.36,2.68-7.51,11.63-13.68,18.78l-1.25,1.61-1.62,1.97c.27,1.16,1.17,2.06,2.78,2.06,2.95,0,5.72-3.04,7.96-6.08l.09.18c-2.33,3.13-5.19,6.08-8.05,6.08-1.79,0-2.59-.89-2.95-2.06-7.34,9.12-13.87,15.56-16.91,15.56h-.09c-4.65,0-6.26-9.21,4.11-24.6C31.34,18.87,52.36.09,66.31,0h.09c3.04,0,5.27,2.24,5.27,5.54,0,9.48-14.49,15.56-22.45,19.41-7.06,3.4-14.57,6.8-20.92,11.18-3.22,4.38-6.44,8.94-9.66,13.42C4.96,68.33,2.46,74.05,2.37,75.58c-.18,1.79.18,2.86,1.43,2.86,2.95,0,9.48-6.44,16.82-15.56ZM28.57,35.78c6.44-4.38,13.95-7.78,20.75-11.09,11.54-5.54,22.18-11.18,22.18-19.14,0-3.22-2.24-5.37-5.19-5.37h-.09c-10.02,0-23.61,16.55-37.65,35.6Z"/>
  </g>
</svg>