<?xml version="1.0" encoding="UTF-8"?>
<svg id="Capa_2" data-name="Capa 2" xmlns="http://www.w3.org/2000/svg" viewBox="0 0 31.95 39.8">
  <defs>
    <style>
      .cls-1 {
        fill: #4c222a;
      }
    </style>
  </defs>
  <g id="Capa_1-2" data-name="Capa 1">
    <path class="cls-1" d="M29.96,0c6.35,0-4.2,17.98-8.4,17.98-.99,0-1.17-.72-.9-2.32.9-5.1,7.78-11.09,10.29-10.02,1.07-2.15,1.25-5.37-.53-5.37h-.18c-2.24,0-10.46,7.42-18.87,19.77-2.68,4.03-8.77,11.63-8.77,17.08,0,1.25.36,2.51,3.4,2.51,4.29,0,12.61-6.53,21.38-19.77l.09.18c-8.77,13.24-16.99,19.77-21.47,19.77-3.13,0-5.99-1.88-5.99-6.62s1.52-9.3,4.03-13.59C12.43,5.37,25.58,0,29.87,0h.09Z"/>
  </g>
</svg>