<?xml version="1.0" encoding="UTF-8"?>
<svg id="Capa_2" data-name="Capa 2" xmlns="http://www.w3.org/2000/svg" viewBox="0 0 130.57 86.95">
  <defs>
    <style>
      .cls-1 {
        fill: #4c222a;
      }
    </style>
  </defs>
  <g id="Capa_1-2" data-name="Capa 1">
    <path class="cls-1" d="M17.97,83.01c-.99,0-1.88.09-2.78.09H5c-3.94-.81-2.33-5.19,1.07-5.19s7.69,4.02,12.61,4.38c21.28-.62,44.98-52.68,75.22-72.62-3.93-5.19-10.55-8.85-21.2-9.21C37.56-.79,5.63,32.66,1.78,53.76c-1.16,7.07.9,16.99,12.61,16.99s31.66-13.68,31.66-31.3c0-4.02-1.88-7.33-6.17-7.87l.54-.09c3.93.72,5.81,3.94,5.81,7.96,0,17.71-19.49,31.48-31.93,31.48S-2.42,61.19,1.24,47.24C9.65,20.4,40.51-1.69,72.88.1c10.11.63,17.44,3.85,22.45,8.59,6.71-4.12,13.69-6.71,21.11-6.71,5.99,0,11.27,2.5,14.13,8.41v.27c-2.33-5.01-7.07-8.5-13.78-8.5-8.05,0-15.21,2.86-21.28,6.71,7.51,7.33,9.57,18.07,7.78,27.99-3.85,21.38-27.01,48.74-65.47,50.09-7.6-.18-13.78-2.06-19.85-3.94ZM97.92,32.3c1.34-7.6.81-16.19-3.93-22.54l-3.31,2.41c-18.07,13.41-19.23,31.75-34.89,51.07-8.58,10.46-22.9,18.87-36.94,19.68,6.09,1.88,11.99,3.49,18.87,3.85,25.94-.18,55.36-28.08,60.19-54.47Z"/>
  </g>
</svg>