<?xml version="1.0" encoding="UTF-8"?>
<svg id="Capa_2" data-name="Capa 2" xmlns="http://www.w3.org/2000/svg" viewBox="0 0 71.02 76.29">
  <defs>
    <style>
      .cls-1 {
        fill: #4c222a;
      }
    </style>
  </defs>
  <g id="Capa_1-2" data-name="Capa 1">
    <path class="cls-1" d="M0,70.21c.27-5.37,3.94-12.52,6.62-16.28,7.51-11.09,18.25-17.35,23.88-17.35,1.43,0,2.32,1.34,2.24,2.5-.18,1.88-1.43,4.47-3.13,7.25L59.84,4.65c2.95.81,6.17,2.24,10.92-4.65h.27L21.92,66.27c-2.41,3.13-3.31,5.19-3.4,6.71-.17,1.79.18,3.04,1.7,3.04,4.83,0,12.79-12.16,17.8-19.77l.09.18c-4.29,6.35-12.61,19.77-18.06,19.77s-3.4-9.3,2.33-19.14l-.72.98c-6.71,9.84-12.97,18.24-17.26,18.24C1.35,76.29-.08,73.34,0,70.21ZM2.69,73.7c0,1.52.62,2.33,1.79,2.33,4.21,0,10.73-8.94,17.62-19.05l2.32-3.31.54-.8.72-.98c4.29-6.26,6.61-10.19,6.88-12.7.09-1.07-.62-2.41-2.14-2.41-2.14,0-8.5,5.54-16.63,17.35-6.08,8.76-10.91,16.37-11.09,19.59Z"/>
  </g>
</svg>