<?xml version="1.0" encoding="UTF-8"?>
<svg id="Capa_2" data-name="Capa 2" xmlns="http://www.w3.org/2000/svg" viewBox="0 0 31.96 39.71">
  <defs>
    <style>
      .cls-1 {
        fill: #4c222a;
      }
    </style>
  </defs>
  <g id="Capa_1-2" data-name="Capa 1">
    <path class="cls-1" d="M31.96,1.97c0,5.28-12.16,14.76-19.68,16.9-.27.36-.54.63-.72.98-1.97,3.04-3.66,5.46-4.92,7.51-2.05,3.31-6.71,12.07-.89,12.07,3.48,0,11.45-6.89,20.39-19.77l.09.18c-8.94,13.15-16.81,19.85-20.57,19.85-2.95,0-5.99-2.68-5.64-7.78.27-2.95,1.17-7.51,4.12-12.52C12.64,5.37,25.43.18,29.99,0c.98,0,1.97.36,1.97,1.97ZM12.46,18.6c7.69-2.5,19.32-11.54,19.32-16.63,0-1.07-.62-1.79-1.52-1.79h-.17c-2.33.18-10.02,7.34-17.62,18.43Z"/>
  </g>
</svg>