<?xml version="1.0" encoding="UTF-8"?>
<svg id="Capa_2" data-name="Capa 2" xmlns="http://www.w3.org/2000/svg" viewBox="0 0 83.8 83.2">
  <defs>
    <style>
      .cls-1 {
        fill: #4c222a;
      }
    </style>
  </defs>
  <g id="Capa_1-2" data-name="Capa 1">
    <path class="cls-1" d="M49.46,48.12c-6.71,10.82-12.25,18.06-18.07,23.88-8.31,8.41-19.85,11.9-26.29,11.09-2.86-.36-5.1-2.33-5.1-5.46,0-10.28,18.43-15.02,36.49-23.07l2.86-1.25c6.26-8.59,12.61-18.16,18.69-27.9h-.54c-6.62,9.75-12.88,18.06-17.08,18.06-3.04,0-4.47-2.95-4.38-6.08.27-5.37,4.03-12.52,6.62-16.28,7.69-11,18.24-17.35,23.97-17.35,1.34,0,2.24,1.34,2.14,2.5-.09,1.7-1.07,3.85-2.5,6.26l5.45-7.78c2.86.81,7.07,2.15,11.81-4.74h.27c-7.33,9.39-18.78,20.93-24.59,31.48-3.49,6.17-6.62,11.54-9.48,16.19,5.46-3.31,10.37-7.24,14.13-12.16,3.04-3.75,5.99-7.78,8.68-12.07l.09.18c-2.77,4.38-5.63,8.32-8.68,11.99-3.85,5.1-8.85,9.12-14.49,12.52ZM39.09,53.57l-2.59,1.16C18.78,62.61.18,67.43.18,77.63c0,3.13,2.24,4.92,5.01,4.92,9.03.54,21.28-11.99,33.89-28.98ZM38.73,40.87c0,1.52.63,2.33,1.79,2.33,4.2,0,10.73-8.94,17.62-19.05,6.62-9.48,10.19-14.76,10.46-17.8.09-1.07-.62-2.41-2.06-2.41-2.24,0-8.59,5.54-16.73,17.35-6.08,8.76-10.91,16.37-11.09,19.59Z"/>
  </g>
</svg>