<?xml version="1.0" encoding="UTF-8"?>
<svg id="Capa_2" data-name="Capa 2" xmlns="http://www.w3.org/2000/svg" viewBox="0 0 140.15 88.18">
  <defs>
    <style>
      .cls-1 {
        fill: #4c222a;
      }
    </style>
  </defs>
  <g id="Capa_1-2" data-name="Capa 1">
    <path class="cls-1" d="M36.4,44.27c-.54-21.02,20.57-39.62,46.69-39.62,1.52,0,2.95,0,2.77.09,5.27.36,11.36,1.52,17.44,2.86,6.89-4.65,14.04-7.6,21.73-7.6h.36c8.41,0,14.76,2.15,14.76,7.07,0,4.29-5.1,6.17-9.93,6.17-5.46,0-15.74-2.86-26.11-5.19-9.75,7.69-17.53,20.21-25.76,33.09.45,1.43.62,2.95.62,4.38,0,11.63-8.58,19.05-18.51,20.75-11.26,12.43-25.76,21.91-44.54,21.91-9.92,0-15.92-7.06-15.92-16.55,0-15.11,14.13-29.51,27.9-29.51,3.13,0,6.08.8,8.5,2.15ZM.18,71.64c0,9.39,6.26,16.01,15.65,16.01,12.61,0,24.06-9.3,35.24-21.73-3.04-.8-5.73-2.41-8.05-4.74-1.61,6.62-6.62,12.16-12.34,13.5h-.27c0-.09.09-.18.17-.18,5.73-1.25,10.74-6.8,12.35-13.41-3.22-3.22-5.46-7.69-6.17-13.06-.18-1.16-.27-2.33-.36-3.49-2.41-1.43-5.37-2.24-8.5-2.24C14.22,42.31.18,56.62.18,71.64ZM63.05,34.25c1.43-.98,3.13-1.52,5.01-1.52,3.13,0,5.54,1.16,7.34,3.04,8.85-11,17.88-21.29,27.63-27.99-7.07-1.52-14.13-2.86-19.59-2.86-26.92,0-43.29,24.06-44.01,41.68,2.59,2.5,4.21,5.99,4.21,9.93,0,1.25-.18,2.59-.45,3.75,1.88,2.5,4.47,4.56,7.96,5.54,8.14-9.03,16.01-19.77,24.15-29.87-1.7-1.88-4.12-3.04-7.24-3.04-1.61,0-3.13.36-4.38,1.07l-.63.27ZM39.44,46.87c0,1.61,0,3.13.27,4.56.36,2.95,1.43,6.08,3.4,8.76.18-1.25.36-2.41.36-3.67,0-3.85-1.52-7.16-4.03-9.66ZM78.26,41.41c-2.69,4.11-5.28,8.32-8.05,12.34-2.95,4.29-6.08,8.41-9.57,12.34,9.83-1.79,18.15-9.03,18.15-20.57,0-1.43-.18-2.77-.54-4.11ZM104.28,7.87c10.46,2.32,20.66,5.19,25.93,5.19,4.74,0,9.75-1.79,9.75-5.99,0-4.56-5.9-6.8-14.58-6.8h-.45c-7.96,0-14.67,2.86-20.66,7.6Z"/>
  </g>
</svg>