<?xml version="1.0" encoding="UTF-8"?>
<svg id="Capa_2" data-name="Capa 2" xmlns="http://www.w3.org/2000/svg" viewBox="0 0 83.98 82.28">
  <defs>
    <style>
      .cls-1 {
        fill: #4c222a;
      }
    </style>
  </defs>
  <g id="Capa_1-2" data-name="Capa 1">
    <path class="cls-1" d="M83.98,5.81c0,10.19-22.54,18.16-40.51,25.67-5.99,7.87-11.9,16.55-17.62,25.22h.53c8.32-10.82,18.15-21.64,24.06-21.64,2.86,0,3.94,1.52,3.76,3.4-.36,3.84-6.35,7.06-10.82,6.53.9.81,1.43,2.5,1.34,4.56-.36,3.84-2.78,8.23-7.78,13.59-1.7,1.79-10.11,10.02-10.11,13.68,0,1.43.54,1.79,1.43,1.79,3.31,0,13.95-11,19.59-19.77l.09.18c-6.08,9.12-16.19,19.77-19.85,19.77-2.24,0-4.03-1.88-4.03-5.01,0-6.08,5.37-11.9,9.66-16.19,4.47-4.47,9.48-7.96,9.66-10.46.09-.9-.17-1.79-.72-2.24-.8-.18-1.61-.62-2.24-1.16l.09-.09c4.47,3.13,10.47-3.4,10.73-6.98.09-1.25-.45-1.43-.98-1.43-6.09,0-16.82,12.43-25.4,23.97l-12.43,18.6c-2.14-1.34-7.15-2.5-12.07,4.47h-.36c7.42-9.3,18.87-23.61,25.49-33.63,2.41-3.76,4.92-7.51,7.42-11.18-7.87,6.08-14.31,14.94-19.05,21.55l-.09-.18c4.83-6.71,11.27-15.65,19.5-21.91C46.68,17.17,61.35,0,77.9,0c.45,0,.8,0,1.16.09,2.86.45,4.92,2.41,4.92,5.72ZM78.97.54c-9.12,0-22.09,13.15-35.24,30.5,18.07-7.51,40.07-15.29,40.07-25.22,0-2.95-1.7-5.01-4.57-5.28h-.27Z"/>
  </g>
</svg>