<?xml version="1.0" encoding="UTF-8"?>
<svg id="Capa_2" data-name="Capa 2" xmlns="http://www.w3.org/2000/svg" viewBox="0 0 123.12 103.48">
  <defs>
    <style>
      .cls-1 {
        fill: #4c222a;
      }
    </style>
  </defs>
  <g id="Capa_1-2" data-name="Capa 1">
    <path class="cls-1" d="M53.88,50.27c-17.8-.81-25.04-9.66-25.04-20.57S43.15,6.17,63.01,6.17c6.26,0,16.91.98,23.07,8.23C95.83,5.9,105.93,0,116.4,0c4.29,0,6.89,3.13,6.71,7.16-.54,11.63-28.18,39.71-60.37,42.57-2.86,4.29-5.99,8.68-9.66,13.15-8.41,10.29-21.28,17.89-34.7,19.05,9.66,2.59,19.32,5.37,29.43,6.8v-.09c.8-18.15,21.73-40.24,42.12-40.24,8.31,0,12.16,5.28,11.81,12.25-.36,8.41-7.61,19.05-21.02,24.87-1.25,8.05-7.96,17.98-20.13,17.98-8.58,0-13.05-6.97-12.78-14.58-10.56-1.43-20.3-4.38-30.06-6.97-.45,0-.71.09-1.07.09-1.43,0-2.95.09-4.38.09H2.19c-4.03-.81-1.88-5.19,1.52-5.19,2.33,0,4.74,1.79,12.88,4.47,11,0,23.52-14.4,37.3-31.12ZM85.9,14.58c-6.08-7.24-16.63-8.23-22.9-8.23-19.68,0-33.99,11.99-33.99,23.34,0,10.73,7.34,19.68,24.95,20.39,10.11-12.25,20.75-25.67,31.93-35.51ZM50.13,89.26c0,.54-.09,1.07-.09,1.61-.36,7.33,2.95,12.43,10.55,12.43,11.99.09,18.61-9.75,19.94-17.71-5.99,2.59-13.23,4.2-21.55,4.2-3.04-.09-5.99-.27-8.85-.54ZM80.53,85.41l.27-2.06c.18-4.38-1.7-7.87-5.63-7.87v-.18c4.11,0,5.99,3.49,5.81,8.05l-.18,1.97c13.24-5.81,20.39-16.28,20.75-24.69.36-6.8-3.48-12.07-11.62-12.07-15.83,0-37.57,22.09-39.71,40.43,2.86.36,5.82.54,8.77.63,8.41,0,15.56-1.61,21.55-4.2ZM62.92,49.46c29.78-3.13,59.56-32.73,60.01-42.3.18-3.85-2.41-6.98-6.53-6.98-10.02.18-18.07,5.63-24.77,11.27-1.7,1.43-3.22,2.77-4.65,4.2,2.06,2.86,3.4,6.62,3.75,11.36h-.18c-.36-4.74-1.61-8.41-3.67-11.27-10.02,10.11-15.83,21.46-23.97,33.72Z"/>
  </g>
</svg>