<?xml version="1.0" encoding="UTF-8"?>
<svg id="Capa_2" data-name="Capa 2" xmlns="http://www.w3.org/2000/svg" viewBox="0 0 174.65 85.68">
  <defs>
    <style>
      .cls-1 {
        fill: #4c222a;
      }
    </style>
  </defs>
  <g id="Capa_1-2" data-name="Capa 1">
    <path class="cls-1" d="M112.4,9.12c-11.63,0-21.83,8.59-28.09,29.25-2.14,6.98-5.01,14.67-8.68,20.66-2.24,3.67-4.74,6.97-7.34,9.66,13.24-11.18,28.53-29.96,40.88-40.16,17.89-14.76,33.54-23.7,53.75-23.7,4.12,0,8.23.71,11.71,1.97l-.17.09c-3.49-1.25-7.42-1.88-11.54-1.88-20.84,0-36.4,9.66-53.31,23.7-14.57,12.07-32.91,36.13-47.67,45.52l-.98.54c-.27.18-.45.36-.72.45l-1.7.9c-2.42,1.16-4.74,1.88-6.8,1.97l-.18-.36c16.63-2.86,18.69-23.7,25.67-40.07,4.92-11.54,11.54-19.5,18.69-24.06-27.72,15.92-47.58,69.22-78.35,69.22h-.09C3.55,82.82-1.19,71.91.24,59.75c1.52-13.51,16.46-27.82,32.38-28.44C39.33,13.51,65.98,0,88.7,0c13.59,0,23.43,3.85,32.65,10.64.09,0,.09.18,0,.27-2.69-.81-4.74-1.61-8.94-1.79ZM37.18,31.57c7.06,1.34,12.97,6.8,12.25,15.38-.17,1.7-.53,3.49-1.16,5.1,8.58-2.68,18.7-11.72,18.7-22.54,0-3.04-1.34-5.28-4.57-5.72l.45-.18c2.86.54,4.29,2.86,4.29,5.9,0,11-10.29,20.12-18.96,22.81-1.97,5.01-5.9,9.39-11.36,10.02h-.18l.18-.09c5.19-.54,9.13-5.01,11.09-9.93-1.61.54-3.13.72-4.56.72-8.14,0-12.35-5.1-12.35-13.33,0-2.77.54-5.55,1.52-8.23-15.29.98-28.53,19.41-29.96,33.63-1.16,9.39,4.21,17.44,14.94,17.44h.17c32.29,0,52.77-59.84,83.27-71.55,3.22-1.34,6.52-2.06,9.75-2.06h.63c3.04,0,6.44.36,9.75,1.61C115.53,6.53,105.69.45,89.59.27c-23.79-.18-44.54,16.72-52.41,31.3ZM48,52.14c.72-1.7,1.07-3.49,1.26-5.19.62-7.87-4.57-13.86-12.16-15.21-2.15,3.94-3.31,7.69-3.31,10.91,0,4.74,2.14,10.19,9.57,10.19,1.43,0,3.04-.27,4.65-.72ZM83.06,83.45c-2.95,1.43-6.08,2.24-9.21,2.24-5.99,0-5.63-5.37-2.14-5.37,1.88,0,4.56,1.16,7.42,2.06,4.03-3.67,9.39-10.29,15.57-18.25,14.4-18.87,36.49-55.99,62.24-55.99l.09.18c-28.17,0-47.58,62.16-73.78,75.04.36,0,.8.09,1.25.09,7.06,0,15.92-5.9,21.2-11.27,3.22-3.75,6.98-8.23,9.66-12.07l.09.18c-2.77,3.94-6.53,8.59-9.75,12.07-5.28,5.46-14.04,11.18-21.2,11.18-.45,0-.98-.09-1.43-.09ZM79.04,82.46c-2.77-.9-5.36-1.97-7.33-1.97-3.22,0-3.4,5.01,2.14,5.01,1.26,0,3.04-1.07,5.19-3.04Z"/>
  </g>
</svg>