<?xml version="1.0" encoding="UTF-8"?>
<svg id="Capa_2" data-name="Capa 2" xmlns="http://www.w3.org/2000/svg" viewBox="0 0 65.64 43.29">
  <defs>
    <style>
      .cls-1 {
        fill: #4c222a;
      }
    </style>
  </defs>
  <g id="Capa_1-2" data-name="Capa 1">
    <path class="cls-1" d="M29.69,13.42c-3.22,4.02-6.35,8.5-9.03,12.52l-3.58,5.63-.8,1.25c-1.62,2.59-2.78,4.65-3.31,5.81h-.45c-2.95-.81-7.51-2.32-12.26,4.65h-.27L24.42,10.38c2.32-3.22,3.4-5.1,3.58-6.8.18-1.7-.54-2.95-2.06-2.95-2.69,0-9.04,9.03-16.19,19.68l-.09-.18c2.59-3.84,8.31-12.16,10.64-14.93C22.36,2.77,24.59.45,26.03.45c5.82,0,.8,15.92-5.9,25.31l-.09.18h.45c2.95-4.47,5.99-8.85,9.03-12.7C35.33,5.81,39.98.45,43.2.45c5.54.36,1.25,16.01-5.45,25.31l-.09.18h.54C47.22,12.7,57.33,0,62.16,0c1.88,0,3.48,2.15,3.48,5.19s-1.07,6.08-2.68,8.76c-1.61,2.77-3.84,5.46-6.79,8.68-1.97,2.15-10.74,10.02-11.18,15.11-.18,1.52.71,2.15,1.88,2.15,3.4,0,12.43-11.9,17.8-19.77l.09.18c-5.72,8.41-14.4,19.77-18.07,19.77-3.31,0-4.56-3.93-3.85-8.41.81-5.28,5.1-10.55,9.66-15.2,5.45-5.54,11.62-10.47,11.62-13.77,0-1.34-.53-2.42-1.96-2.42-3.13,0-8.85,5.9-14.58,13.15-7.6,9.66-15.21,21.64-16.9,25.22h-.54c-2.95-.81-7.42-2.32-12.25,4.65h-.18L41.32,10.38c2.41-3.22,3.49-5.1,3.67-6.8.09-1.7-.54-2.86-1.97-2.95-3.04.09-7.69,5.63-13.33,12.79Z"/>
  </g>
</svg>