<?xml version="1.0" encoding="UTF-8"?>
<svg id="Capa_2" data-name="Capa 2" xmlns="http://www.w3.org/2000/svg" viewBox="0 0 80.18 84.81">
  <defs>
    <style>
      .cls-1 {
        fill: #4c222a;
      }
    </style>
  </defs>
  <g id="Capa_1-2" data-name="Capa 1">
    <path class="cls-1" d="M26.7,2.89c-1.61,3.58-2.15,6.71-2.15,9.21s.45,4.65,1.25,6.71C39.13,7.09,55.4-.51,69.54.03h.09c5.9,0,9.84,3.31,9.84,7.96,0,1.25-.09,2.32-.36,3.49.72,1.25,1.07,2.95,1.07,4.83,0,32.38-45.17,68.51-63.5,68.51-14.58,0-22.09-14.22-12.16-37.47,4.56-10.55,12.16-20.48,21.11-28.44-.8-2.06-1.25-4.29-1.25-6.8,0-2.69.54-5.37,2.06-8.94l.27-.27ZM41.54,33.03l.54-1.34c-4.92-1.25-9.48-3.76-12.79-7.25-10.11,10.82-18.7,24.33-22.98,37.92-4.74,13.68-1.43,22.27,10.37,22.27,18.07,0,63.23-36.13,63.32-68.33,0-1.88-.27-3.4-.89-4.65-1.52,7.51-7.69,13.06-14.31,16.63-3.93,10.11-13.86,19.32-18.69,19.32-7.24,0-7.16-8.14-4.56-14.58ZM70.43.3c-12.43.36-27.99,10.02-41.05,23.97,3.31,3.58,7.87,5.99,12.79,7.25,5.36-12.43,18.96-23.43,30.76-23.43,2.86,0,4.92,1.07,6.08,3.13.18-1.07.27-2.15.27-3.22,0-4.2-3.31-7.42-8.85-7.69ZM64.44,28.47c-5.27,2.77-11,4.11-14.84,4.11-1.34,0-2.69-.09-4.03-.27-1.34,2.6-2.51,5.1-3.31,7.6-1.16,3.67-.8,7.51,3.85,7.51s14.4-9.12,18.33-18.96ZM64.88,27.93c6.62-3.49,12.61-9.03,14.04-16.55-1.07-1.97-3.13-3.04-6.17-3.04-7.87,0-20.39,11.36-27.1,23.79,1.25.18,2.59.27,3.94.27,3.84,0,9.57-1.43,14.93-4.29,1.07-2.59,1.7-5.28,1.7-7.87,0-1.43-.27-3.13-1.34-3.58-.17-.09-.09-.18.09-.18,1.07.54,1.43,2.15,1.43,3.76,0,2.59-.62,5.19-1.52,7.69Z"/>
  </g>
</svg>