<?xml version="1.0" encoding="UTF-8"?>
<svg id="Capa_2" data-name="Capa 2" xmlns="http://www.w3.org/2000/svg" viewBox="0 0 69.05 75.13">
  <defs>
    <style>
      .cls-1 {
        fill: #4c222a;
      }
    </style>
  </defs>
  <g id="Capa_1-2" data-name="Capa 1">
    <path class="cls-1" d="M8.23,63.41c2.77,0,3.75,2.68,2.24,5.9-1.52,3.13-4.92,5.81-7.69,5.81-2.59,0-3.58-2.69-2.05-5.81,1.43-3.22,4.83-5.9,7.51-5.9ZM43.11,13.06c1.7.27,2.59,1.52,2.5,3.13-.45,7.42-10.55,12.88-16.63,12.88-5,0-7.51-2.42-7.24-6.44C22.54,7.87,41.86,0,52.86,0c9.21,0,16.19,4.38,16.19,11.54,0,19.14-48.84,20.12-57.15,46.42l-.27.09c2.42-10.02,13.87-18.24,26.03-25.31,11.45-6.8,26.02-15.92,26.02-25.67,0-3.84-3.4-6.71-10.82-6.8-12.97,0-29.87,12.88-30.41,22.72-.18,2.86,1.25,5.9,6.53,5.9,5.99,0,16.1-5.54,16.46-12.7.09-1.43-.72-2.68-2.59-2.95l.27-.18Z"/>
  </g>
</svg>