<?xml version="1.0" encoding="UTF-8"?>
<svg id="Capa_2" data-name="Capa 2" xmlns="http://www.w3.org/2000/svg" viewBox="0 0 87.11 83.36">
  <defs>
    <style>
      .cls-1 {
        fill: #4c222a;
      }
    </style>
  </defs>
  <g id="Capa_1-2" data-name="Capa 1">
    <path class="cls-1" d="M11.54,49.1C11.54,24.95,41.77,0,66.45,0c15.2,0,20.66,9.39,20.66,19.85,0,24.6-26.83,47.31-52.41,56.53,4.2,2.77,8.41,5.01,12.52,5.01,11.99,0,20.39-10.46,29.87-24.42l.09.18c-9.93,14.22-18.78,26.21-33,26.21-4.83,0-9.3-2.5-13.87-5.54-6.26,1.88-12.34,2.95-17.8,2.95-8.68,0-12.52-3.94-12.52-7.6,0-3.94,4.65-7.96,11.18-7.96,8.05,0,15.3,5.81,22.28,10.37,22.8-10.82,48.47-36.58,48.47-61.18,0-7.69-4.3-14.22-14.84-14.22C46.95.18,13.42,26.47,13.42,51.87c0,7.07,3.31,12.34,12.97,12.34,21.38,0,42.03-26.12,42.03-39.98,0-5.63-2.5-9.39-8.5-9.39-10.73,0-20.66,13.24-21.82,20.48-.72,4.65.9,7.42,3.58,7.42v.27c-3.22,0-5.1-3.04-4.3-8.85.99-6.8,11.18-19.5,22.45-19.5,6.17,0,8.77,3.85,8.77,9.57,0,13.95-20.75,40.16-42.22,40.16-9.75,0-14.85-5.99-14.85-15.29ZM7.16,67.44c-4.2.09-6.98,2.95-6.98,5.72,0,3.58,3.76,7.42,12.43,7.42,5.1,0,10.82-.98,16.91-3.31-6.71-4.47-13.6-9.84-22.09-9.84h-.27Z"/>
  </g>
</svg>