<?xml version="1.0" encoding="UTF-8"?>
<svg id="Capa_2" data-name="Capa 2" xmlns="http://www.w3.org/2000/svg" viewBox="0 0 130.59 88.63">
  <defs>
    <style>
      .cls-1 {
        fill: #4c222a;
      }
    </style>
  </defs>
  <g id="Capa_1-2" data-name="Capa 1">
    <path class="cls-1" d="M78.53,43.74c1.25.36,2.51.53,3.85.53,9.93,0,22.36-11.63,22.36-25.22,0-4.38-1.79-8.76-5.72-12.07-2.95,1.61-5.73,3.49-8.23,5.37-18.07,13.42-19.41,31.57-35.06,50.89-1.34,1.61-2.77,3.13-4.29,4.65-.54,10.73-10.2,20.75-20.49,20.75-6.08,0-10.19-2.86-15.2-5.63-1.25.09-2.59.09-3.4.09H2.24c-4.02-.9-2.06-5.28,1.34-5.28,3.58,0,9.4,4.38,14.67,4.47,9.48,0,19.5-10.46,30.32-23.79-1.7-2.06-4.03-3.4-6.79-3.93-5.46,6.89-13.69,11.72-20.57,12.88-.36,1.25-.54,2.59-.54,3.94,0,3.58,1.52,6.26,4.74,7.06h-.45c-3.04-.8-4.47-3.58-4.47-7.06,0-1.34.18-2.68.54-3.94-.98.18-1.97.27-2.86.27-11.45,0-15.83-9.03-12.52-22.09C13.43,20.48,44.1.09,74.96,0c10.82,0,19.05,2.41,24.77,6.08,5.28-2.59,10.82-4.2,16.64-4.2s11.36,2.59,14.22,8.41l-.09.27c-2.24-4.92-7.06-8.5-13.78-8.5-6.08,0-11.63,1.79-16.63,4.38,6.53,4.38,9.75,10.37,9.75,16.46,0,12.34-13.33,22.27-24.86,22.27-1.26,0-2.51-.09-3.67-.36,1.52,1.16,2.24,3.31,2.24,5.63,0,10.82-16.19,19.94-19.86,31.39-.18.72-.27,1.25-.27,1.79,0,2.95,2.59,4.11,5.82,4.11,7.87,0,19.23-11.09,19.23-19.85,0-.63-.09-1.25-.18-1.88l.18-.09c.09.63.18,1.25.18,1.88,0,8.76-10.82,20.12-19.41,20.12-6.17,0-9.48-3.94-9.48-9.3,0-1.97.45-4.02,1.34-6.26,5.19-13.06,21.28-18.16,21.28-24.69,0-1.43-.8-2.5-1.79-3.04-.72-.18-1.43-.45-2.15-.72l.09-.18ZM42.31,30.86c3.75.63,5.46,3.58,5.46,7.51,0,5.99-2.33,11.45-5.9,16.01,2.77.54,5.1,1.97,6.79,4.02,14.76-18.24,31.13-41.86,50-51.78C93.92,2.77,86.23.18,74.87.18,41.51.27,9.85,31.93,6.36,51.69c-1.17,6.53.8,15.83,11.81,15.83.89,0,1.88-.09,2.95-.27,2.24-7.51,10.37-13.15,18.07-13.15.8,0,1.69.09,2.5.27,3.58-4.56,5.9-10.11,5.9-16.01,0-3.93-1.88-6.8-5.54-7.33l.27-.18ZM51.17,68.06c-8.68,8.23-20.84,14.31-32.73,14.85-.54,0-1.34.09-2.24.09,4.74,2.59,8.59,5.46,14.75,5.46,9.84,0,19.59-9.48,20.22-20.39ZM41.6,54.47c-.72-.09-1.61-.18-2.41-.18-7.61,0-15.66,5.54-17.89,12.97,6.8-1.16,14.94-5.99,20.3-12.79Z"/>
  </g>
</svg>