<?xml version="1.0" encoding="UTF-8"?>
<svg id="Capa_2" data-name="Capa 2" xmlns="http://www.w3.org/2000/svg" viewBox="0 0 34.68 52.59">
  <defs>
    <style>
      .cls-1 {
        fill: #4c222a;
      }
    </style>
  </defs>
  <g id="Capa_1-2" data-name="Capa 1">
    <path class="cls-1" d="M29.16,8.94c1.25-5.19,3.75-8.94,4.92-8.94.54,0,.72.71.54,1.25-.36,1.88-3.13,5.28-3.85,6.08l-1.43,1.61-.36,1.16c-1.43,6.89,0,19.23-5.99,29.07-4.2,6.98-10.55,11.45-15.29,13.15,10.28-1.52,15.74-9.03,22.9-19.94l.09.18c-7.87,12.07-14.04,20.03-25.93,20.03-3.58,0-4.74-1.88-4.74-4.2,0-4.2,4.03-10.02,7.87-10.02,1.43,0,2.78.9,2.78,2.24,0,.71-.09,1.07-.36,1.52h-.18c.27-.45.36-.9.36-1.52,0-1.16-1.16-2.06-2.59-2.06-3.67,0-7.69,5.81-7.69,9.84,0,2.41,1.43,3.67,3.13,3.67,9.66,0,24.86-38.82,25.49-41.95l.17-.72-.45.63c-4.2,5.81-11.89,16.37-16.1,22.54l-.09-.18c4.3-6.26,11.72-16.55,16.19-22.63l.63-.8Z"/>
  </g>
</svg>