<?xml version="1.0" encoding="UTF-8"?>
<svg id="Capa_2" data-name="Capa 2" xmlns="http://www.w3.org/2000/svg" viewBox="0 0 142.35 87.56">
  <defs>
    <style>
      .cls-1 {
        fill: #4c222a;
      }
    </style>
  </defs>
  <g id="Capa_1-2" data-name="Capa 1">
    <path class="cls-1" d="M56.79,59.56c15.92-18.78,33.54-40.6,43.02-38.64l.62.09c-13.42-1.7-24.95,26.56-38.72,43.55-11.99,14.58-27.72,22.45-42.75,22.99h-.63c-10.73,0-18.33-8.5-18.33-19.05,0-6.53,2.51-12.7,6.53-17.44-.27-2.41-.09-5.1.54-8.05C11.18,22.99,33.63,2.86,61.72,2.86c21.37,0,37.83,12.79,60.91,12.79,18.87,0,24.32-11.45,14.67-15.65h.27c10.56,4.38,3.13,21.73-16.99,21.73S84.16,3.76,63.05,3.76C34.44,3.76,10.19,29.6,6.98,44.99c-.45,1.97-.54,4.03-.27,5.9,4.65-5.46,11.26-9.03,18.15-9.03h.27v.18h-.27c-6.89,0-13.5,3.58-18.15,9.03.72,5.9,4.56,10.91,13.05,10.91,11.36,0,30.77-12.79,30.77-29.25,0-3.75-1.7-6.44-5.19-7.06v-.18c3.66.72,5.37,3.49,5.37,7.24,0,16.64-19.41,29.43-30.95,29.43-7.78,0-12.34-4.2-13.24-10.91C2.6,55.99.09,62.07.09,68.51c0,10.37,7.69,18.87,18.07,18.87h.8c13.24,0,25.76-13.41,37.83-27.81Z"/>
  </g>
</svg>