<?xml version="1.0" encoding="UTF-8"?>
<svg id="Capa_2" data-name="Capa 2" xmlns="http://www.w3.org/2000/svg" viewBox="0 0 45.4 43.38">
  <defs>
    <style>
      .cls-1 {
        fill: #4c222a;
      }
    </style>
  </defs>
  <g id="Capa_1-2" data-name="Capa 1">
    <path class="cls-1" d="M35.48,23.61c-4.12,5.81-12.79,19.77-17.89,19.77-2.24,0-2.86-2.41-2.59-5.19.27-3.58,1.96-8.32,4.38-12.88-4.47,6.44-12.08,18.06-16.73,18.06-2.24,0-2.86-2.41-2.59-5.19.45-5.54,4.38-14.04,8.85-20.21l9.3-13.33c2.95.81,7.33,2.24,11.98-4.65h.18L4.62,33.45c-2.42,3.13-3.75,5.28-3.94,6.89-.09,1.79.63,2.86,2.15,2.86,4.29,0,12.52-12.25,17.17-19.23,1.16-2.15,2.41-4.11,3.85-5.99l9.39-13.33c2.95.81,7.25,2.24,11.99-4.65h.17l-25.85,33.45c-2.41,3.13-3.75,5.28-3.84,6.89-.18,1.79.53,2.86,2.06,2.86,4.65,0,13.06-12.97,17.62-19.77l.09.18Z"/>
  </g>
</svg>