<?xml version="1.0" encoding="UTF-8"?>
<svg id="Capa_2" data-name="Capa 2" xmlns="http://www.w3.org/2000/svg" viewBox="0 0 53.38 43.55">
  <defs>
    <style>
      .cls-1 {
        fill: #4c222a;
      }
    </style>
  </defs>
  <g id="Capa_1-2" data-name="Capa 1">
    <path class="cls-1" d="M22.31,22c-4.38,6.08-14.67,21.55-19.32,21.55-6.26,0-1.79-13.95,5.1-23.52l10.47-14.67c3.04.72,7.6,2.24,12.43-4.65h.18L4.87,33.63c-2.42,3.22-3.49,5.19-3.58,6.8-.17,1.7.27,2.95,1.79,2.95,4.65,0,15.65-16.73,20.12-22.81l.36-.53,10.82-15.29c3.04.81,7.6,2.15,12.52-4.74h.17l-26.65,33.63c-2.41,3.22-3.13,5.19-3.22,6.8-.17,1.52.45,2.68,1.61,2.95h.09c3.4,0,11.27-7.96,17.44-15.47-.09-.63-.09-1.34,0-2.06.54-6.17,10.37-23.43,15.56-23.43,1.17,0,1.61,1.25,1.43,2.77-.45,2.86-8.68,13.33-15.2,20.84l-1.61,1.97c.18,1.07,1.17,1.88,2.59,1.88,3.13,0,5.81-3.22,7.96-6.26l.09.18c-2.41,3.22-4.92,6.26-8.05,6.26-1.61,0-2.41-.81-2.69-1.97-6.35,7.51-13.95,15.47-17.8,15.47-4.74,0-1.96-12.34,3.67-21.55Z"/>
  </g>
</svg>