<?xml version="1.0" encoding="UTF-8"?>
<svg id="Capa_2" data-name="Capa 2" xmlns="http://www.w3.org/2000/svg" viewBox="0 0 146.86 112.69">
  <defs>
    <style>
      .cls-1 {
        fill: #4c222a;
      }
    </style>
  </defs>
  <g id="Capa_1-2" data-name="Capa 1">
    <path class="cls-1" d="M146.77,11.18c-2.33-3.49-6.97-5.63-13.86-5.63-10.29,0-23.17,5.99-35.42,15.47v.63c0,20.66-18.33,41.23-39.71,53.21-1.62,5.37-2.51,10.64-2.51,15.92,0,13.06,7.42,21.65,19.77,21.65,8.68,0,19.49-3.94,29.42-10.82l.18.27c-10.19,6.8-20.66,10.82-29.6,10.82-12.52,0-20.04-8.68-20.04-21.91,0-5.19.8-10.46,2.33-15.74-11.71,6.53-24.33,10.46-35.42,10.46S0,79.96,0,67.53c0-9.75,7.06-16.55,14.58-19.23-.27-1.34-.36-2.68-.36-4.11C14.22,20.93,47.22.09,73.25,0c14.67,0,23.7,8.14,24.24,20.57,12.25-9.3,25.13-15.21,35.42-15.21,6.8,0,11.54,2.06,13.95,5.54l-.09.27ZM23.44,71.37c9.83,0,12.88-8.32,13.05-12.88v-.72c-3.22,1.16-6.44,1.7-9.48,1.7-6.79,0-11.18-4.2-12.43-11C6.62,51.43.18,58.85.18,67.53c0,10.64,8.76,16.19,18.15,16.19,12.97,0,28.71-7.42,42.4-17.98,6.88-15.74,19.14-30.86,32.55-41.95.72-2.68,1.16-5.37,1.16-7.87C94.45,6.53,86.04.18,73.25.18,46.24.18,15.92,28.89,15.92,47.4v.45c2.06-.62,4.03-.98,5.99-.98,7.43,0,14.13,3.31,14.67,10.64,11.18-4.2,21.47-15.12,21.47-30.14,0-5.19-3.67-9.39-9.03-10.02l.45-.09c5.28.81,8.85,4.83,8.85,10.02,0,15.29-10.46,26.29-21.73,30.41,0,.27.09.54.09.81,0,4.65-3.31,13.06-13.23,13.06v-.18ZM36.4,57.6c-.54-7.16-7.25-10.55-14.49-10.55-2.06,0-4.02.36-5.99.89.18,6.17,3.4,11.36,11.09,11.36,3.04,0,6.26-.53,9.4-1.7ZM61.35,65.29c15.03-11.72,27.64-27.19,31.66-40.78-12.97,11-24.77,25.58-31.66,40.78Z"/>
  </g>
</svg>