<?xml version="1.0" encoding="UTF-8"?>
<svg id="Capa_2" data-name="Capa 2" xmlns="http://www.w3.org/2000/svg" viewBox="0 0 37.86 39.71">
  <defs>
    <style>
      .cls-1 {
        fill: #4c222a;
      }
    </style>
  </defs>
  <g id="Capa_1-2" data-name="Capa 1">
    <path class="cls-1" d="M5.94,20.3C12.65,10.19,18.73.62,22.75.62c3.13,0,4.57,4.29,4.57,6.98,0,3.76-1.62,7.96-4.83,12.61,5.81-3.13,11.36-9.39,10.55-16.63-.09-2.24,1.43-3.58,2.78-3.58,1.07,0,2.05.89,2.05,3.13,0,5.46-8.5,13.6-15.56,17.26-.45.72-.98,1.43-1.52,2.15-2.06,2.5-8.32,10.46-8.32,14.49,0,1.34.71,2.32,1.97,2.32,3.67,0,13.14-9.12,19.59-19.05l.09.18c-6.53,9.84-15.92,19.14-19.86,19.14-3.13,0-5.63-3.04-5.72-7.51,0-2.86,1.16-5.9,2.95-8.76C6.92,26.2,1.02,32.2.39,37.21c-.18.8-.18,1.61-.18,2.32,0,.18-.09.18-.17.18-.09,0,0-1.97.17-2.68.63-5.01,6.8-11.18,11.45-14.04,1.34-2.15,3.04-4.29,4.65-6.17,4.38-5.1,8.94-10.38,8.94-13.24,0-1.61-1.07-2.68-2.59-2.68-3.93,0-10.46,10.2-16.63,19.59l-.09-.18Z"/>
  </g>
</svg>