<?xml version="1.0" encoding="UTF-8"?>
<svg id="Capa_2" data-name="Capa 2" xmlns="http://www.w3.org/2000/svg" viewBox="0 0 73.19 97.4">
  <defs>
    <style>
      .cls-1 {
        fill: #4c222a;
      }
    </style>
  </defs>
  <g id="Capa_1-2" data-name="Capa 1">
    <path class="cls-1" d="M60.73.09c.45-.09.9-.09,1.34-.09,9.12,0,14.76,8.41,8.41,19.59-4.03,6.98-15.02,13.06-19.5,18.6-1.97,2.41-3.22,7.24-.98,10.02-3.85.09-7.25,2.69-9.21,5.81-4.11,6.71-.54,14.4-7.6,26.92-4.83,8.5-16.28,16.46-26.66,16.46-3.22,0-5.27-.89-6.53-2.24l.09-.18c1.25,1.34,3.31,2.24,6.44,2.24,6.53,0,16.28-7.69,22.27-18.06,5.99-10.29,5.64-16.46,11.81-25.4,2.06-2.95,4.74-4.92,7.87-5.54-.72-2.77.27-6.8,1.88-9.66,5.01-9.39,19.23-20.3,20.39-30.41.45-5.1-3.04-7.96-8.68-7.96-.45,0-.8,0-1.25.09l-.09-.18Z"/>
  </g>
</svg>