<?xml version="1.0" encoding="UTF-8"?>
<svg id="Capa_2" data-name="Capa 2" xmlns="http://www.w3.org/2000/svg" viewBox="0 0 64.4 69.76">
  <defs>
    <style>
      .cls-1 {
        fill: #4c222a;
      }
    </style>
  </defs>
  <g id="Capa_1-2" data-name="Capa 1">
    <path class="cls-1" d="M25.78,40.25c-1.52-.63-1.61-5.01-.8-7.51,5.01-15.29,20.3-24.59,28.44-24.59,11.63,0,12.88,12.97,9.03,24.86-8.23,22.18-32.92,36.76-50.08,36.76C3.6,69.76-.34,61.62.02,51.87,1,21.02,32.22,0,51.27,0c6.71,0,13.95,3.31,12.88,11.63l-.36.09c1.34-6.98-4.65-11.27-11-11.27C34.81.45,2.97,33.09,2.17,57.69c-.27,6.53,2.86,11.9,10.37,11.9,17.08,0,41.5-25.13,48.74-46.06,3.58-9.84-.36-15.11-7.96-15.11-9.13,0-24.69,14.31-27.82,24.5-.81,2.59-.9,6.44.27,7.16v.18Z"/>
  </g>
</svg>