<?xml version="1.0" encoding="UTF-8"?>
<svg id="Capa_2" data-name="Capa 2" xmlns="http://www.w3.org/2000/svg" viewBox="0 0 67.9 71.64">
  <defs>
    <style>
      .cls-1 {
        fill: #d5d1ca;
      }
    </style>
  </defs>
  <g id="Capa_1-2" data-name="Capa 1">
    <path class="cls-1" d="M67.88,1.97c-.45,4.03-7.51,6.35-16.46,9.03-9.48,10.56-20.12,26.03-38.01,56.35-3.58-1.43-8.76-2.68-12.88,4.29l-.54-.09C8.77,57.33,30.77,28.44,47.94,12.07c-15.39,4.56-34.26,11-35.96,28.53-.45,3.13.72,5.37,1.7,6.08v.09q0,.18-.17.18c-1.07-.81-2.24-3.31-1.79-6.17,1.79-18.25,21.11-24.6,36.58-29.16C55.63,4.74,61.98.18,66.09,0c1.43,0,1.88.98,1.79,1.97ZM56.88,5.37c-1.7,1.61-3.4,3.4-5.1,5.28,8.68-2.59,15.47-4.83,15.83-8.68.09-.8-.17-1.61-1.52-1.61-1.61,0-5.19,1.25-9.21,5.01Z"/>
  </g>
</svg>