<?xml version="1.0" encoding="UTF-8"?>
<svg id="Capa_2" data-name="Capa 2" xmlns="http://www.w3.org/2000/svg" viewBox="0 0 78.86 73.26">
  <defs>
    <style>
      .cls-1 {
        fill: #d5d1ca;
      }
    </style>
  </defs>
  <g id="Capa_1-2" data-name="Capa 1">
    <path class="cls-1" d="M33.1,21.2c-.72,3.22.27,7.69,6.71,7.69,5.72,0,13.6-4.74,15.2-11.09.9-2.24.27-4.2-2.24-4.56l.45-.18c2.33.36,2.95,2.51,2.24,4.92-2.14,6.53-9.83,11.09-15.65,11.09-5.1,0-7.69-2.5-7.6-6.62C32.47,7.78,51.07,0,62.07,0c10.29,0,17.98,5.46,16.63,14.04-2.68,17.17-31.21,20.21-53.48,30.86-12.88,6.26-18.25,13.86-21.64,18.6,2.59-2.68,6.35-5.01,10.29-5.01,8.5,0,18.24,7.78,26.92,7.78,4.83,0,10.55-4.47,11-9.48,0-5.81-4.56-7.87-7.34-7.87-1.61,0-3.13.54-4.47,1.61l-.18-.18c1.34-1.07,2.86-1.61,4.65-1.61,2.77,0,7.51,2.06,7.51,8.05,0,8.32-13.42,14.76-21.38,14.76-9.93,0-14.04-10.55-21.73-10.55-4.2,0-9.12,6.17-6.53,9.93C2.78,73.34,0,74.14,0,72.09c-.17-8.59,11.63-21.11,26.56-28.44,23.61-11.36,44.81-21.2,47.05-35.24.72-4.56-3.04-8.05-11.54-8.14-12.61,0-26.74,11.36-28.97,20.93Z"/>
  </g>
</svg>