<?xml version="1.0" encoding="UTF-8"?>
<svg id="Capa_2" data-name="Capa 2" xmlns="http://www.w3.org/2000/svg" viewBox="0 0 75.58 73.7">
  <defs>
    <style>
      .cls-1 {
        fill: #d5d1ca;
      }
    </style>
  </defs>
  <g id="Capa_1-2" data-name="Capa 1">
    <path class="cls-1" d="M51.44,11.18c1.17.27,1.79.98,1.79,1.97.18,6.8-9.75,11.72-14.58,11.72-4.11,0-5.99-1.88-6.08-5.01C32.12,6.89,51.26.09,60.47,0c7.33,0,15.11,4.29,15.11,12.25-.09,9.93-13.33,17.44-27.63,20.57,3.67,3.67,6.35,9.21,6.26,14.67-.54,15.38-24.69,26.21-40.07,26.21C4.48,73.7-.26,67.61.01,60.37c.27-8.85,10.55-20.93,24.06-20.93,6.17,0,9.3,3.76,9.13,7.69-.09,2.68-1.97,5.54-4.2,7.15l-.09-.18c2.51-1.79,3.76-4.38,4.11-6.71.09-4.02-2.77-7.78-9.03-7.78-11.18,0-22.9,10.38-23.25,21.47-.27,6.8,4.11,12.43,13.33,12.43,14.31,0,33.99-14.49,34.52-32.2.09-3.4-.62-6.17-1.88-8.23-4.29.81-8.68,1.25-12.79,1.25-1.97,0-3.31-.72-3.22-1.97,0-1.61,2.86-4.12,7.96-4.12,2.69,0,5.46,1.34,7.96,3.4,12.16-4.47,23.61-14.22,23.61-23.07,0-5.72-4.11-8.23-9.84-8.32-12.07.09-26.92,11.36-27.19,19.85,0,2.32,1.16,4.56,5.54,4.56,4.83,0,13.77-4.83,14.22-10.91.09-1.25-.35-2.24-1.88-2.41l.36-.18ZM45.89,31.93c-1.88-2.32-4.56-3.49-7.24-3.49-4.47,0-7.78,2.24-7.78,3.94-.09.98,1.07,1.79,3.04,1.79,3.75,0,7.87-.81,11.98-2.24Z"/>
  </g>
</svg>