<?xml version="1.0" encoding="UTF-8"?>
<svg id="Capa_2" data-name="Capa 2" xmlns="http://www.w3.org/2000/svg" viewBox="0 0 77.81 72.98">
  <defs>
    <style>
      .cls-1 {
        fill: #d5d1ca;
      }
    </style>
  </defs>
  <g id="Capa_1-2" data-name="Capa 1">
    <path class="cls-1" d="M77.45,4.65c-1.07-3.13-5.64-4.2-8.59-4.2C51.34.45,27.9,21.02,14.04,39.26c8.68-8.85,19.14-13.41,26.21-13.41,8.85,0,13.05,6.17,12.88,14.67-.36,18.87-24.33,32.47-39.53,32.47-9.93,0-13.6-5.46-13.6-12.7,0-10.73,6.35-23.43,15.2-33.36C28.62,11.9,49.99,0,67.08,0c5.1,0,9.48,1.52,10.73,4.65h-.36ZM11.45,42.75c-5.54,7.87-8.94,14.94-9.03,19.41-.09,5.37,2.59,10.47,10.28,10.47,14.76,0,36.67-25.85,36.94-38.55.09-5.72-3.84-8.05-9.48-8.05-7.96,0-19.94,5.99-28.71,16.72Z"/>
  </g>
</svg>