<?xml version="1.0" encoding="UTF-8"?>
<svg id="Capa_2" data-name="Capa 2" xmlns="http://www.w3.org/2000/svg" viewBox="0 0 70.49 72.36">
  <defs>
    <style>
      .cls-1 {
        fill: #d5d1ca;
      }
    </style>
  </defs>
  <g id="Capa_1-2" data-name="Capa 1">
    <path class="cls-1" d="M37.75,31.75c-2.06-3.76-3.76-7.34-3.67-11,.36-8.76,11.18-20.75,25.76-20.75,5.37,0,10.82,3.22,10.64,8.94-.54,11.18-14.04,15.74-24.06,19.85,2.15,4.2,4.03,8.68,3.93,13.68-.54,12.43-15.65,29.87-36.76,29.87C4.83,72.36-.17,67.43,0,60.1c.72-16.72,18.51-21.11,37.75-28.35ZM37.84,31.84C24.6,37.21,2.78,50.17,2.33,62.61c-.27,5.28,3.13,9.57,11.18,9.57,16.28,0,29.33-13.15,29.78-23.7.27-6.44-2.86-11.72-5.45-16.63ZM46.34,28.62c9.3-4.2,22-13.33,22.35-21.2.18-4.47-3.93-7.24-8.85-7.24-10.64,0-18.43,6.08-18.78,13.95-.18,4.65,2.69,9.3,5.28,14.49Z"/>
  </g>
</svg>