<?xml version="1.0" encoding="UTF-8"?>
<svg id="Capa_2" data-name="Capa 2" xmlns="http://www.w3.org/2000/svg" viewBox="0 0 77.9 73.96">
  <defs>
    <style>
      .cls-1 {
        fill: #d5d1ca;
      }
    </style>
  </defs>
  <g id="Capa_1-2" data-name="Capa 1">
    <path class="cls-1" d="M.36,69.31c1.07,3.13,5.72,4.2,8.68,4.2,18.25,0,42.84-22.63,56.26-42.21-8.41,9.66-19.59,14.4-26.56,14.4-8.5,0-12.43-6.08-12.34-14.4C26.66,11.9,50.63,0,66,0c7.43,0,11.99,7.16,11.9,14.04-.36,26.12-39.53,59.92-67.08,59.92-5.1,0-9.57-1.52-10.82-4.65h.36ZM67.08,28.53c4.83-7.51,7.78-14.4,7.87-19.14.09-5.81-3.04-8.85-8.4-9.21h-.72C50,.18,29.42,24.77,29.25,37.74c0,5.1,3.93,7.78,9.57,7.78,7.69,0,20.66-6.35,28.26-16.99Z"/>
  </g>
</svg>