<?xml version="1.0" encoding="UTF-8"?>
<svg id="Capa_2" data-name="Capa 2" xmlns="http://www.w3.org/2000/svg" viewBox="0 0 163.67 103.03">
  <defs>
    <style>
      .cls-1 {
        fill: #4c222a;
      }
    </style>
  </defs>
  <g id="Capa_1-2" data-name="Capa 1">
    <path class="cls-1" d="M145.34,11.9c3.75-2.24,7.6-3.58,11.54-3.58,4.83,0,6.8,1.07,6.8,2.86,0,2.41-2.86,3.67-6.71,3.67-3.4,0-7.06-.9-11.26-2.24h-.72c-10.73,6.71-21.02,20.75-30.77,34.79h5.99v.18h-6.09c-10.64,15.38-20.75,30.68-30.41,36.4.45.09.99.09,1.52.09,6.62,0,15.03-5.81,19.86-11.18,3.22-3.75,6.98-8.23,9.66-12.07l.09.18c-2.77,3.94-6.53,8.59-9.75,12.07-4.83,5.46-13.15,11.18-19.86,11.18-.62,0-1.16-.09-1.79-.18-2.5,1.52-5,2.32-7.42,2.32-6.17,0-5.9-5.37-2.15-5.37,2.69,0,5.82,2.24,9.57,2.86,9.66-5.54,19.77-20.93,30.41-36.31h-20.84c-21.19,25.49-40.96,55.45-74.23,55.45h-.72c-11.18,0-18.07-8.14-18.07-18.87,0-16.28,14.58-31.39,29.25-31.39h.18v.18h-.27C14.85,52.95.18,68.15.18,84.16c0,10.82,7.06,18.69,17.71,18.69h.89c20.39,0,41.23-29.78,66.01-55.27h-7.78v-.18h7.96c17.53-17.89,36.94-33.54,59.57-34.97,0,0,0-.09.09-.09-10.73-3.49-24.96-9.21-45.43-9.21-32.2,0-64.85,19.85-67.17,39.44-.9,8.14,2.86,16.99,13.95,16.99,11.71,0,27.81-12.34,27.81-28.35,0-4.12-1.96-7.42-5.9-7.96l.18-.27c3.93.71,5.9,4.02,5.9,8.23,0,16.19-16.1,28.53-27.99,28.53-10.64,0-15.47-7.69-14.22-19.14C33.99,22.18,60.28,0,87.92,0c22,0,43.29,7.87,57.42,11.9ZM83.18,84.07c-3.58-.71-6.62-2.86-9.3-2.86-3.48,0-3.57,5.01,2.15,5.01,2.33,0,4.74-.81,7.16-2.15ZM144.09,12.7c-20.93,1.88-36.31,17.26-50.89,34.7h20.75c9.66-13.95,19.67-27.9,30.14-34.7Z"/>
  </g>
</svg>