<?xml version="1.0" encoding="UTF-8"?>
<svg id="Capa_2" data-name="Capa 2" xmlns="http://www.w3.org/2000/svg" viewBox="0 0 47.85 43.46">
  <defs>
    <style>
      .cls-1 {
        fill: #d5d1ca;
      }
    </style>
  </defs>
  <g id="Capa_1-2" data-name="Capa 1">
    <path class="cls-1" d="M37.92,23.61c-3.85,5.46-12.79,19.77-17.8,19.77-2.33,0-3.13-1.97-2.95-4.74.36-3.93,2.59-9.75,5.54-14.94l-1.07,1.52c-6.71,9.84-12.97,18.24-17.26,18.24-2.95,0-4.38-2.68-4.38-5.72,0-5.72,3.31-11.8,6.62-16.63C14.13,10.02,24.87,3.75,30.59,3.75c1.34,0,2.24,1.34,2.15,2.5-.09,1.43-.9,3.31-1.88,5.37l4.83-6.98c2.95.81,7.24,2.24,11.89-4.65h.27l-25.85,33.45c-2.42,3.13-3.49,5.19-3.67,6.71-.09,1.79.27,3.04,1.88,3.04,4.38,0,12.16-11.63,17.62-19.77l.09.18ZM2.69,41.14c0,1.25.72,2.06,1.79,2.06,4.21,0,10.82-8.85,17.62-19.05l1.96-2.86c.72-1.16,1.43-2.24,2.24-3.31l1.7-2.41c2.86-4.29,4.38-7.24,4.56-9.21.09-1.07-.62-2.41-2.05-2.41-2.24,0-8.59,5.54-16.73,17.35C7.69,30.05,2.69,37.74,2.69,41.14Z"/>
  </g>
</svg>