<?xml version="1.0" encoding="UTF-8"?>
<svg id="Capa_2" data-name="Capa 2" xmlns="http://www.w3.org/2000/svg" viewBox="0 0 86.34 88.1">
  <defs>
    <style>
      .cls-1 {
        fill: #4c222a;
      }
    </style>
  </defs>
  <g id="Capa_1-2" data-name="Capa 1">
    <path class="cls-1" d="M17.65,77.27c-2.41-1.34-3.04-4.02-2.86-6.62.62-11.36,14.94-31.31,27.99-31.31,5.82,0,9.66,2.95,9.66,8.94,0,18.78-19.85,39.8-39.44,39.8C3.25,88.1-.41,77.9.04,68.87c.81-14.4,9.21-27.99,20.75-39.17-2.86-2.77-4.47-6.62-4.47-11.54C16.32,8.41,27.67,1.97,36.44,1.97c4.92,0,11.36,1.88,16.19,5.72C62.82,2.86,72.48,0,79.46,0h.71c3.22,0,6.17,2.24,6.17,5.72,0,14.85-26.02,30.05-46.6,30.05-4.83,0-9.03-.63-12.61-2.06C13.99,47.22,3.7,62.78,2.99,76.56c-.18,5.72,2.86,11.36,10.11,11.36,19.05,0,39.17-20.93,39.17-39.62,0-5.9-3.75-8.76-9.48-8.76-12.88,0-27.18,20.03-27.81,31.13-.18,2.41.36,5.19,2.68,6.44v.18ZM21.32,29.25c9.3-8.94,20.49-16.37,31.13-21.46-4.83-3.85-11.18-5.63-16.01-5.63-9.75,0-18.33,8.32-18.33,16.63,0,4.47,1.17,7.87,3.22,10.46ZM55.31,10.56c-9.3,5.9-19.23,14.04-27.99,22.99,3.4,1.52,7.69,2.06,12.43,2.06,20.48,0,46.42-15.12,46.42-29.87,0-3.22-2.59-5.37-5.99-5.37h-.27c-5.73,0-14.67,3.85-24.51,10.2,1.61,1.97,2.95,4.38,3.58,7.15h-.17c-.63-2.77-1.88-5.1-3.49-7.15Z"/>
  </g>
</svg>