<?xml version="1.0" encoding="UTF-8"?>
<svg id="Capa_2" data-name="Capa 2" xmlns="http://www.w3.org/2000/svg" viewBox="0 0 99.72 109.81">
  <defs>
    <style>
      .cls-1 {
        fill: #d5d1ca;
      }
    </style>
  </defs>
  <g id="Capa_1-2" data-name="Capa 1">
    <path class="cls-1" d="M76.47,6.6l.27.09c-4.02,2.32-8.05,6.53-8.05,11.99,0,5.1,4.29,9.12,11.81,9.12,9.93,0,19.05-7.06,19.05-16.37,0-6.97-6.08-11-13.33-11-11.45,0-26.92,6.89-32.38,27.55-.45,1.88-.71,3.49-.62,4.92.98,0,2.05,0,2.95.18,2.32.53,3.48,1.61,3.4,2.77-.09.98-1.25,1.97-3.4,1.97h-.18c-2.06,0-4.2-1.61-5.45-4.29-16.28,3.58-45.7,30.41-45.7,54.65,0,6.08,3.58,10.11,11,10.11-.45-1.97-.62-4.2-.62-6.44,0-21.55,21.19-51.87,44.27-51.87,7.87,0,11.63,4.56,11.63,12.07,0,23.07-35.78,45.97-55,46.42,1.7,6.53,6.17,11.27,14.67,11.27l-.18.09c-8.5,0-13.06-4.65-14.67-11.36h-.36c-10.64,0-15.57-7.51-15.57-17.17,0-21.73,31.75-45.61,50.35-48.12-.63-1.52-.99-3.31-.9-5.28C50.35,10.44,70.57-1,86.22.07c7.51.36,13.5,4.2,13.5,11.36,0,9.39-9.21,16.55-19.23,16.55-7.78,0-11.99-4.02-11.99-9.3s3.58-9.48,7.96-12.07ZM16.1,98.27c18.51-.18,54.83-23.16,54.83-46.24,0-7.42-3.66-11.9-11.45-11.9-22.99,0-44.09,30.23-44.09,51.69,0,2.24.18,4.38.72,6.44ZM53.22,33.16c.09,2.77,1.16,4.47,2.95,4.47h.17c1.88,0,3.04-.9,3.13-1.79,0-1.07-1.25-2.15-3.4-2.51-.9-.18-1.88-.18-2.86-.18Z"/>
  </g>
</svg>