<?xml version="1.0" encoding="UTF-8"?>
<svg id="Capa_2" data-name="Capa 2" xmlns="http://www.w3.org/2000/svg" viewBox="0 0 128.83 114.3">
  <defs>
    <style>
      .cls-1 {
        fill: #4c222a;
      }

      .cls-2 {
        opacity: .1;
      }
    </style>
  </defs>
  <g id="Capa_1-2" data-name="Capa 1">
    <g class="cls-2">
      <path class="cls-1" d="M.03,1.87c1.06,5.8,2.52,11.54,4.16,17.2.81,2.82,1.65,5.62,2.6,8.4,1.02,2.98,2.28,5.86,3.63,8.7,2.52,5.33,5.47,10.44,8.71,15.36,3.36,5.1,7.08,9.97,11.06,14.6s8.01,8.7,12.45,12.61,9.43,7.83,14.46,11.31,9.94,6.37,15.19,9.08,10.88,5.2,16.54,7.26,11.19,3.66,16.93,4.93c5.81,1.28,11.74,2.28,17.67,2.72,1.45.11,2.9.15,4.34.25.57.04,1.06-.51,1.06-1.06,0-.61-.49-1.02-1.06-1.06-1.44-.1-2.93-.31-4.34-.5s-2.73-.37-4.22-.6c-2.88-.45-5.75-1-8.59-1.67-5.71-1.35-11.32-3.09-16.8-5.18-1.35-.52-2.7-1.06-4.04-1.62-.06-.03-.36-.15-.11-.05.23.1,0,0-.04-.02-.16-.07-.32-.14-.48-.21s-.32-.14-.48-.21c-.2-.09-.41-.2-.61-.26.13.04.29.12.07.02-.68-.3-1.37-.6-2.05-.91-2.65-1.21-5.27-2.5-7.85-3.87-5.17-2.75-10.15-5.84-14.96-9.18-1.21-.84-2.42-1.7-3.61-2.58-.59-.43-1.17-.87-1.75-1.31-.14-.11-.28-.21-.42-.32-.1-.08-.57-.44-.2-.15.38.3-.11-.09-.2-.15-.16-.12-.32-.25-.47-.37-2.32-1.82-4.59-3.72-6.8-5.67-4.39-3.89-8.51-8.05-12.48-12.37-1.98-2.15-3.9-4.37-5.75-6.64-.46-.56-.91-1.13-1.36-1.7-.22-.27-.43-.55-.65-.83-.06-.08-.12-.16-.18-.24-.04-.04.44.57.25.32-.14-.18-.27-.36-.41-.54-.88-1.15-1.74-2.32-2.59-3.5-3.44-4.75-6.49-9.71-9.38-14.8-1.44-2.53-2.82-5.11-4.07-7.73-.63-1.32-1.32-2.62-1.97-3.93-.32-.64-.64-1.29-.95-1.93-.06-.13-.13-.36-.22-.47l.11.27-.23-.54c-.03-.07-.07-.13-.1-.2-.16-.33-.32-.67-.47-1.01-.14-.31-.29-.63-.43-.94-.08-.18-.16-.36-.24-.54-.03-.07-.06-.14-.09-.2-.06-.14-.04-.09.06.14l-.2-.48c.12.38.01.04-.06-.14-.07-.16-.13-.32-.2-.49-.14-.35-.28-.7-.42-1.05-.55-1.37-1.07-2.75-1.54-4.16-.92-2.78-1.75-5.58-2.43-8.43-.33-1.39-.64-2.78-.92-4.18C2.74.3,1.8-.15,1.07.05.24.28-.11,1.08.03,1.87H.03Z"/>
    </g>
  </g>
</svg>