<?xml version="1.0" encoding="UTF-8"?>
<svg id="Capa_2" data-name="Capa 2" xmlns="http://www.w3.org/2000/svg" viewBox="0 0 217.92 196.41">
  <defs>
    <style>
      .cls-1 {
        fill: #d5d1ca;
      }

      .cls-2 {
        opacity: .1;
      }
    </style>
  </defs>
  <g id="Capa_1-2" data-name="Capa 1">
    <g class="cls-2">
      <path class="cls-1" d="M6.93,1.57c2.01,5.48,4.02,10.95,6.09,16.41,2.07,5.46,4.15,10.91,6.34,16.33.28.68.55,1.37.83,2.05.17.43.34.86.52,1.28.03.07.19.45.09.21.11.27.23.54.34.81.57,1.36,1.16,2.72,1.74,4.08,1.16,2.68,2.35,5.35,3.57,8.01,2.44,5.31,5,10.57,7.72,15.75s5.55,10.18,8.63,15.09c3.04,4.85,6.27,9.58,9.72,14.15s7.26,9.18,11.26,13.47,8.09,8.19,12.49,11.9c3.89,3.28,7.97,6.31,12.27,9.02,4.13,2.59,8.43,4.89,12.87,6.9,4.6,2.08,9.32,3.88,14.14,5.36,4.67,1.42,9.43,2.54,14.24,3.36s9.85,1.36,14.82,1.51,9.5-.04,14.21-.59,9.56-1.47,14.21-2.82,8.99-3.06,13.23-5.19,8.25-4.75,11.99-7.71c3.67-2.9,7.02-6.21,9.97-9.83,3.93-4.83,7.22-10.32,8.77-16.39,1.53-5.95,1.21-12.4-1.91-17.81-2.5-4.32-6.52-7.33-11.1-9.15-4.32-1.72-9.21-2.21-13.81-1.72-4.95.53-9.83,2.01-14.06,4.68-5.13,3.23-9.33,7.64-12.93,12.47-1.71,2.29-3.27,4.68-4.72,7.14s-2.78,5.13-4.06,7.75-2.49,5.2-3.73,7.8-2.68,5.38-3.99,8.08c-.06.12-.31.54-.29.67-.01-.05.21-.4.06-.2-.1.13-.17.31-.25.46-.17.33-.35.67-.52,1-.35.67-.7,1.34-1.05,2-.71,1.33-1.42,2.66-2.15,3.98-1.44,2.61-2.92,5.2-4.45,7.76s-3.1,5.15-4.78,7.63c-.82,1.21-1.66,2.42-2.52,3.61-.44.61-.87,1.21-1.32,1.81s-.84,1.11-1.23,1.6c-3.64,4.67-7.54,9.15-11.78,13.29-4.17,4.08-8.62,7.85-13.38,11.19s-9.72,6.16-14.99,8.47-10.67,4.03-16.23,5.21c-5.51,1.17-11.14,1.74-16.77,1.64s-11.01-.85-16.32-2.36-10.44-3.8-15.09-6.83c-3.79-2.47-7.16-5.58-10.06-9.09-2.89-3.5-5.27-7.43-7.13-11.56s-3.19-8.56-3.94-13.05-.88-8.92-.37-13.36c.49-4.29,1.64-8.57,3.51-12.47s4.28-7.4,7.37-10.36c.72-.69-.38-1.79-1.1-1.1-3.05,2.92-5.62,6.29-7.53,10.06-1.87,3.67-3.11,7.66-3.78,11.72-1.39,8.43-.43,17.19,2.38,25.24,2.84,8.13,7.56,15.68,13.94,21.49,7.38,6.72,16.93,10.94,26.68,12.82,10.42,2.01,21.23,1.45,31.53-1.01s20.47-7.03,29.33-13.16c9.12-6.31,17.19-14.07,24.28-22.58,1.87-2.24,3.59-4.44,5.29-6.66,1.8-2.34,3.24-4.29,4.96-6.69,3.25-4.52,6.28-9.18,9.16-13.95,5.66-9.37,10.5-19.19,16.18-28.55,1.38-2.27,2.85-4.49,4.45-6.61.1-.13.2-.26.3-.39-.57.77-.21.27-.08.11.17-.22.34-.43.51-.64.45-.55.91-1.1,1.37-1.63.86-.98,1.76-1.93,2.7-2.84s1.92-1.78,2.94-2.6c.13-.1.26-.2.39-.31.49-.39-.6.45-.11.08.26-.2.53-.4.8-.59.5-.36,1.01-.71,1.52-1.04.88-.56,1.79-1.07,2.73-1.53.24-.11.47-.23.71-.33.12-.05.24-.11.36-.16.5-.22-.76.31-.25.11s.98-.39,1.48-.57c1.96-.69,3.99-1.17,6.05-1.46l-.82.11c.36-.05.72-.09,1.08-.15l-.82.11c2.6-.34,5.24-.36,7.84-.01l-.81-.11c1.56.21,3.09.55,4.58,1.04.36.12.71.24,1.06.38.17.07.35.14.52.21.34.14-.78-.34-.32-.14.11.05.23.1.34.15.67.31,1.33.65,1.96,1.03.31.19.62.38.93.59.15.1.3.21.45.31.21.15.88.72.02,0,.56.47,1.12.94,1.63,1.46.26.26.51.53.75.81.12.14.24.28.36.42.05.06.12.2.19.24-.07-.04-.49-.66-.2-.26.45.63.88,1.27,1.25,1.95.23.41.44.83.63,1.26.1.21.16.59-.07-.17.04.13.1.26.15.39.11.28.21.57.31.86.36,1.09.61,2.21.77,3.35l-.11-.78c.18,1.35.23,2.72.15,4.08-.02.33-.05.66-.08.99-.02.16-.04.33-.05.49-.07.62.11-.73.02-.11-.11.66-.22,1.32-.37,1.97-.31,1.38-.73,2.74-1.22,4.07-.1.27-.2.54-.31.8-.06.16-.14.32-.2.48.27-.79.09-.22.02-.05-.3.69-.63,1.37-.97,2.04-.63,1.24-1.33,2.44-2.07,3.61-.37.58-.75,1.15-1.15,1.72-.2.28-.4.56-.6.83-.1.14-.2.27-.3.41-.07.09-.14.18-.21.27.26-.33.31-.4.14-.19-1.36,1.73-2.79,3.4-4.31,4.98s-3.13,3.1-4.8,4.52c-.41.35-.82.69-1.23,1.02-.21.17-.42.33-.63.5-.07.05-.14.11-.21.16-.36.29.57-.44.02-.01-.88.67-1.78,1.32-2.69,1.95-3.53,2.42-7.3,4.5-11.21,6.22-.24.11-.49.21-.73.32-.47.2.61-.25.13-.06-.12.05-.25.1-.37.15-.49.2-.99.4-1.48.59-1.04.4-2.08.78-3.13,1.13-2.07.7-4.17,1.31-6.3,1.83s-4.21.95-6.34,1.31c-.54.09-1.07.17-1.61.25-.27.04-.54.08-.81.12-.17.02-.69.08.12-.02-.18.02-.36.05-.54.07-1.08.14-2.17.25-3.26.35-4.45.4-8.93.48-13.39.27-2.28-.11-4.56-.29-6.83-.55-.56-.06-1.12-.13-1.67-.2-.14-.02-.28-.04-.42-.05.73.09.22.03.06,0-.28-.04-.56-.08-.84-.12-1.16-.17-2.32-.36-3.48-.57-4.51-.81-8.96-1.92-13.33-3.29-2.21-.69-4.4-1.46-6.57-2.28-1.06-.41-2.11-.83-3.16-1.27-.13-.06-.56-.29.01,0-.12-.06-.26-.11-.39-.17-.26-.11-.52-.22-.78-.34-.56-.25-1.12-.5-1.68-.75-4.15-1.9-8.19-4.05-12.07-6.46-1.94-1.21-3.85-2.48-5.71-3.82-.42-.3-.83-.6-1.24-.91-.22-.17-.45-.33-.67-.5-.11-.08-.22-.17-.33-.25-.07-.06-.15-.11-.22-.17-.18-.14-.15-.11.11.09-.16-.2-.46-.36-.66-.51-.22-.17-.44-.35-.65-.52-.52-.41-1.03-.83-1.54-1.26-8.34-6.9-15.84-14.78-22.53-23.29-.21-.26-.41-.52-.61-.79-.05-.06-.39-.51-.08-.1-.1-.13-.2-.26-.3-.4-.44-.57-.87-1.15-1.3-1.72-.8-1.07-1.58-2.14-2.36-3.23-1.58-2.22-3.12-4.47-4.61-6.75-2.97-4.54-5.78-9.18-8.44-13.9-5.42-9.59-10.23-19.52-14.69-29.59-1.13-2.54-2.25-5.08-3.35-7.63-.54-1.25-1.08-2.5-1.61-3.75s-.94-2.23-1.5-3.55c-2.16-5.16-4.19-10.21-6.26-15.45-.98-2.46-1.95-4.93-2.92-7.39-.24-.62-.83-1.06-1.52-.86-.6.17-1.1.89-.86,1.52h0Z"/>
    </g>
  </g>
</svg>