<?xml version="1.0" encoding="UTF-8"?>
<svg id="Capa_2" data-name="Capa 2" xmlns="http://www.w3.org/2000/svg" viewBox="0 0 173.21 37.01">
  <defs>
    <style>
      .cls-1 {
        fill: #d5d1ca;
      }

      .cls-2 {
        opacity: .1;
      }
    </style>
  </defs>
  <g id="Capa_1-2" data-name="Capa 1">
    <g class="cls-2">
      <path class="cls-1" d="M.66,12.97c4.93,3.43,10.09,6.5,15.46,9.19s11.01,5.08,16.73,7.05c5.63,1.95,11.4,3.52,17.23,4.73,5.97,1.24,12.02,2.09,18.09,2.58s11.96.6,17.93.33,12.21-.94,18.24-1.95c5.92-.99,11.78-2.34,17.53-4.06s11.52-3.85,17.07-6.3c5.47-2.42,10.79-5.18,15.87-8.35s10.05-6.77,14.65-10.72c1.12-.96,2.2-1.97,3.31-2.94.61-.54.55-1.57,0-2.12-.6-.6-1.51-.54-2.12,0-1.13,1-2.31,1.93-3.49,2.86-.28.22-.56.44-.84.66-.15.11,0,0,.02-.02-.08.06-.16.12-.24.19-.16.12-.32.25-.48.37-.59.44-1.18.88-1.77,1.32-2.39,1.75-4.82,3.47-7.31,5.08-4.97,3.23-10.17,6.13-15.51,8.7-1.32.64-2.66,1.25-4,1.85-.67.3-1.35.59-2.02.88-.25.11.27-.11.01,0-.07.03-.14.06-.21.09-.16.07-.33.14-.49.2-.35.15-.7.29-1.06.43-2.75,1.11-5.54,2.14-8.36,3.07-5.65,1.87-11.41,3.39-17.24,4.56-2.92.58-5.86,1.08-8.81,1.48-.08.01-.15.02-.23.03-.27.04.3-.04.02,0-.18.02-.35.05-.53.07-.38.05-.76.1-1.14.14-.73.09-1.47.17-2.2.25-1.47.16-2.94.29-4.41.4-5.94.45-11.91.56-17.86.32-2.97-.12-5.94-.33-8.9-.63-1.49-.15-2.98-.33-4.47-.52-.32-.04.16.02-.17-.02-.2-.03-.4-.06-.6-.08-.38-.05-.76-.11-1.13-.16-.73-.11-1.46-.22-2.19-.34-5.86-.97-11.66-2.3-17.35-4-2.82-.84-5.61-1.77-8.36-2.8s-5.36-2.09-8.02-3.29c-5.42-2.44-10.66-5.26-15.68-8.44-1.23-.78-2.44-1.58-3.64-2.39-.59-.4-1.47-.11-1.82.48-.39.66-.11,1.41.48,1.82h0Z"/>
    </g>
  </g>
</svg>