<?xml version="1.0" encoding="UTF-8"?>
<svg id="Capa_2" data-name="Capa 2" xmlns="http://www.w3.org/2000/svg" viewBox="0 0 676.87 63.67">
  <defs>
    <style>
      .cls-1 {
        fill: #2f2d2a;
        opacity: .1;
      }
    </style>
  </defs>
  <g id="Capa_1-2" data-name="Capa 1">
    <path class="cls-1" d="M1.09,0c67.97,45.6,152.17,69.09,233.86,58.46,12.65-1.68,25.24-4.07,37.64-7.06,6.88-1.62,14.37-3.62,21.19-5.5,28.11-7.87,55.87-17.06,84.37-23.47,100.07-24.07,206.16-6.58,298.72,36.22,0,0-.6,1.32-.6,1.32l-1.33-.37c-4.81-1.41-9.64-2.96-14.41-4.47-20.61-6.61-41.42-13.44-62.17-19.51-77.15-22.23-146.47-29.69-225.32-11-40.95,9.24-80.39,24.54-121.66,32.49-8.91,1.71-18.14,3.14-27.17,4.12-3.62.39-7.32.81-10.96,1.07,0,0-2.75.23-2.75.23-.92.08-1.83.18-2.75.22-26.66,1.79-53.69,1.13-80.05-3.52C81.37,50.79,36.94,30.95,0,1.72c0,0,1.09-1.72,1.09-1.72h0Z"/>
  </g>
</svg>