<?xml version="1.0" encoding="UTF-8"?>
<svg id="Capa_2" data-name="Capa 2" xmlns="http://www.w3.org/2000/svg" viewBox="0 0 274.28 184.59">
  <defs>
    <style>
      .cls-1 {
        fill: #4c222a;
      }

      .cls-2 {
        opacity: .1;
      }
    </style>
  </defs>
  <g id="Capa_1-2" data-name="Capa 1">
    <g class="cls-2">
      <path class="cls-1" d="M154.42,1.31c-1.25,11.1-3.31,22.11-5.75,33.01-2.43,10.82-5.34,21.53-8.79,32.06-3.47,10.57-7.41,20.98-11.94,31.15-2.24,5.05-4.49,9.75-7.03,14.74-2.51,4.93-5.15,9.79-7.92,14.58-4.96,8.59-10.33,16.95-16.52,24.71-1.5,1.88-3.05,3.73-4.66,5.53-.09.1-.18.2-.27.3-.22.25.33-.36-.03.03-.2.22-.4.44-.61.66-.42.46-.85.92-1.29,1.37-.82.86-1.66,1.71-2.52,2.55-1.7,1.66-3.45,3.26-5.26,4.79-.9.76-1.82,1.5-2.75,2.22-.46.36-.92.72-1.39,1.07-.21.16-.42.32-.64.47.51-.35.05-.04-.04.03-.13.09-.26.19-.39.28-1.9,1.35-3.86,2.62-5.88,3.78-.5.29-1.01.57-1.52.85-.23.13-.47.25-.7.37-.14.07-.28.15-.42.22-.09.05-.19.1-.28.15l.27-.14c-.99.62-2.17,1.07-3.24,1.53s-2.17.91-3.27,1.31c-.28.1-.55.2-.83.3-.13.04-.25.09-.38.13-.34.12.62-.2.09-.03-.61.2-1.23.4-1.85.59-1.03.31-2.06.59-3.11.84-.43.1-.87.19-1.3.28.85-.19-.02,0-.22.04-.28.05-.57.1-.85.14-.97.15-1.94.28-2.92.37-.44.04-.89.08-1.34.11-.14,0-.63.04.05,0-.27.02-.57.02-.85.05.04,0,.55-.03.18,0-.18,0-.36.02-.54.02-1.99.08-3.98.03-5.97-.13-.23-.02-.45-.04-.68-.06-.14-.01-.27-.03-.41-.04-.45-.04.28.04,0,0-.52-.06-1.04-.12-1.56-.2-1-.14-1.99-.31-2.98-.48-2-.36-3.97-.82-5.92-1.39-7.37-2.16-14.42-6.27-19.9-11.8-1.33-1.34-2.6-2.73-3.76-4.21s-2.03-3.14-2.82-4.78c-1.62-3.35-2.64-6.98-2.98-10.69-.78-8.62,2.44-17.12,7.77-23.8,5.57-6.98,13.44-12.1,21.87-14.89,9.4-3.12,19.6-2.83,29.11-.34,10.27,2.68,19.88,7.48,28.77,13.22,4.47,2.89,8.84,5.99,13.14,9.31,4.42,3.42,8.78,6.93,13.11,10.47,8.7,7.1,17.38,14.26,26.78,20.43,8.54,5.61,17.69,10.23,27.29,13.73,9.62,3.51,19.62,6,29.78,7.29,10.33,1.31,20.77,1.53,31.15.62,2.54-.22,5.07-.51,7.59-.88,1.25-.18,2.5-.39,3.74-.61.59-.11,1.19-.22,1.78-.33.33-.06.65-.13.98-.19-.61.11-.27.05-.14.03.55-.11,1.1-.21,1.65-.33,4.93-1.01,9.8-2.28,14.56-3.9.65-.22,1.32-.43,1.96-.68-.44.17.08-.04.15-.06.27-.09.54-.18.81-.28s.53-.19.8-.29c1.12-.41,2.22-.84,3.33-1.28,2.26-.91,4.54-1.95,6.71-2.91.36-.16,1.14-.63.74-1.11-.38-.45-1.39-.22-1.83-.03-1.21.54-2.46,1.01-3.69,1.48-1.38.53-2.3.87-3.58,1.31-.16.06-.33.11-.49.17-.05.02-.33.11-.04.01-.32.11-.65.22-.97.33-.6.2-1.19.39-1.79.58-1.2.38-2.4.73-3.61,1.07-2.47.7-4.96,1.35-7.46,1.94-1.22.29-2.45.56-3.68.81-.17.03-.34.07-.5.1-.04,0-.6.12-.19.04s-.15.03-.19.04c-.17.03-.34.06-.5.1-.62.12-1.23.24-1.85.34-5,.85-10.04,1.47-15.1,1.81-.34.02-.68.04-1.03.07-.15,0-1.12.1-.37.02-.68.07-1.37.07-2.05.09-1.25.05-2.51.08-3.76.09-2.54.03-5.08-.01-7.62-.12s-5.07-.29-7.6-.53c-.28-.03-.57-.06-.85-.09-.12-.01-.71-.06-.07,0-.17-.01-.34-.04-.51-.06-.62-.07-1.25-.14-1.87-.22-1.27-.16-2.54-.34-3.81-.53-5.03-.78-10.02-1.79-14.94-3.09-1.24-.33-2.48-.67-3.72-1.04-.55-.16-1.1-.33-1.64-.5-.33-.1-.66-.2-.98-.31-.11-.03-.22-.07-.33-.1-.11-.03-.22-.07-.33-.1.24.08.25.08.02,0-2.42-.8-4.81-1.65-7.18-2.57-4.74-1.85-9.37-3.97-13.87-6.36-9.77-5.19-18.4-11.51-27.07-18.34-8.91-7.01-17.55-14.37-26.8-20.93-4.58-3.25-9.28-6.3-14.21-8.99s-9.96-4.98-15.21-6.84-10.62-3.24-16.15-3.94-10.83-.87-16.21-.25c-8.77,1.01-17.27,4.49-24.31,9.8-6.84,5.17-12.48,12.31-14.91,20.61-2.23,7.64-1.58,16,1.94,23.14.8,1.62,1.75,3.18,2.74,4.69s2.17,3.06,3.45,4.43c2.62,2.8,5.65,5.18,8.92,7.19,1.65,1.01,3.35,1.91,5.1,2.73s3.65,1.73,5.58,2.34c.29.09.72.26,1.21.42.51.17,1.03.33,1.55.48.93.27,1.86.53,2.8.74,2.07.45,4.17.73,6.28.93,1.95.18,3.9.24,5.86.19.42-.01.83-.04,1.25-.06.13,0,.43-.02-.18,0,.28-.02.57-.03.85-.05.53-.04,1.07-.08,1.6-.13.97-.1,1.94-.23,2.9-.39,4.77-.8,9.39-2.3,13.83-4.19,9.09-3.86,17.25-9.68,24.35-16.52s13.34-14.72,18.84-22.97c5.9-8.85,11.12-18.17,15.93-27.66,5.09-10.04,9.66-20.36,13.67-30.88s7.38-21.08,10.2-31.89c2.81-10.77,4.97-21.72,6.44-32.75.71-5.33,1.29-10.68,1.79-16.04.08-.82-1.04-.89-1.63-.81s-2.05.46-2.14,1.28h0Z"/>
    </g>
  </g>
</svg>