<?xml version="1.0" encoding="UTF-8"?>
<svg id="Capa_2" data-name="Capa 2" xmlns="http://www.w3.org/2000/svg" viewBox="0 0 345.8 206.73">
  <defs>
    <style>
      .cls-1 {
        fill: #2f2d2a;
      }

      .cls-2 {
        opacity: .1;
      }
    </style>
  </defs>
  <g id="Capa_1-2" data-name="Capa 1">
    <g class="cls-2">
      <path class="cls-1" d="M112.55,2.27c-1.67,11.32-3.72,22.59-6.15,33.77s-5.2,22.16-8.36,33.1c-3.15,10.93-6.67,21.76-10.54,32.47-1.95,5.38-3.99,10.73-6.11,16.04-1.05,2.63-2.12,5.24-3.22,7.85-.07.18-.15.36-.22.53-.27.64.28-.67.01-.03-.13.3-.25.59-.38.89-.28.65-.55,1.3-.83,1.95-.58,1.36-1.17,2.71-1.77,4.07-4.59,10.41-9.52,20.68-14.8,30.76-2.34,4.47-4.75,8.91-7.52,13.14-.7,1.06-1.41,2.12-2.16,3.15-.33.46-.66.91-1,1.36-.1.13-.21.27-.31.4.56-.77.2-.26.07-.1-.21.26-.42.53-.63.79-1.54,1.91-3.2,3.72-4.99,5.4-.89.84-1.79,1.66-2.73,2.44-.26.21-.52.42-.78.63-.38.3.19-.14.22-.17-.13.11-.27.2-.4.3s-.27.2-.4.3l-.3.23c-.42.32-.41.31.04-.03-.3.1-.63.44-.9.62-.93.63-1.89,1.22-2.88,1.76-.42.22-.84.43-1.26.64-.13.06-.26.12-.38.19l-.13.06c.65-.27.56-.24-.26.11-.25.12-.5.26-.75.38-.44.22-.89.42-1.34.62-.17.08-.53.19.17-.07-.13.05-.27.11-.4.16-.27.11-.53.21-.8.31-.49.18-1,.33-1.49.51l-.28.12c-.38.16-.37.16.02,0-.02-.02-.38.08-.42.09-.28.06-.56.13-.83.19-.51.11-1.02.2-1.54.28-.12.02-.23.04-.35.05-.27.04-.29-.09.08,0-.23-.05-.6.07-.85.1-1.06.11-2.12.17-3.18.16s-2.09-.06-3.13-.18c-.09-.01-.18-.02-.27-.03-.47-.05.41.06-.07,0-.34-.05-.68-.09-1.02-.15.47.08.01,0-.07-.03-.14-.03-.27-.06-.41-.08-.27-.05-.54-.11-.81-.16-.97-.22-1.93-.49-2.87-.83-.21-.08-.42-.15-.63-.24-.12-.05-.25-.1-.37-.15.41.17-.66-.27-.37-.16.04.02.23.12-.04,0-.12-.06-.24-.13-.36-.19-.24-.13-.48-.25-.71-.39-3.34-1.92-5.98-4.84-7.59-8.46-3.12-6.99-.55-15.01,3.74-20.9,4.76-6.52,12.04-11.59,20.03-13.08,5.01-.93,10.36-.6,15.34.36,5.33,1.03,10.49,2.83,15.46,4.99,10,4.35,19.31,10.1,29.02,15.04,9.33,4.74,18.91,8.99,28.68,12.74,9.81,3.77,19.82,7.03,29.96,9.8,10.08,2.75,20.31,4.99,30.61,6.72,10.36,1.74,20.82,2.94,31.29,3.64s20.97.89,31.45.56c10.48-.33,20.94-1.18,31.33-2.54s20.8-3.24,31.03-5.7c10.16-2.45,20.2-5.41,30.04-8.94,4.79-1.72,9.48-3.68,14.19-5.61.57-.23.98-.76.8-1.41-.15-.54-.83-1.04-1.41-.8-6.57,2.69-13.34,4.98-20.1,7.15s-13.61,4.15-20.52,5.87-13.86,3.22-20.86,4.49c-6.98,1.26-13.91,2.28-20.91,3.07-7.1.8-14.24,1.35-21.38,1.67s-14.18.39-21.27.23c-7.15-.16-14.29-.56-21.41-1.19-7.05-.63-14.06-1.54-21.06-2.6-7.04-1.07-14.04-2.43-20.98-4-6.94-1.57-13.83-3.37-20.65-5.41-6.81-2.04-13.56-4.32-20.21-6.84s-13.2-5.26-19.65-8.24c-6.55-3.03-12.95-6.36-19.33-9.74s-13.25-7-20.22-9.75-13.85-4.59-21.12-4.84c-3.19-.11-6.43.06-9.54.8-2.68.64-5.28,1.66-7.71,2.96-4.86,2.61-9.12,6.4-12.27,10.92C2.22,170.33.11,175.32,0,180.51c-.05,2.49.23,5.09,1.17,7.42,1.03,2.56,2.55,4.93,4.53,6.9,1,.99,2.12,1.88,3.3,2.66.28.19.57.37.86.53.05.03.43.22.23.1.24.14.45.32.7.46.59.33,1.19.63,1.8.91.71.32,1.43.61,2.16.87.3.11.61.21.91.3.15.04.31.1.47.12.3.03.04-.05-.03-.06.17.03.43.18.63.23,1.46.39,2.99.59,4.48.74,2.88.27,5.89.18,8.73-.42h-1.21c.99.2,2.02-.05,3-.22.7-.12,1.4-.27,2.1-.44s1.34-.32,1.97-.57c.25-.1.5-.21.75-.32.11-.05.43-.19-.01.01s-.17.06-.08.04c.22-.06.56-.23.82-.35.33-.14.65-.29.97-.44,3-1.42,5.74-3.36,8.29-5.47s4.72-4.51,6.75-7.05c2.19-2.75,4.21-5.63,6.06-8.61,3.66-5.91,6.81-12.14,9.93-18.35,3.38-6.72,6.61-13.52,9.69-20.38,3.15-7.02,6.14-14.11,8.98-21.26s5.4-14.05,7.86-21.15c2.46-7.11,4.77-14.27,6.92-21.48,2.15-7.21,4.14-14.47,5.97-21.76,1.82-7.27,3.48-14.57,4.98-21.91,1.51-7.37,2.85-14.77,4.03-22.2.29-1.81.56-3.62.83-5.43.13-.86.14-1.61-.31-2.39-.38-.64-1.11-1.26-1.85-1.43-.79-.18-1.69-.14-2.39.31-.63.41-1.31,1.08-1.43,1.85h0Z"/>
    </g>
  </g>
</svg>