<?xml version="1.0" encoding="UTF-8"?>
<svg id="Capa_2" data-name="Capa 2" xmlns="http://www.w3.org/2000/svg" viewBox="0 0 149.68 123.78">
  <defs>
    <style>
      .cls-1 {
        fill: #d5d1ca;
      }
    </style>
  </defs>
  <g id="Capa_1-2" data-name="Capa 1">
    <path class="cls-1" d="M96.42,59.03c-5.9,8.41-11,11.18-16.46,12.07-17.8,24.77-39.98,52.68-64.66,52.68-8.5,0-15.29-5.81-15.29-14.85,0-5.72,4.74-12.97,11.27-12.97v.18c-6.26,0-11.09,6.8-11.09,12.79,0,8.85,6.71,14.67,15.2,14.67,24.6,0,41.41-28.89,56.97-52.05h-2.77v-.18h2.95c3.04-4.65,6.08-8.94,9.13-12.88l2.68-3.76C97.75,37.56,126.91,0,143.82,0c6.53,0,8.23,7.42,1.88,11.81l-.09-.18c6.26-4.2,4.56-11.45-1.88-11.45-16.01,0-40.34,37.74-54.29,57.6-2.95,4.11-6.09,8.5-9.21,13.06,5.45-.98,10.29-3.75,16.1-11.99l.09.18Z"/>
  </g>
</svg>