<?xml version="1.0" encoding="UTF-8"?>
<svg id="Capa_2" data-name="Capa 2" xmlns="http://www.w3.org/2000/svg" viewBox="0 0 111.79 111.44">
  <defs>
    <style>
      .cls-1 {
        fill: #d5d1ca;
      }
    </style>
  </defs>
  <g id="Capa_1-2" data-name="Capa 1">
    <path class="cls-1" d="M90.96,40.87c-5.63,2.59-9.57,2.59-15.2,10.37-8.23,11.09-11.45,24.51-18.87,36.22,6.08,2.15,12.16,3.84,18.78,3.84,5.9,0,10.82-2.15,16.01-5.54l.09.09h.09l-.09.09c-5.27,3.4-10.02,5.54-16.09,5.54-6.71,0-12.79-1.7-18.87-3.85l-1.88,2.86c-11.36,15.47-27.28,20.93-36.31,20.93h-.27c-11.81,0-18.33-6.17-18.33-14.4,0-11.99,14.31-17.8,26.47-17.8,8.05,0,15.57,2.68,23.07,5.54,8.68-10.91,16.99-23.34,24.86-32.91-11.45,10.55-24.06,20.03-32.01,20.03-13.69,0-13.87-12.61-9.75-23.16,1.52-3.85,3.58-7.69,6.17-11.36-.63-1.43-.99-3.04-.99-4.74,0-10.64,12.61-22.45,21.83-22.45.8,0-.09.27-.09.27-9.12,0-21.55,11.72-21.55,22.18,0,1.7.27,3.22.89,4.65C53.21,16.72,81.83,0,103.03,0c5.9,0,8.76,2.59,8.76,6.71,0,18.6-38.01,39.17-55,39.17-4.83,0-9.03-.9-12.16-2.59-3.49,5.1-6.35,10.19-8.23,14.94-3.04,7.96-2.06,13.41,6.17,13.41s21.73-10.64,33.36-21.55c5.01-5.9,8.68-10.73,12.16-12.61,3.75-2.06,5.9,1.97,2.86,3.4ZM14.84,110.28c11.89,0,23.52-11.45,34.61-25.4-7.51-2.77-14.94-5.46-22.99-5.46C14.4,79.42.17,85.14.17,97.04c0,7.78,6.53,13.24,14.49,13.24h.18ZM44.72,43.11c3.13,1.7,7.24,2.59,12.07,2.59,16.91,0,54.83-20.57,54.83-38.99,0-4.12-3.04-6.44-8.14-6.44-17.71,0-44.09,21.55-58.76,42.84Z"/>
  </g>
</svg>