<?xml version="1.0" encoding="UTF-8"?>
<svg id="Capa_2" data-name="Capa 2" xmlns="http://www.w3.org/2000/svg" viewBox="0 0 147.12 92.57">
  <defs>
    <style>
      .cls-1 {
        fill: #d5d1ca;
      }
    </style>
  </defs>
  <g id="Capa_1-2" data-name="Capa 1">
    <path class="cls-1" d="M115.28,8.94c6.89-3.75,14.04-6.08,21.73-6.08,6.35,0,10.1,2.15,10.1,5.19,0,4.2-4.56,6.71-10.46,6.71s-12.35-2.68-21.02-5.46c-11.27,6.98-20.04,19.14-28.89,32.02h9.57v.18h-9.66c-16.63,24.33-33.36,51.07-66.99,51.07-12.16,0-19.67-8.76-19.67-20.12,0-10.46,5.99-20.3,14.22-25.76-.17-1.88-.17-3.94.09-6.08C16.45,22.09,42.84,0,70.47,0c16.54,0,32.29,4.83,44.81,8.94ZM69.04,41.32h10.64c11-12.97,22.63-25.22,35.33-32.29-8.85-2.77-19.86-5.63-33.72-5.63C49.1,3.4,17.08,23.16,14.75,42.57c-.18,1.25-.18,2.5-.09,3.75,4.02-2.5,8.5-4.02,13.15-4.02h.27l.09.18h-.36c-4.65,0-9.13,1.52-13.15,4.11.62,6.71,4.65,12.97,13.78,12.97,11.62,0,27.9-12.34,27.9-28.35,0-4.11-2.05-7.6-6.17-8.14l.45-.09c3.93.72,5.9,4.03,5.9,8.23,0,16.1-16.37,28.53-28.08,28.53-8.5,0-13.33-4.92-14.22-12.88C6.16,52.32.17,62.16.17,72.44c0,11.27,7.69,19.94,19.5,19.94,20.75,0,39.35-26.65,59.83-50.89h-10.47v-.18ZM137.02,3.04c-8.05,0-14.94,2.32-21.11,6.08,8.95,2.95,16.1,5.46,20.75,5.46,5.81,0,10.28-2.41,10.28-6.53,0-2.95-3.66-5.01-9.92-5.01Z"/>
  </g>
</svg>