<?xml version="1.0" encoding="UTF-8"?>
<svg id="Capa_2" data-name="Capa 2" xmlns="http://www.w3.org/2000/svg" viewBox="0 0 172.62 103.84">
  <defs>
    <style>
      .cls-1 {
        fill: #4c222a;
      }
    </style>
  </defs>
  <g id="Capa_1-2" data-name="Capa 1">
    <path class="cls-1" d="M89.35,48.21h24.77c13.78-18.33,31.48-39.08,50.62-39.08,2.86,0,9.48,2.06,7.51,7.33h-.18c1.88-5.01-4.47-7.06-7.24-7.15-28.17,0-48.56,62.7-75.04,75.57.45,0,.9.09,1.34.09,7.06,0,15.92-5.9,21.19-11.27,3.22-3.75,6.98-8.23,9.66-12.07l.09.18c-2.78,3.94-6.53,8.59-9.75,12.07-5.27,5.46-14.04,11.18-21.19,11.18-.45,0-.99-.09-1.43-.09-3.04,1.43-6.08,2.24-9.21,2.24-5.99,0-5.63-5.37-2.15-5.37,1.88,0,4.56,1.16,7.42,2.06,4.03-3.67,9.4-10.29,15.57-18.25,3.67-4.83,7.96-10.91,12.7-17.26h-24.77c-19.68,25.94-38.1,55.45-70.48,55.45h-.72c-11.18,0-18.07-8.14-18.07-18.87,0-16.28,14.58-31.39,29.24-31.39-.53-2.06-.8-4.29-.8-6.8C28.44,15.47,71.82,0,97.04,0c13.68,0,33.27,2.32,33.27,10.11,0,1.25-1.7,2.77-6.26,4.83-13.41,6.8-24.24,19.5-34.7,33.27ZM127.63,9.12c0-7.69-20.3-7.42-25.49-7.42C65.65,1.7,29.16,28.35,29.16,49.19c0,8.14,4.65,16.1,16.19,16.1,12.88,0,30.5-13.5,30.5-31.03,0-4.56-2.14-8.14-6.44-8.76l.18-.27c4.29.81,6.44,4.38,6.44,9.03,0,17.71-17.62,31.21-30.68,31.21-8.77,0-14.13-4.38-16.1-11.72h-.09C14.84,53.75.18,68.96.18,84.96c0,10.82,7.07,18.69,17.71,18.69h.9c19.77,0,38.9-29.34,61.89-55.27h-3.67v-.18h3.85c12.61-14.22,26.48-27.46,42.21-34.08,3.85-1.79,4.57-3.76,4.57-5.01ZM85.68,83.98c-2.77-.9-5.37-1.97-7.34-1.97-3.22,0-3.4,5.01,2.15,5.01,1.25,0,3.04-1.07,5.19-3.04Z"/>
  </g>
</svg>