<?xml version="1.0" encoding="UTF-8"?>
<svg id="Capa_2" data-name="Capa 2" xmlns="http://www.w3.org/2000/svg" viewBox="0 0 83.18 81.57">
  <defs>
    <style>
      .cls-1 {
        fill: #d5d1ca;
      }
    </style>
  </defs>
  <g id="Capa_1-2" data-name="Capa 1">
    <path class="cls-1" d="M.45,81.57h-.45c7.24-9.3,18.78-23.34,25.13-33.36,2.33-3.58,4.65-7.15,7.06-10.73-7.69,6.08-13.86,14.58-18.6,21.11l-.09-.18c4.83-6.71,11.09-15.56,19.23-21.73C46.15,17.08,60.73,0,77.28,0c.45,0,.8,0,1.16.09,2.86.36,4.74,2.15,4.74,5.46,0,10.02-22.01,18.25-40.16,25.67-5.82,7.78-11.72,16.37-17.35,24.95l.36.18c7.34-10.02,14.58-18.07,18.33-18.07,1.97,0,3.49,2.15,3.49,5.19s-1.07,6.08-2.59,8.76c-1.61,2.77-3.85,5.46-6.8,8.68-2.06,2.15-10.82,10.02-11.27,15.11-.09,1.52.8,2.15,1.88,2.15,3.49,0,12.52-11.9,17.89-19.77l.09.18c-5.82,8.41-14.4,19.77-18.07,19.77-3.4,0-4.56-3.93-3.94-8.41.9-5.28,5.1-10.55,9.66-15.2,5.45-5.54,11.71-10.47,11.71-13.77,0-1.34-.62-2.42-2.06-2.42-3.04,0-8.85,5.9-14.49,13.15l-4.83,6.26-9.03,13.5c-1.52,2.41-2.51,4.38-3.13,5.46h-.53c-2.06-1.34-7.25-2.32-11.89,4.65ZM78.35.54c-9.12,0-21.91,13.06-34.97,30.32,17.88-7.6,39.62-15.56,39.62-25.31,0-3.04-1.52-4.74-4.29-5.01h-.36Z"/>
  </g>
</svg>