<?xml version="1.0" encoding="UTF-8"?>
<svg id="Capa_2" data-name="Capa 2" xmlns="http://www.w3.org/2000/svg" viewBox="0 0 462.82 87.18">
  <defs>
    <style>
      .cls-1 {
        fill: #d7d2cb;
      }
    </style>
  </defs>
  <g id="Capa_1-2" data-name="Capa 1">
    <path class="cls-1" d="M130.9,40.64c6.67-.99,9.89-4.32,9.89-8.77,0-6.26-5.09-9.36-13.87-9.36h-14.8v.35c1.46.59,2.16,2.11,2.16,4.39v33.11c0,2.29-.7,3.81-2.16,4.39v.35h14.04c9.77,0,16.62-4.09,16.62-12.75,0-6.15-4.39-10.53-11.88-11.71ZM119.02,23.27h6.61c5.97,0,10.07,2.16,10.07,8.6,0,5.62-3.16,8.36-8.43,8.36h-8.25v-16.96ZM125.87,64.34h-6.85v-23.29h8.25c6.03,0,10.48,3.92,10.42,11.07-.06,9.47-5.33,12.22-11.82,12.22ZM176.85,57.5c-1.4,3.45-4.33,6.84-10.06,6.84h-10.71V26.78c0-1.7.7-3.33,2.17-3.92v-.35h-9.07v.35c1.46.59,2.16,2.22,2.16,3.92v34.05c0,1.7-.7,3.34-2.16,3.92v.35h26.5l1.41-7.6h-.24ZM212.38,60.13l-15.56-37.62h-.76l-15.09,37.27c-.77,1.87-1.06,3.68-3.75,4.86v.46h7.61v-.46c-2.17-1.12-3.4-2.7-2.34-5.33l2.3-5.78,1.85-4.65,8.13-20.4,7.82,19.49.24.61,1.07,2.66h-.01l1.01,2.53,2.51,6.25c1.11,2.63-.12,3.74-1.81,4.73v.35h10.06v-.35c-2.16-1.34-2.57-2.81-3.28-4.62ZM237.62,62.12c-9.42,0-15.39-7.9-15.39-19.37s5.74-19.71,14.05-19.71c5.26,0,8.66,4.44,10.88,9.3h.23l2.75-5.38c-2.51-2.05-6.73-4.8-13.16-4.8-11.94,0-20.01,8.95-20.01,21.76s7.9,21.59,18.6,21.59c6.85,0,11.47-3.57,14.28-9.18l-.29-.35c-2.64,4.09-7.2,6.14-11.94,6.14ZM285.39,58.49l-13.52-20.01,11.12-12.29c1.17-1.28,2.75-2.33,5.2-3.39v-.29h-7.13v.29c1.28.82,1.87,1.99.58,3.51l-19.19,21.07v-20.6c0-1.7.7-3.33,2.16-3.92v-.35h-9.06v.35c1.46.59,2.16,2.22,2.16,3.92v34.05c0,1.7-.7,3.34-2.16,3.92v.35h9.06v-.35c-1.46-.58-2.16-2.22-2.16-3.92v-11.93l6.61-7.32,12,17.85c1.69,2.34,2.69,4.5,1.11,5.32v.35h8.89v-.35c-2.52-1.11-4.33-4.27-5.67-6.26ZM298.16,31.05c0-4.74,3.69-8.07,9.36-8.07s8.78,4.21,10.83,8.54h.29l1.35-5.62c-3.16-2.22-7.38-3.74-12.23-3.74-8.02,0-13.52,4.09-13.52,10.53,0,13.22,22.06,11.41,22.06,23.75,0,5.04-3.63,8.25-9.89,8.25-5.38,0-9.6-3.21-12.29-8.48h-.29l-1.34,5.56c3.45,2.51,8.25,3.74,13.92,3.74,8.6,0,13.98-4.21,13.98-11.11,0-14.22-22.23-12.41-22.23-23.35ZM346.86,62.12c-9.42,0-15.39-7.9-15.39-19.37s5.74-19.71,14.04-19.71c5.27,0,8.66,4.44,10.89,9.3h.23l2.75-5.38c-2.52-2.05-6.73-4.8-13.17-4.8-11.93,0-20.01,8.95-20.01,21.76s7.9,21.59,18.61,21.59c6.85,0,11.47-3.57,14.28-9.18l-.3-.35c-2.63,4.09-7.19,6.14-11.93,6.14ZM395.21,60.13l-15.57-37.62h-.76l-15.09,37.27c-.76,1.87-1.06,3.68-3.75,4.86v.46h7.61v-.46c-2.17-1.12-3.4-2.7-2.34-5.33l2.5-6.28.36-.91.35-.88.37-.94,8.71-21.82,8.74,21.82.38.94h-.01l.36.93.47,1.18,2.69,6.67c1.11,2.63-.11,3.74-1.81,4.73v.35h10.06v-.35c-2.16-1.34-2.57-2.81-3.27-4.62ZM429.34,57.5c-1.41,3.45-4.33,6.84-10.07,6.84h-10.71V26.78c0-1.7.71-3.33,2.17-3.92v-.35h-9.07v.35c1.46.59,2.17,2.22,2.17,3.92v34.05c0,1.7-.71,3.34-2.17,3.92v.35h26.51l1.4-7.6h-.23ZM462.59,57.5c-1.41,3.1-4.33,6.49-10.36,6.49h-11.35v-21.64h9.83c2.34,0,3.45,2.33,4.04,4.79h.35v-10.53h-.35c-.59,2.63-1.7,4.8-4.04,4.8h-9.83v-18.14h9.42c5.73,0,8.66,3.39,10.07,6.85h.23l-1.41-7.61h-25.21v.35c1.46.59,2.16,2.22,2.16,3.92v34.05c0,1.7-.7,3.34-2.16,3.92v.35h27.44l1.4-7.6h-.23ZM81.92,64.26c0-12.58-8.11-19.77-21.89-22.16,12.27-2.03,18.07-11.61,18.07-20.71C78.09,8.77,69.02.27,53.34,0c-.25,0-.51,0-.76,0H0v.72c2.69,1.2,3.98,4.31,3.98,8.98v67.78c0,4.67-1.29,7.78-3.98,8.98v.72h50.27c1.04,0,2.07-.03,3.08-.09,16.27-1.43,29.27-6.5,28.57-22.84ZM12.7,1.56h37.51c1.08,0,2.12.04,3.13.13,9.26.82,15.38,5.59,15.38,17.47.03,11.94-5.88,22.51-15.38,23.43-1.28.12-2.62.1-4.02-.09,5.83-2.45,8.61-7.96,8.61-13.24,0-8.83-6.33-14.74-17.24-14.74h-22.92v.49c1.82.83,2.69,2.97,2.69,6.19v21.35h-.21s-7.55.02-7.55.02V1.56ZM43.41,42.51c-6.42.02-15.55.02-17.05.02V15.6h12.74c7.42,0,12.51,3.05,12.51,12.13,0,6.93-3.06,13.29-8.2,14.78ZM26.36,44.3c6.48.02,13.3.04,19.03.05,5.24.8,8.75,3.55,8.69,11.1-.07,12.55-6.62,16.19-14.69,16.19h-13.03v-27.34ZM72.39,60.6c-.1,17.91-8.37,24.03-19.04,24.87-1.17.13-2.37.19-3.6.19H12.7v-41.4c2.33,0,4.96.01,7.76.02v22.09c0,3.02-.87,5.03-2.69,5.81v.46h21.98c12.15,0,20.77-3.37,20.77-14.83,0-6.96-4.01-11.36-11-13.46,1.29-.04,2.57-.05,3.83-.03,10.46.17,19.35,1.51,19.04,16.27Z"/>
  </g>
</svg>