<?xml version="1.0" encoding="UTF-8"?>
<svg id="Capa_2" data-name="Capa 2" xmlns="http://www.w3.org/2000/svg" viewBox="0 0 44.88 68.51">
  <defs>
    <style>
      .cls-1 {
        fill: #d5d1ca;
      }
    </style>
  </defs>
  <g id="Capa_1-2" data-name="Capa 1">
    <path class="cls-1" d="M20.57,48.74c-4.12,5.81-12.79,19.77-17.89,19.77-1.88,0-2.68-1.79-2.68-4.02,0-7.25,4.38-14.67,8.94-21.38l9.3-13.33c2.95.81,7.34,2.24,11.99-4.65h.18L4.65,58.58c-1.34,1.7-3.93,4.83-3.93,7.15,0,1.61.71,2.6,2.14,2.6,4.56,0,13.06-12.97,17.62-19.77l.09.18ZM42.3,0c2.78,0,3.4,2.95,1.43,6.53-2.06,3.58-5.81,6.44-8.67,6.44s-3.4-2.86-1.26-6.44c1.97-3.58,5.82-6.53,8.5-6.53Z"/>
  </g>
</svg>