<?xml version="1.0" encoding="UTF-8"?>
<svg id="Capa_2" data-name="Capa 2" xmlns="http://www.w3.org/2000/svg" viewBox="0 0 165.64 127.54">
  <defs>
    <style>
      .cls-1 {
        fill: #d5d1ca;
      }
    </style>
  </defs>
  <g id="Capa_1-2" data-name="Capa 1">
    <path class="cls-1" d="M130.49,5.54c5.99-3.31,12.52-5.54,19.23-5.54,9.57,0,15.92,2.68,15.92,7.78,0,3.75-4.83,5.46-9.03,5.46-8.23,0-15.92-4.92-26.2-7.42-4.12,2.24-7.96,5.1-11.18,7.96-3.67,3.31-7.24,7.06-10.64,11.36,1.61,1.61,2.33,4.11,2.33,6.97-.27,15.83-14.67,27.99-26.65,30.05l-5.19,8.32h.35c17.98,0,36.67,6.71,36.67,23.97,0,18.78-17.44,33.09-37.12,33.09-12.7,0-16.81-5.99-16.81-11.54s1.96-10.11,5.81-13.5l.18.18c-3.67,2.95-5.82,7.6-5.82,12.97s3.58,11.72,16.64,11.72c19.41,0,36.94-14.31,36.94-32.91,0-17.17-18.6-23.79-36.49-23.79h-.45c-17.8,29.15-37.3,56.61-67.35,56.61-8.41,0-11.63-4.47-11.63-12.07,0-16.01,30.32-42.57,74.23-44.54l6.08-8.23c-10.46-.27-16.36-8.05-16.19-19.14.45-24.59,31.58-42.93,61.98-38.64,1.52.27,2.95.54,4.38.89ZM74.05,70.84C30.32,72.8.27,99.19.27,115.2c0,7.51,3.04,11.9,11.36,11.9,17.71,0,41.14-27.81,62.43-56.26ZM67.08,47.22c-.09,6.71,2.95,14.85,13.24,15.12,10.37-14.04,20.03-27.55,28-37.3-1.07-.9-2.42-1.61-4.11-1.88l.45-.09c1.52.27,2.77.98,3.75,1.88,3.67-4.56,7.06-8.23,10.02-10.82,3.58-3.04,7.51-5.99,11.72-8.41l-3.58-.71C93.73-.27,67.43,28.26,67.08,47.22ZM84.25,62.07c11.89-2.06,26.21-14.31,26.47-29.96,0-2.77-.62-5.19-2.24-6.89-8.5,10.55-16.28,23.61-24.23,36.85ZM130.67,5.63c10.37,2.59,17.98,7.42,25.93,7.42,4.12,0,8.85-1.61,8.85-5.28,0-5.01-6.26-7.6-15.74-7.6-6.62,0-13.15,2.24-19.05,5.46Z"/>
  </g>
</svg>