<?xml version="1.0" encoding="UTF-8"?>
<svg id="Capa_2" data-name="Capa 2" xmlns="http://www.w3.org/2000/svg" viewBox="0 0 98.36 108.13">
  <defs>
    <style>
      .cls-1 {
        fill: #d5d1ca;
      }
    </style>
  </defs>
  <g id="Capa_1-2" data-name="Capa 1">
    <path class="cls-1" d="M85.32,21.56c-11.72,3.49-23.97,21.37-27.9,27.19l-.09-.18c3.67-5.37,17.53-25.94,29.87-27.64,1.79-.36,3.4-.18,4.83.09v.54c-8.31-3.13-18.69,10.37-27.1,24.24-4.92,8.41-9.84,16.9-14.58,24.69,5.28-2.95,9.75-6.26,13.06-10.02,2.95-3.4,5.9-7.6,8.85-11.9l.09.18c-2.86,4.38-5.63,8.32-8.85,11.9-3.58,4.03-8.23,7.42-13.5,10.47-6.8,11.27-13.24,20.93-18.33,25.85-8.68,8.32-20.57,11.8-27.01,11.09-2.95-.36-4.65-2.59-4.65-5.9,0-11.09,22.63-17.98,41.95-27.19,7.34-9.48,14.76-20.03,21.2-29.78,10.55-15.47,17.26-21.56,22.18-23.61ZM41.41,75.66C23.52,84.16.18,91.23.18,102.14c0,3.04,1.7,5.01,4.47,5.28,8.68.54,22.72-13.86,36.76-31.75ZM95.79,0c2.77,0,3.4,2.95,1.43,6.53-2.05,3.58-5.9,6.44-8.67,6.44s-3.4-2.86-1.25-6.44c1.88-3.58,5.72-6.53,8.5-6.53Z"/>
  </g>
</svg>