<?xml version="1.0" standalone="no"?>
<!DOCTYPE svg PUBLIC "-//W3C//DTD SVG 1.1//EN" "http://www.w3.org/Graphics/SVG/1.1/DTD/svg11.dtd" >
<svg xmlns="http://www.w3.org/2000/svg" xmlns:xlink="http://www.w3.org/1999/xlink" version="1.1">
<metadata>
Created by FontForge 20200511 at Thu Aug 20 11:03:39 2020
 By convertio
Copyright \(c\) 2020 by Eli Hernandez. All rights reserved.
</metadata>
<defs>
<font id="Juana-Light" horiz-adv-x="0" >
  <font-face 
    font-family="Juana Light"
    font-weight="300"
    font-stretch="normal"
    units-per-em="1000"
    panose-1="0 0 4 0 0 0 0 0 0 0"
    ascent="800"
    descent="-200"
    x-height="515"
    cap-height="728"
    bbox="-745 -244 2207 1006"
    underline-thickness="50"
    underline-position="-100"
    stemh="25"
    stemv="80"
    unicode-range="U+0020-FB02"
  />
<missing-glyph horiz-adv-x="606" 
d="M88 0v730h430v-730h-430zM453 695h-300l150 -287zM128 73l153 292l-153 292v-584zM478 657l-152 -292l152 -292v584zM453 35l-150 287l-150 -287h300z" />
    <glyph glyph-name="f_f" unicode="ff" horiz-adv-x="567" 
d="M496 771c69 0 109 -37 130 -52l-37 -78h-5c-7 34 -12 117 -80 117c-63 0 -79 -67 -79 -136v-107h144v-12h-144v-430c0 -29 11 -57 36 -67v-6h-146v6c25 10 35 37 35 67v430h-190v-430c0 -29 11 -57 36 -67v-6h-146v6c25 10 35 37 35 67v430h-61v12h61v33
c0 111 60 184 170 184c53 0 89 -17 115 -35c24 44 66 74 126 74zM160 566v-51h190v85c-1 52 -25 119 -91 119c-75 0 -99 -62 -99 -153z" />
    <glyph glyph-name="f_f_i" unicode="ffi" horiz-adv-x="766" 
d="M689 515v-442c0 -29 11 -57 36 -67v-6h-146v6c25 10 35 38 35 67v430h-189v-430c0 -29 11 -57 36 -67v-6h-146v6c25 10 35 37 35 67v430h-190v-430c0 -29 11 -57 36 -67v-6h-146v6c25 10 35 37 35 67v430h-61v12h61v33c0 111 60 184 171 184c55 0 91 -18 119 -46
c29 53 82 85 154 85c75 0 132 -37 156 -55l-39 -90h-5c-12 61 -46 132 -112 132c-77 0 -104 -72 -104 -165v-78h264zM160 566v-51h190v61v1v0c0 76 -25 142 -90 142c-76 0 -100 -62 -100 -153z" />
    <glyph glyph-name="fi" unicode="fi" horiz-adv-x="517" 
d="M441 515v-442c0 -29 11 -57 36 -67v-6h-146v6c25 10 35 38 35 67v430h-206v-430c0 -29 11 -57 36 -67v-6h-146v6c25 10 35 37 35 67v430h-61v12h61v61c0 117 66 195 188 195c82 0 139 -37 163 -55l-39 -90h-5c-12 61 -45 132 -120 132c-85 0 -112 -72 -112 -165v-78h281z
" />
    <glyph glyph-name="fl" unicode="fl" horiz-adv-x="526" 
d="M440 768h5v-695c0 -29 11 -57 36 -67v-6h-146v6c25 10 35 38 35 67v550c-8 91 -37 135 -102 135c-79 0 -108 -60 -108 -153v-90h144v-12h-144v-430c0 -29 11 -57 36 -67v-6h-146v6c25 10 35 37 35 67v430h-61v12h61v71c0 114 65 185 179 185c50 0 90 -11 119 -28
c21 9 40 17 57 25z" />
    <glyph glyph-name=".notdef" horiz-adv-x="606" 
d="M88 0v730h430v-730h-430zM453 695h-300l150 -287zM128 73l153 292l-153 292v-584zM478 657l-152 -292l152 -292v584zM453 35l-150 287l-150 -287h300z" />
    <glyph glyph-name="space" unicode=" " horiz-adv-x="248" 
 />
    <glyph glyph-name="A" unicode="A" horiz-adv-x="638" 
d="M324 728l266 -643c12 -31 19 -56 56 -79v-6h-172v6c29 17 50 36 31 81l-54 134l-323 1l-49 -123c-18 -45 3 -72 40 -91v-8h-130v8c46 20 51 51 64 83l258 637h13zM289 626l-155 -389h311z" />
    <glyph glyph-name="Aacute" unicode="&#xc1;" horiz-adv-x="638" 
d="M503 960v-3l-210 -166h-5l107 169h108zM324 728l266 -643c12 -31 19 -56 56 -79v-6h-172v6c29 17 50 36 31 81l-54 134l-323 1l-49 -123c-18 -45 3 -72 40 -91v-8h-130v8c46 20 51 51 64 83l258 637h13zM289 626l-155 -389h311z" />
    <glyph glyph-name="Abreve" unicode="&#x102;" horiz-adv-x="638" 
d="M319 777c-78 0 -128 60 -132 181h9c13 -97 74 -125 123 -125c67 0 116 41 124 125h9c-2 -121 -54 -181 -133 -181zM324 728l266 -643c12 -31 19 -56 56 -79v-6h-172v6c29 17 50 36 31 81l-54 134l-323 1l-49 -123c-18 -45 3 -72 40 -91v-8h-130v8c46 20 51 51 64 83
l258 637h13zM289 626l-155 -389h311z" />
    <glyph glyph-name="Acircumflex" unicode="&#xc2;" horiz-adv-x="638" 
d="M493 791l-162 97l-166 -97h-5v1l162 164h20l156 -164v-1h-5zM324 728l266 -643c12 -31 19 -56 56 -79v-6h-172v6c29 17 50 36 31 81l-54 134l-323 1l-49 -123c-18 -45 3 -72 40 -91v-8h-130v8c46 20 51 51 64 83l258 637h13zM289 626l-155 -389h311z" />
    <glyph glyph-name="Adieresis" unicode="&#xc4;" horiz-adv-x="638" 
d="M217 832c-29 0 -49 21 -49 49c0 27 20 48 49 48c26 0 48 -21 48 -48c0 -28 -22 -49 -48 -49zM421 832c-28 0 -49 21 -49 49c0 27 21 48 49 48c27 0 48 -21 48 -48c0 -28 -21 -49 -48 -49zM324 728l266 -643c12 -31 19 -56 56 -79v-6h-172v6c29 17 50 36 31 81l-54 134
l-323 1l-49 -123c-18 -45 3 -72 40 -91v-8h-130v8c46 20 51 51 64 83l258 637h13zM289 626l-155 -389h311z" />
    <glyph glyph-name="Agrave" unicode="&#xc0;" horiz-adv-x="638" 
d="M275 960l106 -169h-4l-211 166v3h109zM324 728l266 -643c12 -31 19 -56 56 -79v-6h-172v6c29 17 50 36 31 81l-54 134l-323 1l-49 -123c-18 -45 3 -72 40 -91v-8h-130v8c46 20 51 51 64 83l258 637h13zM289 626l-155 -389h311z" />
    <glyph glyph-name="Amacron" unicode="&#x100;" horiz-adv-x="638" 
d="M173 868h291v-17h-291v17zM324 728l266 -643c12 -31 19 -56 56 -79v-6h-172v6c29 17 50 36 31 81l-54 134l-323 1l-49 -123c-18 -45 3 -72 40 -91v-8h-130v8c46 20 51 51 64 83l258 637h13zM289 626l-155 -389h311z" />
    <glyph glyph-name="Aogonek" unicode="&#x104;" horiz-adv-x="638" 
d="M646 0h-16c-50 -34 -69 -66 -69 -104c0 -44 30 -66 80 -62l1 -4c-19 -12 -41 -20 -65 -20c-45 0 -74 27 -74 68c0 47 40 85 117 122h-146v6c29 17 50 36 31 81l-54 134l-323 1l-49 -123c-18 -45 3 -72 40 -91v-8h-130v8c46 20 51 51 64 83l258 637h13l266 -643
c12 -31 19 -56 56 -79v-6zM289 626l-155 -389h311z" />
    <glyph glyph-name="Aring" unicode="&#xc5;" horiz-adv-x="638" 
d="M322 784c-43 0 -79 32 -79 80s36 80 79 80c42 0 78 -32 78 -80s-36 -80 -78 -80zM323 920c-35 0 -56 -23 -56 -55c0 -33 21 -57 56 -57c31 0 52 24 52 57c0 32 -21 55 -52 55zM324 728l266 -643c12 -31 19 -56 56 -79v-6h-172v6c29 17 50 36 31 81l-54 134l-323 1
l-49 -123c-18 -45 3 -72 40 -91v-8h-130v8c46 20 51 51 64 83l258 637h13zM289 626l-155 -389h311z" />
    <glyph glyph-name="Atilde" unicode="&#xc3;" horiz-adv-x="638" 
d="M248 862c-48 0 -71 -40 -74 -74h-6c0 45 20 120 100 120c72 0 118 -67 166 -67c38 0 67 33 67 65h6c1 -64 -27 -111 -85 -111c-62 0 -117 67 -174 67zM324 728l266 -643c12 -31 19 -56 56 -79v-6h-172v6c29 17 50 36 31 81l-54 134l-323 1l-49 -123c-18 -45 3 -72 40 -91
v-8h-130v8c46 20 51 51 64 83l258 637h13zM289 626l-155 -389h311z" />
    <glyph glyph-name="AE" unicode="&#xc6;" horiz-adv-x="880" 
d="M835 130h4l-24 -130h-415v220h-246l-66 -124c-22 -42 -14 -69 23 -88v-8h-127v8c45 19 63 52 80 83l336 637h413l25 -130h-5c-24 59 -74 117 -176 117h-177v-310h180c37 0 67 37 77 82h6v-179h-6c-10 42 -38 81 -77 81h-180v-370h178c103 0 153 58 177 111zM400 686
l-238 -450h238v450z" />
    <glyph glyph-name="AEacute" unicode="&#x1fc;" horiz-adv-x="880" 
d="M616 960v-3l-211 -166h-5l107 169h109zM835 130h4l-24 -130h-415v220h-246l-66 -124c-22 -42 -14 -69 23 -88v-8h-127v8c45 19 63 52 80 83l336 637h413l25 -130h-5c-24 59 -74 117 -176 117h-177v-310h180c37 0 67 37 77 82h6v-179h-6c-10 42 -38 81 -77 81h-180v-370
h178c103 0 153 58 177 111zM400 686l-238 -450h238v450z" />
    <glyph glyph-name="B" unicode="B" horiz-adv-x="633" 
d="M383 418c128 -20 203 -95 203 -200c0 -148 -117 -218 -284 -218h-240v6c25 10 37 36 37 75v566c0 39 -12 65 -37 75v6h253c150 0 237 -53 237 -160c0 -76 -55 -133 -169 -150zM293 715h-113v-290h141c90 0 144 47 144 143c0 110 -70 147 -172 147zM180 411v-398h117
c111 0 201 47 202 209c1 122 -75 189 -178 189h-141z" />
    <glyph glyph-name="C" unicode="C" horiz-adv-x="647" 
d="M368 -7c-183 0 -318 149 -318 369c0 219 138 372 342 372c110 0 182 -47 225 -82l-47 -92h-4c-38 83 -96 159 -186 159c-142 0 -240 -144 -240 -337c0 -196 102 -331 263 -331c81 0 159 35 204 105l5 -6c-48 -96 -127 -157 -244 -157z" />
    <glyph glyph-name="Cacute" unicode="&#x106;" horiz-adv-x="647" 
d="M368 791h-5l107 169h109v-3zM368 -7c-183 0 -318 149 -318 369c0 219 138 372 342 372c110 0 182 -47 225 -82l-47 -92h-4c-38 83 -96 159 -186 159c-142 0 -240 -144 -240 -337c0 -196 102 -331 263 -331c81 0 159 35 204 105l5 -6c-48 -96 -127 -157 -244 -157z" />
    <glyph glyph-name="Ccaron" unicode="&#x10c;" horiz-adv-x="647" 
d="M561 955l-157 -164h-20l-162 164v1h5l166 -98l163 98h5v-1zM403 51c81 0 159 35 204 105l5 -6c-48 -96 -127 -157 -244 -157c-183 0 -318 149 -318 369c0 219 138 372 342 372c110 0 182 -47 225 -82l-47 -92h-4c-38 83 -96 159 -186 159c-142 0 -240 -144 -240 -337
c0 -196 102 -331 263 -331z" />
    <glyph glyph-name="Ccedilla" unicode="&#xc7;" horiz-adv-x="647" 
d="M403 51c81 0 159 35 204 105l5 -6c-48 -96 -127 -157 -244 -157h-9l-12 -43c7 3 16 5 29 5c33 0 70 -22 70 -69c0 -52 -42 -77 -82 -77c-42 0 -65 20 -78 42l4 3c12 -13 29 -20 53 -20c25 0 47 15 47 51c0 29 -16 44 -36 44c-11 0 -18 -2 -25 -5l-3 1l20 69
c-172 11 -296 157 -296 368c0 219 138 372 342 372c110 0 182 -47 225 -82l-47 -92h-4c-38 83 -96 159 -186 159c-142 0 -240 -144 -240 -337c0 -196 102 -331 263 -331z" />
    <glyph glyph-name="Ccircumflex" unicode="&#x108;" horiz-adv-x="647" 
d="M569 791l-163 97l-166 -97h-5v1l162 164h20l157 -164v-1h-5zM403 51c81 0 159 35 204 105l5 -6c-48 -96 -127 -157 -244 -157c-183 0 -318 149 -318 369c0 219 138 372 342 372c110 0 182 -47 225 -82l-47 -92h-4c-38 83 -96 159 -186 159c-142 0 -240 -144 -240 -337
c0 -196 102 -331 263 -331z" />
    <glyph glyph-name="Cdotaccent" unicode="&#x10a;" horiz-adv-x="647" 
d="M393 824c-29 0 -50 21 -50 49c0 26 21 48 50 48c26 0 48 -22 48 -48c0 -28 -22 -49 -48 -49zM368 -7c-183 0 -318 149 -318 369c0 219 138 372 342 372c110 0 182 -47 225 -82l-47 -92h-4c-38 83 -96 159 -186 159c-142 0 -240 -144 -240 -337c0 -196 102 -331 263 -331
c81 0 159 35 204 105l5 -6c-48 -96 -127 -157 -244 -157z" />
    <glyph glyph-name="D" unicode="D" horiz-adv-x="728" 
d="M62 728h256c198 0 362 -148 362 -367c0 -208 -167 -361 -365 -361h-253v6c25 10 37 38 37 67v582c0 29 -12 57 -37 67v6zM180 714v-700h134c164 0 276 129 276 348c0 227 -109 352 -273 352h-137z" />
    <glyph glyph-name="Eth" unicode="&#xd0;" horiz-adv-x="734" 
d="M68 728h256c198 0 362 -148 362 -367c0 -208 -167 -361 -365 -361h-253v6c25 10 37 38 37 67v291h-91v13h91v278c0 29 -12 57 -37 67v6zM185 14h135c164 0 276 129 276 348c0 227 -110 352 -274 352h-137v-337h125v-13h-125v-350z" />
    <glyph glyph-name="Dcaron" unicode="&#x10e;" horiz-adv-x="728" 
d="M535 954l-156 -164h-20l-162 164v1h5l167 -97l161 97h5v-1zM62 728h256c198 0 362 -148 362 -367c0 -208 -167 -361 -365 -361h-253v6c25 10 37 38 37 67v582c0 29 -12 57 -37 67v6zM180 14h134c164 0 276 129 276 348c0 227 -109 352 -273 352h-137v-700z" />
    <glyph glyph-name="Dcroat" unicode="&#x110;" horiz-adv-x="734" 
d="M68 728h256c198 0 362 -148 362 -367c0 -208 -167 -361 -365 -361h-253v6c25 10 37 38 37 67v291h-91v13h91v278c0 29 -12 57 -37 67v6zM185 14h135c164 0 276 129 276 348c0 227 -110 352 -274 352h-137v-337h125v-13h-125v-350z" />
    <glyph glyph-name="E" unicode="E" horiz-adv-x="580" 
d="M551 130h4l-24 -130h-469v6c25 10 37 38 37 67v582c0 29 -12 57 -37 67v6h431l24 -130h-4c-24 59 -74 117 -172 117h-161v-310h168c40 0 59 37 69 82h6v-180h-6c-10 42 -29 82 -69 82h-168v-370h194c103 0 153 58 177 111z" />
    <glyph glyph-name="Eacute" unicode="&#xc9;" horiz-adv-x="580" 
d="M480 960v-3l-210 -166h-5l107 169h108zM551 130h4l-24 -130h-469v6c25 10 37 38 37 67v582c0 29 -12 57 -37 67v6h431l24 -130h-4c-24 59 -74 117 -172 117h-161v-310h168c40 0 59 37 69 82h6v-180h-6c-10 42 -29 82 -69 82h-168v-370h194c103 0 153 58 177 111z" />
    <glyph glyph-name="Ebreve" unicode="&#x114;" horiz-adv-x="580" 
d="M303 777c-78 0 -129 60 -133 181h10c13 -97 73 -125 123 -125c66 0 116 41 123 125h10c-3 -121 -54 -181 -133 -181zM551 130h4l-24 -130h-469v6c25 10 37 38 37 67v582c0 29 -12 57 -37 67v6h431l24 -130h-4c-24 59 -74 117 -172 117h-161v-310h168c40 0 59 37 69 82h6
v-180h-6c-10 42 -29 82 -69 82h-168v-370h194c103 0 153 58 177 111z" />
    <glyph glyph-name="Ecaron" unicode="&#x11a;" horiz-adv-x="580" 
d="M462 955l-156 -164h-20l-162 164v1h5l166 -98l162 98h5v-1zM551 130h4l-24 -130h-469v6c25 10 37 38 37 67v582c0 29 -12 57 -37 67v6h431l24 -130h-4c-24 59 -74 117 -172 117h-161v-310h168c40 0 59 37 69 82h6v-180h-6c-10 42 -29 82 -69 82h-168v-370h194
c103 0 153 58 177 111z" />
    <glyph glyph-name="Ecircumflex" unicode="&#xca;" horiz-adv-x="580" 
d="M470 791l-162 97l-166 -97h-5v1l162 164h20l156 -164v-1h-5zM551 130h4l-24 -130h-469v6c25 10 37 38 37 67v582c0 29 -12 57 -37 67v6h431l24 -130h-4c-24 59 -74 117 -172 117h-161v-310h168c40 0 59 37 69 82h6v-180h-6c-10 42 -29 82 -69 82h-168v-370h194
c103 0 153 58 177 111z" />
    <glyph glyph-name="Edieresis" unicode="&#xcb;" horiz-adv-x="580" 
d="M194 832c-29 0 -49 21 -49 49c0 27 20 48 49 48c26 0 48 -21 48 -48c0 -28 -22 -49 -48 -49zM398 832c-28 0 -49 21 -49 49c0 27 21 48 49 48c27 0 49 -21 49 -48c0 -28 -22 -49 -49 -49zM551 130h4l-24 -130h-469v6c25 10 37 38 37 67v582c0 29 -12 57 -37 67v6h431
l24 -130h-4c-24 59 -74 117 -172 117h-161v-310h168c40 0 59 37 69 82h6v-180h-6c-10 42 -29 82 -69 82h-168v-370h194c103 0 153 58 177 111z" />
    <glyph glyph-name="Edotaccent" unicode="&#x116;" horiz-adv-x="580" 
d="M297 824c-29 0 -50 21 -50 49c0 26 21 48 50 48c26 0 48 -22 48 -48c0 -28 -22 -49 -48 -49zM551 130h4l-24 -130h-469v6c25 10 37 38 37 67v582c0 29 -12 57 -37 67v6h431l24 -130h-4c-24 59 -74 117 -172 117h-161v-310h168c40 0 59 37 69 82h6v-180h-6
c-10 42 -29 82 -69 82h-168v-370h194c103 0 153 58 177 111z" />
    <glyph glyph-name="Egrave" unicode="&#xc8;" horiz-adv-x="580" 
d="M252 960l107 -169h-5l-211 166v3h109zM551 130h4l-24 -130h-469v6c25 10 37 38 37 67v582c0 29 -12 57 -37 67v6h431l24 -130h-4c-24 59 -74 117 -172 117h-161v-310h168c40 0 59 37 69 82h6v-180h-6c-10 42 -29 82 -69 82h-168v-370h194c103 0 153 58 177 111z" />
    <glyph glyph-name="Emacron" unicode="&#x112;" horiz-adv-x="580" 
d="M150 868h292v-17h-292v17zM551 130h4l-24 -130h-469v6c25 10 37 38 37 67v582c0 29 -12 57 -37 67v6h431l24 -130h-4c-24 59 -74 117 -172 117h-161v-310h168c40 0 59 37 69 82h6v-180h-6c-10 42 -29 82 -69 82h-168v-370h194c103 0 153 58 177 111z" />
    <glyph glyph-name="Eogonek" unicode="&#x118;" horiz-adv-x="580" 
d="M452 -103c0 -44 29 -66 80 -63l1 -4c-20 -11 -42 -20 -66 -20c-45 0 -73 28 -73 69c0 47 39 85 116 121h-448v6c25 10 37 38 37 67v582c0 29 -12 57 -37 67v6h431l24 -130h-4c-24 59 -74 117 -172 117h-161v-310h168c40 0 59 37 69 82h6v-180h-6c-10 42 -29 82 -69 82
h-168v-370h194c103 0 153 58 177 111h4l-24 -130h-10c-51 -33 -69 -66 -69 -103z" />
    <glyph glyph-name="F" unicode="F" horiz-adv-x="529" 
d="M485 728l25 -130h-5c-24 53 -74 117 -170 117h-155v-323h152c34 0 67 38 77 83h6v-178h-6c-10 42 -41 82 -77 82h-152v-306c0 -29 12 -57 37 -67v-6h-155v6c25 10 37 38 37 67v582c0 29 -12 57 -37 67v6h423z" />
    <glyph glyph-name="G" unicode="G" horiz-adv-x="712" 
d="M399 -7c-208 0 -351 163 -351 371c0 209 144 370 356 370c83 0 162 -30 212 -60l-23 -99h-5c-29 72 -104 145 -182 145c-153 0 -268 -136 -268 -351c0 -216 111 -362 262 -362c66 0 118 23 166 60v215c0 29 -12 57 -37 67v6h151v-6c-25 -10 -37 -38 -37 -67v-218
c-59 -40 -160 -71 -244 -71z" />
    <glyph glyph-name="Gbreve" unicode="&#x11e;" horiz-adv-x="712" 
d="M400 777c-78 0 -128 60 -132 181h9c13 -97 74 -125 123 -125c66 0 116 41 124 125h9c-2 -121 -54 -181 -133 -181zM399 -7c-208 0 -351 163 -351 371c0 209 144 370 356 370c83 0 162 -30 212 -60l-23 -99h-5c-29 72 -104 145 -182 145c-153 0 -268 -136 -268 -351
c0 -216 111 -362 262 -362c66 0 118 23 166 60v215c0 29 -12 57 -37 67v6h151v-6c-25 -10 -37 -38 -37 -67v-218c-59 -40 -160 -71 -244 -71z" />
    <glyph glyph-name="Gcircumflex" unicode="&#x11c;" horiz-adv-x="712" 
d="M571 791l-163 97l-166 -97h-5v1l162 164h20l157 -164v-1h-5zM529 349v6h151v-6c-25 -10 -37 -38 -37 -67v-218c-59 -40 -160 -71 -244 -71c-208 0 -351 163 -351 371c0 209 144 370 356 370c83 0 162 -30 212 -60l-23 -99h-5c-29 72 -104 145 -182 145
c-153 0 -268 -136 -268 -351c0 -216 111 -362 262 -362c66 0 118 23 166 60v215c0 29 -12 57 -37 67z" />
    <glyph glyph-name="uni0122" unicode="&#x122;" horiz-adv-x="712" 
d="M399 -7c-208 0 -351 163 -351 371c0 209 144 370 356 370c83 0 162 -30 212 -60l-23 -99h-5c-29 72 -104 145 -182 145c-153 0 -268 -136 -268 -351c0 -216 111 -362 262 -362c66 0 118 23 166 60v215c0 29 -12 57 -37 67v6h151v-6c-25 -10 -37 -38 -37 -67v-218
c-59 -40 -160 -71 -244 -71zM340 -243h-1v9c39 5 73 41 74 79c-7 -2 -13 -3 -20 -3c-28 0 -52 20 -52 49c0 30 22 52 52 52c34 0 54 -26 54 -61c0 -65 -44 -119 -107 -125z" />
    <glyph glyph-name="Gdotaccent" unicode="&#x120;" horiz-adv-x="712" 
d="M399 824c-29 0 -50 21 -50 49c0 26 21 48 50 48c26 0 48 -22 48 -48c0 -28 -22 -49 -48 -49zM399 -7c-208 0 -351 163 -351 371c0 209 144 370 356 370c83 0 162 -30 212 -60l-23 -99h-5c-29 72 -104 145 -182 145c-153 0 -268 -136 -268 -351c0 -216 111 -362 262 -362
c66 0 118 23 166 60v215c0 29 -12 57 -37 67v6h151v-6c-25 -10 -37 -38 -37 -67v-218c-59 -40 -160 -71 -244 -71z" />
    <glyph glyph-name="H" unicode="H" horiz-adv-x="761" 
d="M700 728v-6c-25 -10 -38 -38 -38 -67v-582c0 -29 13 -57 38 -67v-6h-155v6c25 10 37 38 37 67v315h-402v-315c0 -29 12 -57 37 -67v-6h-155v6c25 10 37 38 37 67v582c0 29 -12 57 -37 67v6h155v-6c-25 -10 -37 -38 -37 -67v-250h402v250c0 29 -12 57 -37 67v6h155z" />
    <glyph glyph-name="Hbar" unicode="&#x126;" horiz-adv-x="765" 
d="M735 570v-16h-71v-481c0 -29 13 -57 38 -67v-6h-156v6c25 10 37 38 37 67v315h-402v-315c0 -29 13 -57 38 -67v-6h-155v6c25 10 37 38 37 67v481h-71v16h71v85c0 29 -12 57 -37 67v6h155v-6c-25 -10 -38 -38 -38 -67v-85h402v85c0 29 -12 57 -37 67v6h156v-6
c-25 -10 -38 -38 -38 -67v-85h71zM181 405h402v149h-402v-149z" />
    <glyph glyph-name="Hcircumflex" unicode="&#x124;" horiz-adv-x="761" 
d="M555 790l-162 97l-166 -97h-5v1l162 164h20l156 -164v-1h-5zM700 728v-6c-25 -10 -38 -38 -38 -67v-582c0 -29 13 -57 38 -67v-6h-155v6c25 10 37 38 37 67v315h-402v-315c0 -29 12 -57 37 -67v-6h-155v6c25 10 37 38 37 67v582c0 29 -12 57 -37 67v6h155v-6
c-25 -10 -37 -38 -37 -67v-250h402v250c0 29 -12 57 -37 67v6h155z" />
    <glyph glyph-name="I" unicode="I" horiz-adv-x="279" 
d="M217 0h-155v6c25 10 37 38 37 67v582c0 29 -12 57 -37 67v6h155v-6c-25 -10 -37 -38 -37 -67v-582c0 -29 12 -57 37 -67v-6z" />
    <glyph glyph-name="IJ" unicode="&#x132;" horiz-adv-x="561" 
d="M217 0h-155v6c25 10 37 38 37 67v582c0 29 -12 57 -37 67v6h155v-6c-25 -10 -37 -38 -37 -67v-582c0 -29 12 -57 37 -67v-6zM293 -3v6c41 -5 94 17 94 111v541c0 29 -12 57 -37 67v6h156v-6c-25 -10 -39 -38 -39 -67v-515c0 -141 -109 -156 -174 -143z" />
    <glyph glyph-name="Iacute" unicode="&#xcd;" horiz-adv-x="279" 
d="M111 791h-5l107 169h109v-3zM217 0h-155v6c25 10 37 38 37 67v582c0 29 -12 57 -37 67v6h155v-6c-25 -10 -37 -38 -37 -67v-582c0 -29 12 -57 37 -67v-6z" />
    <glyph glyph-name="Ibreve" unicode="&#x12c;" horiz-adv-x="279" 
d="M139 777c-78 0 -129 60 -132 181h9c13 -97 73 -125 123 -125c66 0 116 41 124 125h9c-2 -121 -54 -181 -133 -181zM217 0h-155v6c25 10 37 38 37 67v582c0 29 -12 57 -37 67v6h155v-6c-25 -10 -37 -38 -37 -67v-582c0 -29 12 -57 37 -67v-6z" />
    <glyph glyph-name="Icircumflex" unicode="&#xce;" horiz-adv-x="279" 
d="M140 956h20l157 -164v-1h-5l-163 97l-166 -97h-5v1zM62 722v6h155v-6c-25 -10 -37 -38 -37 -67v-582c0 -29 12 -57 37 -67v-6h-155v6c25 10 37 38 37 67v582c0 29 -12 57 -37 67z" />
    <glyph glyph-name="Idieresis" unicode="&#xcf;" horiz-adv-x="279" 
d="M35 832c-28 0 -49 21 -49 49c0 27 21 48 49 48c26 0 48 -21 48 -48c0 -28 -22 -49 -48 -49zM240 832c-29 0 -49 21 -49 49c0 27 20 48 49 48c26 0 48 -21 48 -48c0 -28 -22 -49 -48 -49zM217 0h-155v6c25 10 37 38 37 67v582c0 29 -12 57 -37 67v6h155v-6
c-25 -10 -37 -38 -37 -67v-582c0 -29 12 -57 37 -67v-6z" />
    <glyph glyph-name="Idotaccent" unicode="&#x130;" horiz-adv-x="279" 
d="M140 824c-29 0 -50 21 -50 49c0 26 21 48 50 48c26 0 48 -22 48 -48c0 -28 -22 -49 -48 -49zM217 0h-155v6c25 10 37 38 37 67v582c0 29 -12 57 -37 67v6h155v-6c-25 -10 -37 -38 -37 -67v-582c0 -29 12 -57 37 -67v-6z" />
    <glyph glyph-name="Igrave" unicode="&#xcc;" horiz-adv-x="279" 
d="M200 791h-5l-211 166v3h109zM217 0h-155v6c25 10 37 38 37 67v582c0 29 -12 57 -37 67v6h155v-6c-25 -10 -37 -38 -37 -67v-582c0 -29 12 -57 37 -67v-6z" />
    <glyph glyph-name="Imacron" unicode="&#x12a;" horiz-adv-x="279" 
d="M285 851h-292v17h292v-17zM217 0h-155v6c25 10 37 38 37 67v582c0 29 -12 57 -37 67v6h155v-6c-25 -10 -37 -38 -37 -67v-582c0 -29 12 -57 37 -67v-6z" />
    <glyph glyph-name="Iogonek" unicode="&#x12e;" horiz-adv-x="279" 
d="M217 728v-6c-25 -10 -37 -38 -37 -67v-582c0 -29 12 -57 37 -67v-6h-29c-51 -34 -69 -66 -69 -104c0 -44 29 -65 80 -62l1 -4c-20 -11 -42 -20 -66 -20c-44 0 -73 27 -73 68c0 47 39 85 117 122h-116v6c25 10 37 38 37 67v582c0 29 -12 57 -37 67v6h155z" />
    <glyph glyph-name="Itilde" unicode="&#x128;" horiz-adv-x="279" 
d="M-24 788h-6c0 45 20 120 101 120c71 0 117 -67 165 -67c38 0 67 33 67 65h6c1 -64 -27 -111 -85 -111c-62 0 -117 67 -174 67c-48 0 -71 -40 -74 -74zM217 0h-155v6c25 10 37 38 37 67v582c0 29 -12 57 -37 67v6h155v-6c-25 -10 -37 -38 -37 -67v-582
c0 -29 12 -57 37 -67v-6z" />
    <glyph glyph-name="J" unicode="J" horiz-adv-x="295" 
d="M27 -3v6c41 -5 94 17 94 111v541c0 29 -12 57 -37 67v6h156v-6c-25 -10 -39 -38 -39 -67v-515c0 -141 -109 -156 -174 -143z" />
    <glyph glyph-name="Jcircumflex" unicode="&#x134;" horiz-adv-x="295" 
d="M163 956h20l157 -164v-1h-5l-163 97l-166 -97h-5v1zM84 722v6h156v-6c-25 -10 -39 -38 -39 -67v-515c0 -141 -109 -156 -174 -143v6c41 -5 94 17 94 111v541c0 29 -12 57 -37 67z" />
    <glyph glyph-name="K" unicode="K" horiz-adv-x="658" 
d="M341 455l231 -342c23 -34 54 -88 97 -107v-6h-152v6c27 14 10 51 -19 91l-205 305l-113 -125v-204c0 -29 12 -57 37 -67v-6h-155v6c25 10 37 38 37 67v582c0 29 -12 57 -37 67v6h155v-6c-25 -10 -37 -38 -37 -67v-352l328 360c22 26 12 46 -10 60v5h122v-5
c-42 -18 -69 -36 -89 -58z" />
    <glyph glyph-name="uni0136" unicode="&#x136;" horiz-adv-x="658" 
d="M341 455l231 -342c23 -34 54 -88 97 -107v-6h-152v6c27 14 10 51 -19 91l-205 305l-113 -125v-204c0 -29 12 -57 37 -67v-6h-155v6c25 10 37 38 37 67v582c0 29 -12 57 -37 67v6h155v-6c-25 -10 -37 -38 -37 -67v-352l328 360c22 26 12 46 -10 60v5h122v-5
c-42 -18 -69 -36 -89 -58zM359 -57c35 0 55 -26 55 -61c0 -65 -44 -119 -107 -125h-1v9c39 5 73 41 73 79c-7 -2 -12 -3 -20 -3c-27 0 -51 20 -51 49c0 30 21 52 51 52z" />
    <glyph glyph-name="L" unicode="L" horiz-adv-x="552" 
d="M535 130h4l-24 -130h-453v6c25 10 37 38 37 67v582c0 29 -12 57 -37 67v6h155v-6c-25 -10 -37 -38 -37 -67v-642h183c98 0 148 58 172 117z" />
    <glyph glyph-name="Lacute" unicode="&#x139;" horiz-adv-x="552" 
d="M108 791h-5l107 169h109v-3zM535 130h4l-24 -130h-453v6c25 10 37 38 37 67v582c0 29 -12 57 -37 67v6h155v-6c-25 -10 -37 -38 -37 -67v-642h183c98 0 148 58 172 117z" />
    <glyph glyph-name="Lcaron" unicode="&#x13d;" horiz-adv-x="556" 
d="M369 556h-1v9c36 5 59 40 59 75c-7 -2 -12 -2 -20 -2c-26 0 -49 19 -49 47c0 29 21 50 49 50c33 0 52 -25 52 -59c0 -55 -33 -114 -90 -120zM535 130h4l-24 -130h-453v6c25 10 37 38 37 67v582c0 29 -12 57 -37 67v6h155v-6c-25 -10 -37 -38 -37 -67v-642h183
c98 0 148 58 172 117z" />
    <glyph glyph-name="uni013B" unicode="&#x13b;" horiz-adv-x="552" 
d="M535 130h4l-24 -130h-453v6c25 10 37 38 37 67v582c0 29 -12 57 -37 67v6h155v-6c-25 -10 -37 -38 -37 -67v-642h183c98 0 148 58 172 117zM245 -243h-1v9c39 5 73 41 73 79c-7 -2 -12 -3 -19 -3c-28 0 -52 20 -52 49c0 30 22 52 51 52c35 0 55 -26 55 -61
c0 -65 -44 -119 -107 -125z" />
    <glyph glyph-name="Ldot" unicode="&#x13f;" horiz-adv-x="558" 
d="M535 130h4l-24 -130h-453v6c25 10 37 38 37 67v582c0 29 -12 57 -37 67v6h155v-6c-25 -10 -37 -38 -37 -67v-642h183c98 0 148 58 172 117zM412 337c-34 0 -62 29 -62 62s28 61 62 61s61 -28 61 -61c0 -35 -27 -62 -61 -62z" />
    <glyph glyph-name="Lslash" unicode="&#x141;" horiz-adv-x="562" 
d="M545 130h4l-24 -130h-453v6c25 10 37 38 37 67v244l-59 -34l-9 16l68 39v317c0 29 -12 57 -37 67v6h155v-6c-25 -10 -37 -38 -37 -67v-271l122 70l10 -16l-132 -75v-350h184c97 0 147 58 171 117z" />
    <glyph glyph-name="M" unicode="M" horiz-adv-x="845" 
d="M746 655v-582c0 -29 13 -57 38 -67v-6h-155v6c25 10 37 38 37 67v553l-263 -626h-6l-281 668v-591c0 -26 19 -53 44 -71v-6h-102v6c26 18 42 45 42 71v578c0 29 -12 57 -37 67v6h112l255 -615l261 615h92v-6c-25 -10 -37 -38 -37 -67z" />
    <glyph glyph-name="N" unicode="N" horiz-adv-x="721" 
d="M565 722v6h100v-6c-25 -18 -42 -41 -42 -73v-649h-14l-492 633v-554c0 -32 17 -55 42 -73v-6h-101v6c27 18 42 41 42 73v560c0 45 -12 73 -37 83v6h75l468 -605v526c0 32 -15 55 -41 73z" />
    <glyph glyph-name="Nacute" unicode="&#x143;" horiz-adv-x="721" 
d="M553 960v-3l-210 -166h-5l107 169h108zM565 722v6h100v-6c-25 -18 -42 -41 -42 -73v-649h-14l-492 633v-554c0 -32 17 -55 42 -73v-6h-101v6c27 18 42 41 42 73v560c0 45 -12 73 -37 83v6h75l468 -605v526c0 32 -15 55 -41 73z" />
    <glyph glyph-name="Ncaron" unicode="&#x147;" horiz-adv-x="721" 
d="M537 955l-156 -164h-20l-162 164v1h5l166 -98l162 98h5v-1zM565 722v6h100v-6c-25 -18 -42 -41 -42 -73v-649h-14l-492 633v-554c0 -32 17 -55 42 -73v-6h-101v6c27 18 42 41 42 73v560c0 45 -12 73 -37 83v6h75l468 -605v526c0 32 -15 55 -41 73z" />
    <glyph glyph-name="uni0145" unicode="&#x145;" horiz-adv-x="721" 
d="M565 722v6h100v-6c-25 -18 -42 -41 -42 -73v-649h-14l-492 633v-554c0 -32 17 -55 42 -73v-6h-101v6c27 18 42 41 42 73v560c0 45 -12 73 -37 83v6h75l468 -605v526c0 32 -15 55 -41 73zM365 -57c34 0 55 -26 55 -61c0 -65 -44 -119 -107 -125h-1v9c39 5 73 41 73 79
c-7 -2 -12 -3 -20 -3c-27 0 -51 20 -51 49c0 30 21 52 51 52z" />
    <glyph glyph-name="Eng" unicode="&#x14a;" horiz-adv-x="720" 
d="M565 722v6h100v-6c-25 -16 -42 -39 -42 -67v-714c0 -78 -30 -120 -88 -120c-42 0 -69 19 -92 61l4 4c18 -29 49 -50 86 -50c50 0 73 32 73 104v64l-490 633v-564c0 -28 18 -51 43 -67v-6h-101v6c26 16 42 39 42 67v566c0 45 -13 73 -38 83v6h74l470 -608v535
c0 28 -16 51 -41 67z" />
    <glyph glyph-name="Ntilde" unicode="&#xd1;" horiz-adv-x="721" 
d="M298 862c-48 0 -71 -40 -74 -74h-6c0 45 20 120 101 120c71 0 117 -67 165 -67c38 0 67 33 67 65h6c1 -64 -27 -111 -85 -111c-62 0 -117 67 -174 67zM565 722v6h100v-6c-25 -18 -42 -41 -42 -73v-649h-14l-492 633v-554c0 -32 17 -55 42 -73v-6h-101v6
c27 18 42 41 42 73v560c0 45 -12 73 -37 83v6h75l468 -605v526c0 32 -15 55 -41 73z" />
    <glyph glyph-name="O" unicode="O" horiz-adv-x="795" 
d="M397 -7c-196 0 -349 157 -349 371s153 370 349 370s350 -155 350 -369s-154 -372 -350 -372zM397 7c147 0 259 131 259 358c1 225 -112 355 -259 355s-259 -130 -259 -355c0 -227 112 -358 259 -358z" />
    <glyph glyph-name="Oacute" unicode="&#xd3;" horiz-adv-x="795" 
d="M369 792h-5l107 170h109v-3zM397 -7c-196 0 -349 157 -349 371s153 370 349 370s350 -155 350 -369s-154 -372 -350 -372zM397 7c147 0 259 131 259 358c1 225 -112 355 -259 355s-259 -130 -259 -355c0 -227 112 -358 259 -358z" />
    <glyph glyph-name="Obreve" unicode="&#x14e;" horiz-adv-x="795" 
d="M401 778c-78 0 -128 60 -132 181h9c13 -97 74 -125 123 -125c67 0 116 41 124 125h9c-2 -121 -54 -181 -133 -181zM397 -7c-196 0 -349 157 -349 371s153 370 349 370s350 -155 350 -369s-154 -372 -350 -372zM397 7c147 0 259 131 259 358c1 225 -112 355 -259 355
s-259 -130 -259 -355c0 -227 112 -358 259 -358z" />
    <glyph glyph-name="Ocircumflex" unicode="&#xd4;" horiz-adv-x="795" 
d="M566 792l-163 97l-165 -97h-5v1l162 164h20l156 -164v-1h-5zM397 734c196 0 350 -155 350 -369s-154 -372 -350 -372s-349 157 -349 371s153 370 349 370zM397 7c147 0 259 131 259 358c1 225 -112 355 -259 355s-259 -130 -259 -355c0 -227 112 -358 259 -358z" />
    <glyph glyph-name="Odieresis" unicode="&#xd6;" horiz-adv-x="795" 
d="M294 833c-29 0 -50 21 -50 50c0 26 21 48 50 48c26 0 47 -22 47 -48c0 -29 -21 -50 -47 -50zM498 833c-28 0 -49 21 -49 50c0 26 21 48 49 48c26 0 48 -22 48 -48c0 -29 -22 -50 -48 -50zM397 -7c-196 0 -349 157 -349 371s153 370 349 370s350 -155 350 -369
s-154 -372 -350 -372zM397 7c147 0 259 131 259 358c1 225 -112 355 -259 355s-259 -130 -259 -355c0 -227 112 -358 259 -358z" />
    <glyph glyph-name="Ograve" unicode="&#xd2;" horiz-adv-x="795" 
d="M472 792h-5l-211 167v3h109zM397 -7c-196 0 -349 157 -349 371s153 370 349 370s350 -155 350 -369s-154 -372 -350 -372zM397 7c147 0 259 131 259 358c1 225 -112 355 -259 355s-259 -130 -259 -355c0 -227 112 -358 259 -358z" />
    <glyph glyph-name="Ohungarumlaut" unicode="&#x150;" horiz-adv-x="795" 
d="M307 792h-5l23 173h73v-1zM462 792h-5l23 173h74v-1zM397 -7c-196 0 -349 157 -349 371s153 370 349 370s350 -155 350 -369s-154 -372 -350 -372zM397 7c147 0 259 131 259 358c1 225 -112 355 -259 355s-259 -130 -259 -355c0 -227 112 -358 259 -358z" />
    <glyph glyph-name="Omacron" unicode="&#x14c;" horiz-adv-x="795" 
d="M550 852h-291v17h291v-17zM397 -7c-196 0 -349 157 -349 371s153 370 349 370s350 -155 350 -369s-154 -372 -350 -372zM397 7c147 0 259 131 259 358c1 225 -112 355 -259 355s-259 -130 -259 -355c0 -227 112 -358 259 -358z" />
    <glyph glyph-name="uni01EA" unicode="&#x1ea;" horiz-adv-x="795" 
d="M478 2c-52 -34 -70 -67 -70 -104c0 -44 30 -66 80 -62l1 -4c-19 -12 -41 -20 -66 -20c-44 0 -73 27 -73 68c0 45 37 83 110 119c-21 -4 -42 -6 -63 -6c-196 0 -349 157 -349 371s153 370 349 370s350 -155 350 -369c0 -184 -113 -326 -269 -363zM138 365
c0 -227 112 -358 259 -358s259 131 259 358c1 225 -112 355 -259 355s-259 -130 -259 -355z" />
    <glyph glyph-name="Oslash" unicode="&#xd8;" horiz-adv-x="795" 
d="M650 744l-48 -76c88 -65 145 -173 145 -303c0 -214 -154 -372 -350 -372c-69 0 -132 19 -185 53l-43 -68h-23v3l49 77c-90 66 -147 175 -147 306c0 214 153 370 349 370c70 0 134 -20 189 -55l41 66h23v-1zM138 365c0 -118 30 -209 79 -271l348 553
c-45 48 -103 73 -168 73c-147 0 -259 -130 -259 -355zM397 7c147 0 259 131 259 358c1 115 -29 205 -77 266l-347 -553c44 -46 101 -71 165 -71z" />
    <glyph glyph-name="Oslashacute" unicode="&#x1fe;" horiz-adv-x="795" 
d="M580 962v-3l-211 -167h-5l107 170h109zM650 744l-48 -76c88 -65 145 -173 145 -303c0 -214 -154 -372 -350 -372c-69 0 -132 19 -185 53l-43 -68h-23v3l49 77c-90 66 -147 175 -147 306c0 214 153 370 349 370c70 0 134 -20 189 -55l41 66h23v-1zM138 365
c0 -118 30 -209 79 -271l348 553c-45 48 -103 73 -168 73c-147 0 -259 -130 -259 -355zM397 7c147 0 259 131 259 358c1 115 -29 205 -77 266l-347 -553c44 -46 101 -71 165 -71z" />
    <glyph glyph-name="Otilde" unicode="&#xd5;" horiz-adv-x="795" 
d="M251 789h-6c0 45 20 120 100 120c72 0 118 -67 166 -67c38 0 67 33 67 65h6c1 -64 -28 -111 -85 -111c-62 0 -118 67 -175 67c-48 0 -70 -40 -73 -74zM397 -7c-196 0 -349 157 -349 371s153 370 349 370s350 -155 350 -369s-154 -372 -350 -372zM397 7
c147 0 259 131 259 358c1 225 -112 355 -259 355s-259 -130 -259 -355c0 -227 112 -358 259 -358z" />
    <glyph glyph-name="OE" unicode="&#x152;" horiz-adv-x="1013" 
d="M968 130h5l-25 -130h-416v18c-40 -16 -85 -25 -129 -25c-201 0 -355 154 -355 372c0 216 154 369 355 369c48 0 92 -9 130 -25v19h413l25 -130h-5c-24 59 -74 117 -176 117h-176v-310h180c37 0 67 37 77 82h6v-179h-6c-10 42 -38 81 -77 81h-180v-370h177
c103 0 153 58 177 111zM404 7c43 0 89 13 128 35l1 642c-38 23 -83 37 -129 37c-157 0 -266 -143 -266 -356c1 -215 109 -358 266 -358z" />
    <glyph glyph-name="P" unicode="P" horiz-adv-x="618" 
d="M62 728h187c230 0 340 -70 340 -234c0 -150 -121 -230 -340 -230h-69v-191c0 -29 12 -57 37 -67v-6h-155v6c25 10 37 38 37 67v582c0 36 -12 57 -37 67v6zM180 715v-438h86c149 0 236 64 236 216c0 161 -83 222 -236 222h-86z" />
    <glyph glyph-name="Thorn" unicode="&#xde;" horiz-adv-x="632" 
d="M180 655v-58h69c230 0 340 -70 340 -234c0 -151 -121 -231 -340 -231h-69v-59c0 -29 12 -57 37 -67v-6h-155v6c25 10 37 38 37 67v582c0 29 -12 57 -37 67v6h155v-6c-25 -10 -37 -38 -37 -67zM180 584v-439h86c149 0 236 64 236 216c0 162 -83 223 -236 223h-86z" />
    <glyph glyph-name="Q" unicode="Q" horiz-adv-x="795" 
d="M647 -43h5l23 -61c-19 -16 -53 -29 -83 -29c-43 0 -95 2 -165 80l-42 46c-190 6 -337 161 -337 371c0 214 153 370 349 370s350 -155 350 -369c0 -212 -151 -369 -344 -372l23 -22c34 -31 65 -50 127 -50c33 0 72 13 94 36zM138 365c0 -227 112 -358 259 -358
s259 131 259 358c1 225 -112 355 -259 355s-259 -130 -259 -355z" />
    <glyph glyph-name="R" unicode="R" horiz-adv-x="641" 
d="M405 360l133 -246c21 -35 48 -89 91 -108v-6h-152v6c27 14 7 47 -16 91l-133 247c-22 -3 -44 -4 -67 -4h-81v-267c0 -29 12 -57 37 -67v-6h-155v6c25 10 37 38 37 67v582c0 36 -12 57 -37 67v6h202c159 0 308 -15 308 -187c0 -91 -69 -152 -167 -181zM180 354h78
c129 0 226 52 226 188c0 159 -99 173 -225 173h-79v-361z" />
    <glyph glyph-name="Racute" unicode="&#x154;" horiz-adv-x="641" 
d="M492 960v-3l-211 -166h-5l107 169h109zM405 360l133 -246c21 -35 48 -89 91 -108v-6h-152v6c27 14 7 47 -16 91l-133 247c-22 -3 -44 -4 -67 -4h-81v-267c0 -29 12 -57 37 -67v-6h-155v6c25 10 37 38 37 67v582c0 36 -12 57 -37 67v6h202c159 0 308 -15 308 -187
c0 -91 -69 -152 -167 -181zM180 354h78c129 0 226 52 226 188c0 159 -99 173 -225 173h-79v-361z" />
    <glyph glyph-name="Rcaron" unicode="&#x158;" horiz-adv-x="641" 
d="M474 955l-157 -164h-20l-162 164v1h5l166 -98l163 98h5v-1zM405 360l133 -246c21 -35 48 -89 91 -108v-6h-152v6c27 14 7 47 -16 91l-133 247c-22 -3 -44 -4 -67 -4h-81v-267c0 -29 12 -57 37 -67v-6h-155v6c25 10 37 38 37 67v582c0 36 -12 57 -37 67v6h202
c159 0 308 -15 308 -187c0 -91 -69 -152 -167 -181zM180 354h78c129 0 226 52 226 188c0 159 -99 173 -225 173h-79v-361z" />
    <glyph glyph-name="uni0156" unicode="&#x156;" horiz-adv-x="641" 
d="M405 360l133 -246c21 -35 48 -89 91 -108v-6h-152v6c27 14 7 47 -16 91l-133 247c-22 -3 -44 -4 -67 -4h-81v-267c0 -29 12 -57 37 -67v-6h-155v6c25 10 37 38 37 67v582c0 36 -12 57 -37 67v6h202c159 0 308 -15 308 -187c0 -91 -69 -152 -167 -181zM180 354h78
c129 0 226 52 226 188c0 159 -99 173 -225 173h-79v-361zM333 -57c34 0 54 -26 54 -61c0 -65 -43 -119 -107 -125h-1v9c40 5 74 41 74 79c-7 -2 -12 -3 -20 -3c-27 0 -52 20 -52 49c0 30 22 52 52 52z" />
    <glyph glyph-name="S" unicode="S" horiz-adv-x="561" 
d="M273 -7c-97 0 -179 21 -238 64l23 95h5c46 -90 118 -145 210 -145c107 0 169 55 169 141c0 211 -377 180 -377 406c0 110 94 180 231 180c83 0 155 -26 209 -64l-23 -96h-5c-35 74 -92 146 -185 146c-97 0 -160 -57 -160 -138c0 -187 380 -156 380 -399
c0 -118 -92 -190 -239 -190z" />
    <glyph glyph-name="Sacute" unicode="&#x15a;" horiz-adv-x="561" 
d="M267 790h-5l107 170h109v-3zM273 -7c-97 0 -179 21 -238 64l23 95h5c46 -90 118 -145 210 -145c107 0 169 55 169 141c0 211 -377 180 -377 406c0 110 94 180 231 180c83 0 155 -26 209 -64l-23 -96h-5c-35 74 -92 146 -185 146c-97 0 -160 -57 -160 -138
c0 -187 380 -156 380 -399c0 -118 -92 -190 -239 -190z" />
    <glyph glyph-name="Scaron" unicode="&#x160;" horiz-adv-x="561" 
d="M470 954l-156 -164h-20l-162 164v1h5l166 -97l162 97h5v-1zM132 582c0 -187 380 -156 380 -399c0 -118 -92 -190 -239 -190c-97 0 -179 21 -238 64l23 95h5c46 -90 118 -145 210 -145c107 0 169 55 169 141c0 211 -377 180 -377 406c0 110 94 180 231 180
c83 0 155 -26 209 -64l-23 -96h-5c-35 74 -92 146 -185 146c-97 0 -160 -57 -160 -138z" />
    <glyph glyph-name="Scedilla" unicode="&#x15e;" horiz-adv-x="561" 
d="M512 183c0 -117 -90 -188 -234 -190l-12 -44c7 3 16 5 29 5c32 0 70 -22 70 -69c0 -53 -43 -78 -82 -78c-42 0 -65 20 -79 43l5 3c12 -13 29 -21 52 -21c26 0 48 16 48 51c0 29 -16 45 -36 45c-12 0 -18 -2 -25 -6l-3 2l20 69c-94 1 -173 22 -230 64l23 95h5
c46 -90 118 -145 210 -145c107 0 169 55 169 141c0 211 -377 180 -377 406c0 110 94 180 231 180c83 0 155 -26 209 -64l-23 -96h-5c-35 74 -92 146 -185 146c-97 0 -160 -57 -160 -138c0 -187 380 -156 380 -399z" />
    <glyph glyph-name="Scircumflex" unicode="&#x15c;" horiz-adv-x="561" 
d="M471 790l-163 97l-166 -97h-5v1l162 164h20l157 -164v-1h-5zM132 582c0 -187 380 -156 380 -399c0 -118 -92 -190 -239 -190c-97 0 -179 21 -238 64l23 95h5c46 -90 118 -145 210 -145c107 0 169 55 169 141c0 211 -377 180 -377 406c0 110 94 180 231 180
c83 0 155 -26 209 -64l-23 -96h-5c-35 74 -92 146 -185 146c-97 0 -160 -57 -160 -138z" />
    <glyph glyph-name="uni0218" unicode="&#x218;" horiz-adv-x="561" 
d="M273 -7c-97 0 -179 21 -238 64l23 95h5c46 -90 118 -145 210 -145c107 0 169 55 169 141c0 211 -377 180 -377 406c0 110 94 180 231 180c83 0 155 -26 209 -64l-23 -96h-5c-35 74 -92 146 -185 146c-97 0 -160 -57 -160 -138c0 -187 380 -156 380 -399
c0 -118 -92 -190 -239 -190zM218 -243h-1v9c39 5 73 41 73 79c-7 -2 -12 -3 -19 -3c-28 0 -52 20 -52 49c0 30 22 52 52 52c34 0 54 -26 54 -61c0 -65 -44 -119 -107 -125z" />
    <glyph glyph-name="uni1E9E" unicode="&#x1e9e;" horiz-adv-x="658" 
d="M582 618l-202 -207c141 -7 232 -89 232 -213c0 -125 -87 -205 -223 -205c-61 0 -118 15 -168 41l23 95h4c44 -89 87 -122 146 -122c87 0 143 66 143 190c0 121 -68 197 -176 199v15l163 171c-46 101 -98 139 -171 139c-115 0 -188 -90 -188 -243l1 -478h-112v6
c23 10 37 35 37 69l-1 389c0 167 99 270 267 270c99 0 169 -34 225 -116z" />
    <glyph glyph-name="T" unicode="T" horiz-adv-x="630" 
d="M38 728h554l25 -133h-4c-25 57 -77 118 -159 118h-103v-640c0 -29 13 -57 38 -67v-6h-155v6c25 10 37 38 37 67v640h-95c-82 0 -134 -61 -159 -118h-4z" />
    <glyph glyph-name="Tbar" unicode="&#x166;" horiz-adv-x="632" 
d="M39 728h555l25 -133h-5c-25 57 -76 118 -159 118h-102v-333h94v-19h-94v-288c0 -29 13 -57 38 -67v-6h-156v6c25 10 37 38 37 67v288h-94v19h94v333h-94c-83 0 -134 -61 -159 -118h-5z" />
    <glyph glyph-name="Tcaron" unicode="&#x164;" horiz-adv-x="630" 
d="M482 955l-156 -164h-20l-162 164v1h5l165 -98l163 98h5v-1zM38 728h554l25 -133h-4c-25 57 -77 118 -159 118h-103v-640c0 -29 13 -57 38 -67v-6h-155v6c25 10 37 38 37 67v640h-95c-82 0 -134 -61 -159 -118h-4z" />
    <glyph glyph-name="uni0162" unicode="&#x162;" horiz-adv-x="630" 
d="M38 728h554l25 -133h-4c-25 57 -77 118 -159 118h-103v-640c0 -29 13 -57 38 -67v-6h-85l-13 -50c7 3 16 5 29 5c33 0 70 -22 70 -69c0 -52 -42 -77 -82 -77c-42 0 -65 20 -78 42l4 3c12 -13 29 -20 53 -20c25 0 47 15 47 51c0 29 -16 44 -36 44c-11 0 -18 -2 -25 -5
l-3 1l22 75h-58v6c25 10 37 38 37 67v640h-95c-82 0 -134 -61 -159 -118h-4z" />
    <glyph glyph-name="uni021A" unicode="&#x21a;" horiz-adv-x="630" 
d="M38 728h554l25 -133h-4c-25 57 -77 118 -159 118h-103v-640c0 -29 13 -57 38 -67v-6h-155v6c25 10 37 38 37 67v640h-95c-82 0 -134 -61 -159 -118h-4zM250 -243h-1v9c39 5 73 41 73 79c-7 -2 -12 -3 -19 -3c-28 0 -52 20 -52 49c0 30 22 52 52 52c34 0 54 -26 54 -61
c0 -65 -44 -119 -107 -125z" />
    <glyph glyph-name="U" unicode="U" horiz-adv-x="702" 
d="M368 -7c-173 0 -278 86 -278 289v373c0 29 -12 57 -37 67v6h156v-6c-25 -10 -38 -38 -38 -67v-374c0 -194 82 -269 206 -269c120 0 216 87 216 258v377c0 32 -16 57 -43 75v6h103v-6c-26 -18 -43 -43 -43 -75v-377c0 -175 -93 -277 -242 -277z" />
    <glyph glyph-name="Uacute" unicode="&#xda;" horiz-adv-x="702" 
d="M328 791h-5l107 169h108v-3zM368 -7c-173 0 -278 86 -278 289v373c0 29 -12 57 -37 67v6h156v-6c-25 -10 -38 -38 -38 -67v-374c0 -194 82 -269 206 -269c120 0 216 87 216 258v377c0 32 -16 57 -43 75v6h103v-6c-26 -18 -43 -43 -43 -75v-377c0 -175 -93 -277 -242 -277
z" />
    <glyph glyph-name="Ubreve" unicode="&#x16c;" horiz-adv-x="702" 
d="M354 777c-78 0 -128 60 -132 181h9c13 -97 74 -125 123 -125c67 0 116 41 124 125h9c-2 -121 -54 -181 -133 -181zM368 -7c-173 0 -278 86 -278 289v373c0 29 -12 57 -37 67v6h156v-6c-25 -10 -38 -38 -38 -67v-374c0 -194 82 -269 206 -269c120 0 216 87 216 258v377
c0 32 -16 57 -43 75v6h103v-6c-26 -18 -43 -43 -43 -75v-377c0 -175 -93 -277 -242 -277z" />
    <glyph glyph-name="Ucircumflex" unicode="&#xdb;" horiz-adv-x="702" 
d="M528 791l-162 97l-166 -97h-5v1l162 164h20l156 -164v-1h-5zM550 722v6h103v-6c-26 -18 -43 -43 -43 -75v-377c0 -175 -93 -277 -242 -277c-173 0 -278 86 -278 289v373c0 29 -12 57 -37 67v6h156v-6c-25 -10 -38 -38 -38 -67v-374c0 -194 82 -269 206 -269
c120 0 216 87 216 258v377c0 32 -16 57 -43 75z" />
    <glyph glyph-name="Udieresis" unicode="&#xdc;" horiz-adv-x="702" 
d="M269 832c-29 0 -49 21 -49 49c0 27 20 48 49 48c26 0 48 -21 48 -48c0 -28 -22 -49 -48 -49zM474 832c-29 0 -50 21 -50 49c0 27 21 48 50 48c26 0 48 -21 48 -48c0 -28 -22 -49 -48 -49zM368 -7c-173 0 -278 86 -278 289v373c0 29 -12 57 -37 67v6h156v-6
c-25 -10 -38 -38 -38 -67v-374c0 -194 82 -269 206 -269c120 0 216 87 216 258v377c0 32 -16 57 -43 75v6h103v-6c-26 -18 -43 -43 -43 -75v-377c0 -175 -93 -277 -242 -277z" />
    <glyph glyph-name="Ugrave" unicode="&#xd9;" horiz-adv-x="702" 
d="M430 791h-5l-211 166v3h109zM368 -7c-173 0 -278 86 -278 289v373c0 29 -12 57 -37 67v6h156v-6c-25 -10 -38 -38 -38 -67v-374c0 -194 82 -269 206 -269c120 0 216 87 216 258v377c0 32 -16 57 -43 75v6h103v-6c-26 -18 -43 -43 -43 -75v-377c0 -175 -93 -277 -242 -277
z" />
    <glyph glyph-name="Uhungarumlaut" unicode="&#x170;" horiz-adv-x="702" 
d="M260 791h-5l22 173h74v-1zM415 791h-5l23 173h73v-1zM368 -7c-173 0 -278 86 -278 289v373c0 29 -12 57 -37 67v6h156v-6c-25 -10 -38 -38 -38 -67v-374c0 -194 82 -269 206 -269c120 0 216 87 216 258v377c0 32 -16 57 -43 75v6h103v-6c-26 -18 -43 -43 -43 -75v-377
c0 -175 -93 -277 -242 -277z" />
    <glyph glyph-name="Umacron" unicode="&#x16a;" horiz-adv-x="702" 
d="M516 851h-291v17h291v-17zM368 -7c-173 0 -278 86 -278 289v373c0 29 -12 57 -37 67v6h156v-6c-25 -10 -38 -38 -38 -67v-374c0 -194 82 -269 206 -269c120 0 216 87 216 258v377c0 32 -16 57 -43 75v6h103v-6c-26 -18 -43 -43 -43 -75v-377c0 -175 -93 -277 -242 -277z
" />
    <glyph glyph-name="Uogonek" unicode="&#x172;" horiz-adv-x="702" 
d="M550 722v6h103v-6c-26 -18 -43 -43 -43 -75v-377c0 -144 -63 -238 -168 -267c-52 -35 -70 -68 -70 -105c0 -44 29 -66 80 -62l1 -4c-20 -12 -42 -20 -66 -20c-44 0 -73 27 -73 68c0 45 36 82 108 118c-17 -3 -35 -5 -54 -5c-173 0 -278 86 -278 289v373
c0 29 -12 57 -37 67v6h156v-6c-25 -10 -38 -38 -38 -67v-374c0 -194 82 -269 206 -269c120 0 216 87 216 258v377c0 32 -16 57 -43 75z" />
    <glyph glyph-name="Uring" unicode="&#x16e;" horiz-adv-x="702" 
d="M367 784c-43 0 -80 32 -80 80s37 80 80 80c42 0 78 -32 78 -80s-36 -80 -78 -80zM368 808c31 0 52 24 52 57c0 32 -21 55 -52 55c-35 0 -57 -23 -57 -55c0 -33 22 -57 57 -57zM368 -7c-173 0 -278 86 -278 289v373c0 29 -12 57 -37 67v6h156v-6c-25 -10 -38 -38 -38 -67
v-374c0 -194 82 -269 206 -269c120 0 216 87 216 258v377c0 32 -16 57 -43 75v6h103v-6c-26 -18 -43 -43 -43 -75v-377c0 -175 -93 -277 -242 -277z" />
    <glyph glyph-name="Utilde" unicode="&#x168;" horiz-adv-x="702" 
d="M209 788h-6c0 45 20 120 101 120c71 0 117 -67 165 -67c38 0 67 33 67 65h6c1 -64 -27 -111 -85 -111c-62 0 -117 67 -174 67c-48 0 -71 -40 -74 -74zM368 -7c-173 0 -278 86 -278 289v373c0 29 -12 57 -37 67v6h156v-6c-25 -10 -38 -38 -38 -67v-374
c0 -194 82 -269 206 -269c120 0 216 87 216 258v377c0 32 -16 57 -43 75v6h103v-6c-26 -18 -43 -43 -43 -75v-377c0 -175 -93 -277 -242 -277z" />
    <glyph glyph-name="V" unicode="V" horiz-adv-x="639" 
d="M520 720v8h130v-8c-46 -19 -51 -51 -64 -83l-258 -637h-13l-265 641c-14 32 -22 57 -58 81v6h173v-6c-29 -17 -50 -36 -32 -81l217 -539l211 530c18 44 -5 69 -41 88z" />
    <glyph glyph-name="W" unicode="W" horiz-adv-x="935" 
d="M811 721v7h121v-7c-43 -21 -53 -66 -60 -88l-208 -633h-13l-166 473l-177 -473h-12l-255 643c-12 32 -21 53 -58 79v6h172v-6c-29 -17 -48 -36 -30 -81l205 -538l146 396l-50 143c-11 33 -21 54 -59 80v6h173v-6c-29 -16 -46 -36 -31 -81l175 -530l165 514
c13 39 -1 80 -38 96z" />
    <glyph glyph-name="Wacute" unicode="&#x1e82;" horiz-adv-x="935" 
d="M458 791h-5l107 169h109v-3zM811 721v7h121v-7c-43 -21 -53 -66 -60 -88l-208 -633h-13l-166 473l-177 -473h-12l-255 643c-12 32 -21 53 -58 79v6h172v-6c-29 -17 -48 -36 -30 -81l205 -538l146 396l-50 143c-11 33 -21 54 -59 80v6h173v-6c-29 -16 -46 -36 -31 -81
l175 -530l165 514c13 39 -1 80 -38 96z" />
    <glyph glyph-name="Wcircumflex" unicode="&#x174;" horiz-adv-x="935" 
d="M645 791l-163 97l-166 -97h-5v1l162 164h20l157 -164v-1h-5zM811 721v7h121v-7c-43 -21 -53 -66 -60 -88l-208 -633h-13l-166 473l-177 -473h-12l-255 643c-12 32 -21 53 -58 79v6h172v-6c-29 -17 -48 -36 -30 -81l205 -538l146 396l-50 143c-11 33 -21 54 -59 80v6h173
v-6c-29 -16 -46 -36 -31 -81l175 -530l165 514c13 39 -1 80 -38 96z" />
    <glyph glyph-name="Wdieresis" unicode="&#x1e84;" horiz-adv-x="935" 
d="M382 832c-28 0 -49 21 -49 49c0 27 21 48 49 48c26 0 48 -21 48 -48c0 -28 -22 -49 -48 -49zM587 832c-29 0 -49 21 -49 49c0 27 20 48 49 48c26 0 48 -21 48 -48c0 -28 -22 -49 -48 -49zM811 721v7h121v-7c-43 -21 -53 -66 -60 -88l-208 -633h-13l-166 473l-177 -473
h-12l-255 643c-12 32 -21 53 -58 79v6h172v-6c-29 -17 -48 -36 -30 -81l205 -538l146 396l-50 143c-11 33 -21 54 -59 80v6h173v-6c-29 -16 -46 -36 -31 -81l175 -530l165 514c13 39 -1 80 -38 96z" />
    <glyph glyph-name="Wgrave" unicode="&#x1e80;" horiz-adv-x="935" 
d="M547 791h-5l-211 166v3h109zM811 721v7h121v-7c-43 -21 -53 -66 -60 -88l-208 -633h-13l-166 473l-177 -473h-12l-255 643c-12 32 -21 53 -58 79v6h172v-6c-29 -17 -48 -36 -30 -81l205 -538l146 396l-50 143c-11 33 -21 54 -59 80v6h173v-6c-29 -16 -46 -36 -31 -81
l175 -530l165 514c13 39 -1 80 -38 96z" />
    <glyph glyph-name="X" unicode="X" horiz-adv-x="633" 
d="M543 641l-188 -260l181 -278c29 -43 40 -77 84 -97v-6h-176v6c38 14 43 35 14 80l-167 252l-183 -244c-23 -31 -22 -68 10 -87v-7h-120v7c43 23 64 53 84 80l198 268l-181 276c-22 34 -35 71 -80 91v6h171v-6c-36 -14 -38 -35 -8 -80l162 -245l173 237
c22 31 22 68 -10 87v7h120v-7c-43 -23 -64 -53 -84 -80z" />
    <glyph glyph-name="Y" unicode="Y" horiz-adv-x="612" 
d="M490 722v6h137v-6c-41 -13 -71 -55 -88 -86l-191 -355v-208c0 -29 13 -57 38 -67v-6h-160v6c25 10 37 38 37 67v204l-188 356c-13 26 -31 69 -74 89v6h165v-6c-35 -14 -32 -33 -7 -80l181 -341l183 339c17 32 16 61 -33 82z" />
    <glyph glyph-name="Yacute" unicode="&#xdd;" horiz-adv-x="612" 
d="M293 791h-5l107 169h109v-3zM490 722v6h137v-6c-41 -13 -71 -55 -88 -86l-191 -355v-208c0 -29 13 -57 38 -67v-6h-160v6c25 10 37 38 37 67v204l-188 356c-13 26 -31 69 -74 89v6h165v-6c-35 -14 -32 -33 -7 -80l181 -341l183 339c17 32 16 61 -33 82z" />
    <glyph glyph-name="Ycircumflex" unicode="&#x176;" horiz-adv-x="612" 
d="M494 791l-162 97l-166 -97h-5v1l162 164h20l156 -164v-1h-5zM490 722v6h137v-6c-41 -13 -71 -55 -88 -86l-191 -355v-208c0 -29 13 -57 38 -67v-6h-160v6c25 10 37 38 37 67v204l-188 356c-13 26 -31 69 -74 89v6h165v-6c-35 -14 -32 -33 -7 -80l181 -341l183 339
c17 32 16 61 -33 82z" />
    <glyph glyph-name="Ydieresis" unicode="&#x178;" horiz-adv-x="612" 
d="M218 832c-29 0 -49 21 -49 49c0 27 20 48 49 48c26 0 48 -21 48 -48c0 -28 -22 -49 -48 -49zM422 832c-28 0 -49 21 -49 49c0 27 21 48 49 48c26 0 48 -21 48 -48c0 -28 -22 -49 -48 -49zM490 722v6h137v-6c-41 -13 -71 -55 -88 -86l-191 -355v-208c0 -29 13 -57 38 -67
v-6h-160v6c25 10 37 38 37 67v204l-188 356c-13 26 -31 69 -74 89v6h165v-6c-35 -14 -32 -33 -7 -80l181 -341l183 339c17 32 16 61 -33 82z" />
    <glyph glyph-name="Ygrave" unicode="&#x1ef2;" horiz-adv-x="612" 
d="M382 791h-5l-210 166v3h108zM490 722v6h137v-6c-41 -13 -71 -55 -88 -86l-191 -355v-208c0 -29 13 -57 38 -67v-6h-160v6c25 10 37 38 37 67v204l-188 356c-13 26 -31 69 -74 89v6h165v-6c-35 -14 -32 -33 -7 -80l181 -341l183 339c17 32 16 61 -33 82z" />
    <glyph glyph-name="uni1EF8" unicode="&#x1ef8;" horiz-adv-x="612" 
d="M175 788h-6c0 45 20 120 100 120c72 0 118 -67 166 -67c38 0 67 33 67 65h6c1 -64 -28 -111 -85 -111c-62 0 -117 67 -175 67c-48 0 -70 -40 -73 -74zM490 722v6h137v-6c-41 -13 -71 -55 -88 -86l-191 -355v-208c0 -29 13 -57 38 -67v-6h-160v6c25 10 37 38 37 67v204
l-188 356c-13 26 -31 69 -74 89v6h165v-6c-35 -14 -32 -33 -7 -80l181 -341l183 339c17 32 16 61 -33 82z" />
    <glyph glyph-name="Z" unicode="Z" horiz-adv-x="592" 
d="M561 130h4l-24 -130h-496v12l409 703h-242c-102 0 -152 -58 -176 -117h-4l24 130h486v-13l-411 -702h254c102 0 152 59 176 117z" />
    <glyph glyph-name="Zacute" unicode="&#x179;" horiz-adv-x="592" 
d="M268 791h-5l107 169h109v-3zM561 130h4l-24 -130h-496v12l409 703h-242c-102 0 -152 -58 -176 -117h-4l24 130h486v-13l-411 -702h254c102 0 152 59 176 117z" />
    <glyph glyph-name="Zcaron" unicode="&#x17d;" horiz-adv-x="592" 
d="M461 955l-157 -164h-20l-162 164v1h5l166 -98l163 98h5v-1zM561 130h4l-24 -130h-496v12l409 703h-242c-102 0 -152 -58 -176 -117h-4l24 130h486v-13l-411 -702h254c102 0 152 59 176 117z" />
    <glyph glyph-name="Zdotaccent" unicode="&#x17b;" horiz-adv-x="592" 
d="M293 824c-29 0 -50 21 -50 49c0 26 21 48 50 48c26 0 48 -22 48 -48c0 -28 -22 -49 -48 -49zM561 130h4l-24 -130h-496v12l409 703h-242c-102 0 -152 -58 -176 -117h-4l24 130h486v-13l-411 -702h254c102 0 152 59 176 117z" />
    <glyph glyph-name="C.ss01" horiz-adv-x="659" 
d="M379 -7c-205 0 -328 156 -328 369c0 216 123 372 328 372c132 0 238 -83 238 -217h-6c-5 116 -103 179 -219 179c-148 0 -251 -140 -251 -334c0 -191 102 -331 250 -331c117 0 215 63 221 179h5c0 -134 -106 -217 -238 -217z" />
    <glyph glyph-name="Cacute.ss01" horiz-adv-x="659" 
d="M338 791h-5l107 169h109v-3zM379 -7c-205 0 -328 156 -328 369c0 216 123 372 328 372c132 0 238 -83 238 -217h-6c-5 116 -103 179 -219 179c-148 0 -251 -140 -251 -334c0 -191 102 -331 250 -331c117 0 215 63 221 179h5c0 -134 -106 -217 -238 -217z" />
    <glyph glyph-name="Ccaron.ss01" horiz-adv-x="659" 
d="M548 955l-157 -164h-20l-162 164v1h5l166 -98l163 98h5v-1zM391 31c117 0 215 63 221 179h5c0 -134 -106 -217 -238 -217c-205 0 -328 156 -328 369c0 216 123 372 328 372c132 0 238 -83 238 -217h-6c-5 116 -103 179 -219 179c-148 0 -251 -140 -251 -334
c0 -191 102 -331 250 -331z" />
    <glyph glyph-name="Ccedilla.ss01" horiz-adv-x="659" 
d="M391 31c117 0 215 63 221 179h5c0 -134 -106 -217 -239 -217h-12l-12 -43c7 3 16 5 29 5c33 0 70 -22 70 -69c0 -52 -42 -77 -82 -77c-42 0 -65 20 -78 42l4 3c12 -13 29 -20 53 -20c25 0 47 15 47 51c0 29 -16 44 -36 44c-11 0 -18 -2 -25 -5l-3 1l20 69
c-189 12 -302 164 -302 368c0 216 123 372 327 372c133 0 239 -83 239 -217h-6c-6 116 -103 179 -219 179c-149 0 -251 -140 -251 -334c0 -191 102 -331 250 -331z" />
    <glyph glyph-name="Ccircumflex.ss01" horiz-adv-x="659" 
d="M539 791l-163 97l-165 -97h-5v1l162 164h20l156 -164v-1h-5zM391 31c117 0 215 63 221 179h5c0 -134 -106 -217 -238 -217c-205 0 -328 156 -328 369c0 216 123 372 328 372c132 0 238 -83 238 -217h-6c-5 116 -103 179 -219 179c-148 0 -251 -140 -251 -334
c0 -191 102 -331 250 -331z" />
    <glyph glyph-name="Cdotaccent.ss01" horiz-adv-x="659" 
d="M375 824c-28 0 -50 21 -50 49c0 26 22 48 50 48c26 0 48 -22 48 -48c0 -28 -22 -49 -48 -49zM379 -7c-205 0 -328 156 -328 369c0 216 123 372 328 372c132 0 238 -83 238 -217h-6c-5 116 -103 179 -219 179c-148 0 -251 -140 -251 -334c0 -191 102 -331 250 -331
c117 0 215 63 221 179h5c0 -134 -106 -217 -238 -217z" />
    <glyph glyph-name="G.ss01" horiz-adv-x="699" 
d="M405 -7c-227 0 -355 163 -355 369c0 215 131 372 341 372c136 0 229 -93 229 -209h-5c0 99 -102 171 -210 171c-158 0 -265 -137 -265 -331c0 -212 103 -358 265 -358c68 0 112 23 160 60v217c0 39 -11 57 -57 67v6h133v-293c-58 -40 -151 -71 -236 -71z" />
    <glyph glyph-name="Gbreve.ss01" horiz-adv-x="699" 
d="M380 777c-78 0 -128 60 -132 181h9c13 -97 73 -125 123 -125c66 0 116 41 124 125h9c-2 -121 -54 -181 -133 -181zM405 -7c-227 0 -355 163 -355 369c0 215 131 372 341 372c136 0 229 -93 229 -209h-5c0 99 -102 171 -210 171c-158 0 -265 -137 -265 -331
c0 -212 103 -358 265 -358c68 0 112 23 160 60v217c0 39 -11 57 -57 67v6h133v-293c-58 -40 -151 -71 -236 -71z" />
    <glyph glyph-name="Gcircumflex.ss01" horiz-adv-x="699" 
d="M554 791l-162 97l-166 -97h-5v1l162 164h20l156 -164v-1h-5zM508 351v6h133v-293c-58 -40 -151 -71 -236 -71c-227 0 -355 163 -355 369c0 215 131 372 341 372c136 0 229 -93 229 -209h-5c0 99 -102 171 -210 171c-158 0 -265 -137 -265 -331c0 -212 103 -358 265 -358
c68 0 112 23 160 60v217c0 39 -11 57 -57 67z" />
    <glyph glyph-name="uni0122.ss01" horiz-adv-x="699" 
d="M405 -7c-227 0 -355 163 -355 369c0 215 131 372 341 372c136 0 229 -93 229 -209h-5c0 99 -102 171 -210 171c-158 0 -265 -137 -265 -331c0 -212 103 -358 265 -358c68 0 112 23 160 60v217c0 39 -11 57 -57 67v6h133v-293c-58 -40 -151 -71 -236 -71zM341 -243h-1v9
c39 5 73 41 73 79c-7 -2 -12 -3 -20 -3c-27 0 -51 20 -51 49c0 30 21 52 51 52c35 0 55 -26 55 -61c0 -65 -44 -119 -107 -125z" />
    <glyph glyph-name="Gdotaccent.ss01" horiz-adv-x="699" 
d="M378 824c-28 0 -50 21 -50 49c0 26 22 48 50 48c26 0 48 -22 48 -48c0 -28 -22 -49 -48 -49zM405 -7c-227 0 -355 163 -355 369c0 215 131 372 341 372c136 0 229 -93 229 -209h-5c0 99 -102 171 -210 171c-158 0 -265 -137 -265 -331c0 -212 103 -358 265 -358
c68 0 112 23 160 60v217c0 39 -11 57 -57 67v6h133v-293c-58 -40 -151 -71 -236 -71z" />
    <glyph glyph-name="S.ss01" horiz-adv-x="557" 
d="M281 -7c-150 0 -237 89 -237 213h7c0 -101 89 -173 221 -173c106 0 166 50 166 134c0 201 -374 156 -374 388c0 111 85 179 209 179c138 0 217 -82 217 -205h-8c0 94 -76 165 -193 165c-98 0 -154 -46 -154 -118c0 -182 375 -149 375 -389c0 -119 -90 -194 -229 -194z
" />
    <glyph glyph-name="Sacute.ss01" horiz-adv-x="557" 
d="M238 790h-5l107 170h109v-3zM281 -7c-150 0 -237 89 -237 213h7c0 -101 89 -173 221 -173c106 0 166 50 166 134c0 201 -374 156 -374 388c0 111 85 179 209 179c138 0 217 -82 217 -205h-8c0 94 -76 165 -193 165c-98 0 -154 -46 -154 -118c0 -182 375 -149 375 -389
c0 -119 -90 -194 -229 -194z" />
    <glyph glyph-name="Scaron.ss01" horiz-adv-x="557" 
d="M451 954l-157 -164h-20l-162 164v1h5l167 -97l162 97h5v-1zM135 576c0 -182 375 -149 375 -389c0 -119 -90 -194 -229 -194c-150 0 -237 89 -237 213h7c0 -101 89 -173 221 -173c106 0 166 50 166 134c0 201 -374 156 -374 388c0 111 85 179 209 179
c138 0 217 -82 217 -205h-8c0 94 -76 165 -193 165c-98 0 -154 -46 -154 -118z" />
    <glyph glyph-name="Scedilla.ss01" horiz-adv-x="557" 
d="M510 187c0 -115 -84 -189 -216 -194l-12 -43c7 3 17 5 30 5c32 0 69 -22 69 -69c0 -52 -42 -77 -82 -77c-42 0 -64 20 -78 42l4 3c12 -13 29 -20 53 -20c25 0 47 15 47 51c0 29 -16 44 -36 44c-11 0 -18 -2 -25 -5l-3 1l20 68c-150 0 -237 89 -237 213h7
c0 -101 89 -173 221 -173c106 0 166 50 166 134c0 201 -374 156 -374 388c0 111 85 179 209 179c138 0 217 -82 217 -205h-8c0 94 -76 165 -193 165c-98 0 -154 -46 -154 -118c0 -182 375 -149 375 -389z" />
    <glyph glyph-name="Scircumflex.ss01" horiz-adv-x="557" 
d="M441 790l-163 97l-165 -97h-5v1l162 164h20l156 -164v-1h-5zM135 576c0 -182 375 -149 375 -389c0 -119 -90 -194 -229 -194c-150 0 -237 89 -237 213h7c0 -101 89 -173 221 -173c106 0 166 50 166 134c0 201 -374 156 -374 388c0 111 85 179 209 179
c138 0 217 -82 217 -205h-8c0 94 -76 165 -193 165c-98 0 -154 -46 -154 -118z" />
    <glyph glyph-name="uni0218.ss01" horiz-adv-x="557" 
d="M281 -7c-150 0 -237 89 -237 213h7c0 -101 89 -173 221 -173c106 0 166 50 166 134c0 201 -374 156 -374 388c0 111 85 179 209 179c138 0 217 -82 217 -205h-8c0 94 -76 165 -193 165c-98 0 -154 -46 -154 -118c0 -182 375 -149 375 -389c0 -119 -90 -194 -229 -194z
M213 -243h-1v9c39 5 73 41 73 79c-7 -2 -12 -3 -19 -3c-28 0 -52 20 -52 49c0 30 22 52 52 52c34 0 54 -26 54 -61c0 -65 -44 -119 -107 -125z" />
    <glyph glyph-name="a" unicode="a" horiz-adv-x="511" 
d="M516 67h1l1 -3c-15 -51 -41 -71 -82 -71c-42 0 -80 29 -86 98v3c-47 -59 -112 -101 -192 -101c-76 0 -125 42 -125 108c0 64 50 115 165 155l152 55v40c0 63 -25 145 -129 145c-94 0 -156 -80 -156 -143h-6c0 86 63 178 183 178c132 0 182 -85 182 -205v-232
c0 -46 16 -63 44 -63c19 0 36 10 48 36zM193 27c77 0 127 41 157 78v198l-125 -51c-97 -41 -123 -90 -123 -138c0 -51 33 -87 91 -87z" />
    <glyph glyph-name="aacute" unicode="&#xe1;" horiz-adv-x="511" 
d="M356 776v-1l-143 -162h-5l56 163h92zM516 67h1l1 -3c-15 -51 -41 -71 -82 -71c-42 0 -80 29 -86 98v3c-47 -59 -112 -101 -192 -101c-76 0 -125 42 -125 108c0 64 50 115 165 155l152 55v40c0 63 -25 145 -129 145c-94 0 -156 -80 -156 -143h-6c0 86 63 178 183 178
c132 0 182 -85 182 -205v-232c0 -46 16 -63 44 -63c19 0 36 10 48 36zM193 27c77 0 127 41 157 78v198l-125 -51c-97 -41 -123 -90 -123 -138c0 -51 33 -87 91 -87z" />
    <glyph glyph-name="abreve" unicode="&#x103;" horiz-adv-x="511" 
d="M244 609c-74 0 -124 44 -128 168h6c11 -97 77 -120 122 -120c63 0 114 34 123 120h6c-4 -123 -53 -168 -129 -168zM516 67h1l1 -3c-15 -51 -41 -71 -82 -71c-42 0 -80 29 -86 98v3c-47 -59 -112 -101 -192 -101c-76 0 -125 42 -125 108c0 64 50 115 165 155l152 55v40
c0 63 -25 145 -129 145c-94 0 -156 -80 -156 -143h-6c0 86 63 178 183 178c132 0 182 -85 182 -205v-232c0 -46 16 -63 44 -63c19 0 36 10 48 36zM193 27c77 0 127 41 157 78v198l-125 -51c-97 -41 -123 -90 -123 -138c0 -51 33 -87 91 -87z" />
    <glyph glyph-name="acircumflex" unicode="&#xe2;" horiz-adv-x="511" 
d="M390 613l-142 101l-146 -101h-5v1l143 164h16l139 -164v-1h-5zM516 67h1l1 -3c-15 -51 -41 -71 -82 -71c-42 0 -80 29 -86 98v3c-47 -59 -112 -101 -192 -101c-76 0 -125 42 -125 108c0 64 50 115 165 155l152 55v40c0 63 -25 145 -129 145c-94 0 -156 -80 -156 -143h-6
c0 86 63 178 183 178c132 0 182 -85 182 -205v-232c0 -46 16 -63 44 -63c19 0 36 10 48 36zM193 27c77 0 127 41 157 78v198l-125 -51c-97 -41 -123 -90 -123 -138c0 -51 33 -87 91 -87z" />
    <glyph glyph-name="adieresis" unicode="&#xe4;" horiz-adv-x="511" 
d="M159 646c-29 0 -51 22 -51 51c0 28 22 50 51 50c26 0 48 -22 48 -50c0 -29 -22 -51 -48 -51zM330 646c-29 0 -50 22 -50 51c0 28 21 50 50 50c27 0 49 -22 49 -50c0 -29 -22 -51 -49 -51zM516 67h1l1 -3c-15 -51 -41 -71 -82 -71c-42 0 -80 29 -86 98v3
c-47 -59 -112 -101 -192 -101c-76 0 -125 42 -125 108c0 64 50 115 165 155l152 55v40c0 63 -25 145 -129 145c-94 0 -156 -80 -156 -143h-6c0 86 63 178 183 178c132 0 182 -85 182 -205v-232c0 -46 16 -63 44 -63c19 0 36 10 48 36zM193 27c77 0 127 41 157 78v198
l-125 -51c-97 -41 -123 -90 -123 -138c0 -51 33 -87 91 -87z" />
    <glyph glyph-name="agrave" unicode="&#xe0;" horiz-adv-x="511" 
d="M216 776l56 -163h-5l-143 161v2h92zM516 67h1l1 -3c-15 -51 -41 -71 -82 -71c-42 0 -80 29 -86 98v3c-47 -59 -112 -101 -192 -101c-76 0 -125 42 -125 108c0 64 50 115 165 155l152 55v40c0 63 -25 145 -129 145c-94 0 -156 -80 -156 -143h-6c0 86 63 178 183 178
c132 0 182 -85 182 -205v-232c0 -46 16 -63 44 -63c19 0 36 10 48 36zM193 27c77 0 127 41 157 78v198l-125 -51c-97 -41 -123 -90 -123 -138c0 -51 33 -87 91 -87z" />
    <glyph glyph-name="amacron" unicode="&#x101;" horiz-adv-x="511" 
d="M96 693h291v-16h-291v16zM516 67h1l1 -3c-15 -51 -41 -71 -82 -71c-42 0 -80 29 -86 98v3c-47 -59 -112 -101 -192 -101c-76 0 -125 42 -125 108c0 64 50 115 165 155l152 55v40c0 63 -25 145 -129 145c-94 0 -156 -80 -156 -143h-6c0 86 63 178 183 178
c132 0 182 -85 182 -205v-232c0 -46 16 -63 44 -63c19 0 36 10 48 36zM193 27c77 0 127 41 157 78v198l-125 -51c-97 -41 -123 -90 -123 -138c0 -51 33 -87 91 -87z" />
    <glyph glyph-name="aogonek" unicode="&#x105;" horiz-adv-x="511" 
d="M470 -1c-48 -33 -65 -65 -65 -101c0 -44 30 -66 80 -62l1 -4c-20 -12 -41 -20 -66 -20c-44 0 -73 27 -73 68c0 43 34 79 100 113h-11c-42 0 -80 29 -86 98v3c-47 -59 -112 -101 -192 -101c-76 0 -125 42 -125 108c0 64 50 115 165 155l152 55v40c0 63 -25 145 -129 145
c-94 0 -156 -80 -156 -143h-6c0 86 63 178 183 178c132 0 182 -85 182 -205v-232c0 -46 16 -63 44 -63c19 0 36 10 48 36h1l1 -3c-10 -35 -26 -55 -48 -65zM193 27c77 0 127 41 157 78v198l-125 -51c-97 -41 -123 -90 -123 -138c0 -51 33 -87 91 -87z" />
    <glyph glyph-name="aring" unicode="&#xe5;" horiz-adv-x="511" 
d="M243 617c-43 0 -82 33 -82 79s39 79 82 79c44 0 82 -33 82 -79s-38 -79 -82 -79zM243 752c-36 0 -57 -25 -57 -56c0 -32 21 -57 57 -57c37 0 57 25 57 57c0 31 -20 56 -57 56zM516 67h1l1 -3c-15 -51 -41 -71 -82 -71c-42 0 -80 29 -86 98v3c-47 -59 -112 -101 -192 -101
c-76 0 -125 42 -125 108c0 64 50 115 165 155l152 55v40c0 63 -25 145 -129 145c-94 0 -156 -80 -156 -143h-6c0 86 63 178 183 178c132 0 182 -85 182 -205v-232c0 -46 16 -63 44 -63c19 0 36 10 48 36zM193 27c77 0 127 41 157 78v198l-125 -51
c-97 -41 -123 -90 -123 -138c0 -51 33 -87 91 -87z" />
    <glyph glyph-name="atilde" unicode="&#xe3;" horiz-adv-x="511" 
d="M173 680c-46 0 -73 -44 -76 -65h-6c0 43 23 115 90 115c65 0 112 -54 153 -54c30 0 62 17 62 57h5c1 -62 -26 -108 -76 -108c-59 0 -102 55 -152 55zM516 67h1l1 -3c-15 -51 -41 -71 -82 -71c-42 0 -80 29 -86 98v3c-47 -59 -112 -101 -192 -101c-76 0 -125 42 -125 108
c0 64 50 115 165 155l152 55v40c0 63 -25 145 -129 145c-94 0 -156 -80 -156 -143h-6c0 86 63 178 183 178c132 0 182 -85 182 -205v-232c0 -46 16 -63 44 -63c19 0 36 10 48 36zM193 27c77 0 127 41 157 78v198l-125 -51c-97 -41 -123 -90 -123 -138c0 -51 33 -87 91 -87z
" />
    <glyph glyph-name="ae" unicode="&#xe6;" horiz-adv-x="845" 
d="M813 299h-378v-12c0 -143 81 -246 195 -246c72 0 126 20 167 77l3 -4c-35 -70 -98 -121 -194 -121c-102 0 -186 52 -226 140c-50 -79 -128 -140 -224 -140c-76 0 -126 42 -126 108c0 64 50 115 165 155l159 58v37c0 62 -24 145 -129 145c-94 0 -155 -80 -155 -143h-6
c0 86 62 178 182 178c86 0 137 -36 162 -94c43 58 109 94 188 94c142 0 215 -85 217 -224v-8zM598 519c-91 0 -154 -93 -162 -208h304c0 132 -47 208 -142 208zM191 27c108 0 160 80 185 116c-14 34 -22 74 -22 117v46l-132 -54c-97 -40 -123 -90 -123 -140
c0 -52 35 -85 92 -85z" />
    <glyph glyph-name="aeacute" unicode="&#x1fd;" horiz-adv-x="845" 
d="M538 774v-1l-143 -161h-5l56 162h92zM813 299h-378v-12c0 -143 81 -246 195 -246c72 0 126 20 167 77l3 -4c-35 -70 -98 -121 -194 -121c-102 0 -186 52 -226 140c-50 -79 -128 -140 -224 -140c-76 0 -126 42 -126 108c0 64 50 115 165 155l159 58v37
c0 62 -24 145 -129 145c-94 0 -155 -80 -155 -143h-6c0 86 62 178 182 178c86 0 137 -36 162 -94c43 58 109 94 188 94c142 0 215 -85 217 -224v-8zM598 519c-91 0 -154 -93 -162 -208h304c0 132 -47 208 -142 208zM191 27c108 0 160 80 185 116c-14 34 -22 74 -22 117v46
l-132 -54c-97 -40 -123 -90 -123 -140c0 -52 35 -85 92 -85z" />
    <glyph glyph-name="b" unicode="b" horiz-adv-x="580" 
d="M329 531c116 0 207 -96 207 -268c0 -173 -113 -270 -242 -270c-56 0 -121 26 -164 75l-51 -68h-6v638c0 45 -18 63 -41 83v4c35 14 78 30 111 43h4v-343c37 60 103 106 182 106zM281 10c92 0 173 76 173 248c0 149 -63 237 -153 237c-68 0 -121 -31 -153 -78v-342
c31 -39 88 -65 133 -65z" />
    <glyph glyph-name="c" unicode="c" horiz-adv-x="498" 
d="M286 -7c-142 0 -244 103 -244 267c0 155 101 271 259 271c78 0 131 -35 161 -59l-33 -83h-3c-13 30 -50 130 -131 130c-110 0 -172 -118 -172 -239c0 -141 76 -239 196 -239c61 0 114 20 149 70l3 -4c-25 -61 -92 -114 -185 -114z" />
    <glyph glyph-name="cacute" unicode="&#x107;" horiz-adv-x="498" 
d="M255 613h-5l55 162h93v-1zM286 -7c-142 0 -244 103 -244 267c0 155 101 271 259 271c78 0 131 -35 161 -59l-33 -83h-3c-13 30 -50 130 -131 130c-110 0 -172 -118 -172 -239c0 -141 76 -239 196 -239c61 0 114 20 149 70l3 -4c-25 -61 -92 -114 -185 -114z" />
    <glyph glyph-name="ccaron" unicode="&#x10d;" horiz-adv-x="498" 
d="M446 776l-140 -163h-15l-144 163v1h5l146 -100l143 100h5v-1zM468 111l3 -4c-25 -61 -92 -114 -185 -114c-142 0 -244 103 -244 267c0 155 101 271 259 271c78 0 131 -35 161 -59l-33 -83h-3c-13 30 -50 130 -131 130c-110 0 -172 -118 -172 -239
c0 -141 76 -239 196 -239c61 0 114 20 149 70z" />
    <glyph glyph-name="ccedilla" unicode="&#xe7;" horiz-adv-x="498" 
d="M286 -7h-5l-11 -43c7 3 17 5 29 5c33 0 70 -22 70 -69c0 -52 -43 -77 -82 -77c-42 0 -65 20 -78 42l4 3c12 -13 29 -20 52 -20c26 0 48 15 48 51c0 29 -16 44 -36 44c-11 0 -18 -2 -25 -5l-3 1l20 68c-133 8 -227 110 -227 267c0 155 101 271 259 271
c78 0 131 -35 161 -59l-33 -83h-3c-13 30 -50 130 -131 130c-110 0 -172 -118 -172 -239c0 -141 76 -239 196 -239c61 0 114 20 149 70l3 -4c-25 -61 -92 -114 -185 -114z" />
    <glyph glyph-name="ccircumflex" unicode="&#x109;" horiz-adv-x="498" 
d="M432 613l-143 100l-145 -100h-5v1l143 163h16l139 -163v-1h-5zM468 111l3 -4c-25 -61 -92 -114 -185 -114c-142 0 -244 103 -244 267c0 155 101 271 259 271c78 0 131 -35 161 -59l-33 -83h-3c-13 30 -50 130 -131 130c-110 0 -172 -118 -172 -239
c0 -141 76 -239 196 -239c61 0 114 20 149 70z" />
    <glyph glyph-name="cdotaccent" unicode="&#x10b;" horiz-adv-x="498" 
d="M296 639c-31 0 -54 24 -54 55c0 28 23 53 54 53c28 0 53 -25 53 -53c0 -31 -25 -55 -53 -55zM286 -7c-142 0 -244 103 -244 267c0 155 101 271 259 271c78 0 131 -35 161 -59l-33 -83h-3c-13 30 -50 130 -131 130c-110 0 -172 -118 -172 -239c0 -141 76 -239 196 -239
c61 0 114 20 149 70l3 -4c-25 -61 -92 -114 -185 -114z" />
    <glyph glyph-name="d" unicode="d" horiz-adv-x="582" 
d="M501 768h4v-695c0 -29 11 -57 36 -67v-6h-105l-6 99c-37 -61 -102 -106 -181 -106c-114 0 -206 92 -206 248c0 175 113 290 235 290c53 0 116 -26 152 -69v176c0 45 -18 63 -41 83v4c30 12 79 29 112 43zM277 29c67 0 121 31 153 78v347c-31 33 -86 47 -129 47
c-104 0 -177 -93 -177 -255c0 -133 62 -217 153 -217z" />
    <glyph glyph-name="eth" unicode="&#xf0;" horiz-adv-x="588" 
d="M402 760l12 -16l-80 -54c128 -94 208 -259 208 -413c0 -194 -114 -284 -249 -284c-147 0 -251 110 -251 253c0 142 103 254 249 254c59 0 109 -23 146 -59c-29 90 -77 169 -137 226l-98 -66l-11 17l93 62c-55 48 -119 78 -190 81l3 6c82 2 155 -23 219 -65zM292 6
c98 0 170 100 169 243c0 141 -71 238 -169 238c-97 0 -169 -97 -169 -238c0 -145 73 -243 169 -243z" />
    <glyph glyph-name="dcaron" unicode="&#x10f;" horiz-adv-x="582" 
d="M549 602h-1v8c36 6 59 41 59 76c-7 -2 -12 -2 -19 -2c-26 0 -50 19 -50 47c0 29 21 50 50 50c33 0 52 -25 52 -59c0 -55 -34 -114 -91 -120zM501 768h4v-695c0 -29 11 -57 36 -67v-6h-105l-6 99c-37 -61 -102 -106 -181 -106c-114 0 -206 92 -206 248
c0 175 113 290 235 290c53 0 116 -26 152 -69v176c0 45 -18 63 -41 83v4c30 12 79 29 112 43zM277 29c67 0 121 31 153 78v347c-31 33 -86 47 -129 47c-104 0 -177 -93 -177 -255c0 -133 62 -217 153 -217z" />
    <glyph glyph-name="dcroat" unicode="&#x111;" horiz-adv-x="582" 
d="M587 632v-13h-82v-546c0 -29 11 -57 36 -67v-6h-105l-6 99c-37 -61 -102 -106 -181 -106c-114 0 -206 92 -206 248c0 175 113 290 235 290c53 0 116 -26 152 -69v157h-139v13h139v6c0 45 -18 63 -41 83v4c30 12 79 29 112 43h4v-136h82zM430 107v347
c-31 33 -86 47 -129 47c-104 0 -177 -93 -177 -255c0 -133 62 -217 153 -217c67 0 121 31 153 78z" />
    <glyph glyph-name="e" unicode="e" horiz-adv-x="534" 
d="M501 299h-378v-12c0 -143 81 -246 195 -246c73 0 126 20 168 77l3 -4c-35 -70 -99 -121 -194 -121c-145 0 -253 104 -253 267c0 155 100 271 243 271c141 0 215 -85 216 -224v-8zM287 519c-92 0 -155 -93 -163 -208h305c0 132 -48 208 -142 208z" />
    <glyph glyph-name="eacute" unicode="&#xe9;" horiz-adv-x="534" 
d="M401 775v-1l-143 -161h-5l55 162h93zM501 299h-378v-12c0 -143 81 -246 195 -246c73 0 126 20 168 77l3 -4c-35 -70 -99 -121 -194 -121c-145 0 -253 104 -253 267c0 155 100 271 243 271c141 0 215 -85 216 -224v-8zM287 519c-92 0 -155 -93 -163 -208h305
c0 132 -48 208 -142 208z" />
    <glyph glyph-name="ebreve" unicode="&#x115;" horiz-adv-x="534" 
d="M289 608c-74 0 -124 44 -128 168h6c11 -97 76 -120 122 -120c62 0 114 34 123 120h6c-4 -123 -54 -168 -129 -168zM501 299h-378v-12c0 -143 81 -246 195 -246c73 0 126 20 168 77l3 -4c-35 -70 -99 -121 -194 -121c-145 0 -253 104 -253 267c0 155 100 271 243 271
c141 0 215 -85 216 -224v-8zM287 519c-92 0 -155 -93 -163 -208h305c0 132 -48 208 -142 208z" />
    <glyph glyph-name="ecaron" unicode="&#x11b;" horiz-adv-x="534" 
d="M439 776l-140 -163h-15l-143 163v1h5l145 -100l143 100h5v-1zM501 299h-378v-12c0 -143 81 -246 195 -246c73 0 126 20 168 77l3 -4c-35 -70 -99 -121 -194 -121c-145 0 -253 104 -253 267c0 155 100 271 243 271c141 0 215 -85 216 -224v-8zM287 519
c-92 0 -155 -93 -163 -208h305c0 132 -48 208 -142 208z" />
    <glyph glyph-name="ecircumflex" unicode="&#xea;" horiz-adv-x="534" 
d="M435 613l-143 100l-145 -100h-5v1l143 163h15l140 -163v-1h-5zM501 299h-378v-12c0 -143 81 -246 195 -246c73 0 126 20 168 77l3 -4c-35 -70 -99 -121 -194 -121c-145 0 -253 104 -253 267c0 155 100 271 243 271c141 0 215 -85 216 -224v-8zM287 519
c-92 0 -155 -93 -163 -208h305c0 132 -48 208 -142 208z" />
    <glyph glyph-name="edieresis" unicode="&#xeb;" horiz-adv-x="534" 
d="M203 646c-29 0 -50 21 -50 51c0 27 21 49 50 49c27 0 49 -22 49 -49c0 -30 -22 -51 -49 -51zM375 646c-29 0 -51 21 -51 51c0 27 22 49 51 49c26 0 49 -22 49 -49c0 -30 -23 -51 -49 -51zM501 299h-378v-12c0 -143 81 -246 195 -246c73 0 126 20 168 77l3 -4
c-35 -70 -99 -121 -194 -121c-145 0 -253 104 -253 267c0 155 100 271 243 271c141 0 215 -85 216 -224v-8zM287 519c-92 0 -155 -93 -163 -208h305c0 132 -48 208 -142 208z" />
    <glyph glyph-name="edotaccent" unicode="&#x117;" horiz-adv-x="534" 
d="M289 639c-31 0 -55 24 -55 55c0 28 24 53 55 53c28 0 53 -25 53 -53c0 -31 -25 -55 -53 -55zM501 299h-378v-12c0 -143 81 -246 195 -246c73 0 126 20 168 77l3 -4c-35 -70 -99 -121 -194 -121c-145 0 -253 104 -253 267c0 155 100 271 243 271c141 0 215 -85 216 -224
v-8zM287 519c-92 0 -155 -93 -163 -208h305c0 132 -48 208 -142 208z" />
    <glyph glyph-name="egrave" unicode="&#xe8;" horiz-adv-x="534" 
d="M261 775l55 -163h-5l-143 162v1h93zM501 299h-378v-12c0 -143 81 -246 195 -246c73 0 126 20 168 77l3 -4c-35 -70 -99 -121 -194 -121c-145 0 -253 104 -253 267c0 155 100 271 243 271c141 0 215 -85 216 -224v-8zM287 519c-92 0 -155 -93 -163 -208h305
c0 132 -48 208 -142 208z" />
    <glyph glyph-name="emacron" unicode="&#x113;" horiz-adv-x="534" 
d="M140 693h292v-17h-292v17zM501 299h-378v-12c0 -143 81 -246 195 -246c73 0 126 20 168 77l3 -4c-35 -70 -99 -121 -194 -121c-145 0 -253 104 -253 267c0 155 100 271 243 271c141 0 215 -85 216 -224v-8zM287 519c-92 0 -155 -93 -163 -208h305c0 132 -48 208 -142 208
z" />
    <glyph glyph-name="eogonek" unicode="&#x119;" horiz-adv-x="534" 
d="M501 299h-378v-12c0 -143 81 -246 195 -246c73 0 126 20 168 77l3 -4c-28 -57 -76 -101 -143 -116c-49 -32 -67 -65 -67 -101c0 -44 30 -66 80 -63l1 -4c-19 -11 -41 -20 -65 -20c-45 0 -74 28 -74 69c0 45 36 81 106 116c-10 -1 -21 -2 -32 -2c-145 0 -253 104 -253 267
c0 155 100 271 243 271c141 0 215 -85 216 -224v-8zM287 519c-92 0 -155 -93 -163 -208h305c0 132 -48 208 -142 208z" />
    <glyph glyph-name="f" unicode="f" horiz-adv-x="302" 
d="M240 758c-63 0 -80 -67 -80 -136v-107h144v-12h-144v-430c0 -29 11 -57 36 -67v-6h-146v6c25 10 35 37 35 67v430h-61v12h61v94c0 88 53 162 147 162c68 0 109 -37 130 -52l-37 -78h-6c-7 34 -12 117 -79 117z" />
    <glyph glyph-name="g" unicode="g" horiz-adv-x="503" 
d="M145 92l147 -15c110 -9 184 -52 184 -137c0 -93 -99 -149 -235 -149c-118 0 -220 43 -220 129c0 58 52 93 107 113c-45 5 -77 28 -77 63c0 49 44 76 98 98c-59 30 -92 87 -92 157c0 102 72 179 192 179c38 0 72 -9 99 -26c49 13 108 31 135 47l8 -76l-130 20
c43 -31 68 -83 68 -144c0 -102 -72 -178 -180 -178c-35 0 -65 6 -91 17c-39 -18 -64 -36 -64 -58c0 -21 17 -37 51 -40zM131 351c-1 -104 43 -167 118 -167c62 0 106 64 106 167c0 104 -44 168 -106 168c-74 0 -118 -64 -118 -168zM241 -198c110 0 178 34 178 114
c0 60 -47 93 -118 101c-63 7 -139 13 -164 15c-41 -20 -59 -60 -59 -105c0 -77 65 -125 163 -125z" />
    <glyph glyph-name="gbreve" unicode="&#x11f;" horiz-adv-x="503" 
d="M250 609c-73 0 -124 44 -128 168h6c11 -97 77 -120 122 -120c63 0 114 34 123 120h6c-3 -123 -53 -168 -129 -168zM145 92l147 -15c110 -9 184 -52 184 -137c0 -93 -99 -149 -235 -149c-118 0 -220 43 -220 129c0 58 52 93 107 113c-45 5 -77 28 -77 63c0 49 44 76 98 98
c-59 30 -92 87 -92 157c0 102 72 179 192 179c38 0 72 -9 99 -26c49 13 108 31 135 47l8 -76l-130 20c43 -31 68 -83 68 -144c0 -102 -72 -178 -180 -178c-35 0 -65 6 -91 17c-39 -18 -64 -36 -64 -58c0 -21 17 -37 51 -40zM131 351c-1 -104 43 -167 118 -167
c62 0 106 64 106 167c0 104 -44 168 -106 168c-74 0 -118 -64 -118 -168zM241 -198c110 0 178 34 178 114c0 60 -47 93 -118 101c-63 7 -139 13 -164 15c-41 -20 -59 -60 -59 -105c0 -77 65 -125 163 -125z" />
    <glyph glyph-name="gcircumflex" unicode="&#x11d;" horiz-adv-x="503" 
d="M393 614l-143 100l-145 -100h-5v1l143 163h16l139 -163v-1h-5zM145 92l147 -15c110 -9 184 -52 184 -137c0 -93 -99 -149 -235 -149c-118 0 -220 43 -220 129c0 58 52 93 107 113c-45 5 -77 28 -77 63c0 49 44 76 98 98c-59 30 -92 87 -92 157c0 102 72 179 192 179
c38 0 72 -9 99 -26c49 13 108 31 135 47l8 -76l-130 20c43 -31 68 -83 68 -144c0 -102 -72 -178 -180 -178c-35 0 -65 6 -91 17c-39 -18 -64 -36 -64 -58c0 -21 17 -37 51 -40zM131 351c-1 -104 43 -167 118 -167c62 0 106 64 106 167c0 104 -44 168 -106 168
c-74 0 -118 -64 -118 -168zM241 -198c110 0 178 34 178 114c0 60 -47 93 -118 101c-63 7 -139 13 -164 15c-41 -20 -59 -60 -59 -105c0 -77 65 -125 163 -125z" />
    <glyph glyph-name="uni0123" unicode="&#x123;" horiz-adv-x="503" 
d="M250 587c-34 0 -54 26 -54 61c0 66 44 120 107 125h1v-8c-39 -6 -73 -42 -73 -79c7 2 12 2 19 2c28 0 52 -19 52 -49s-22 -52 -52 -52zM145 92l147 -15c110 -9 184 -52 184 -137c0 -93 -99 -149 -235 -149c-118 0 -220 43 -220 129c0 58 52 93 107 113
c-45 5 -77 28 -77 63c0 49 44 76 98 98c-59 30 -92 87 -92 157c0 102 72 179 192 179c38 0 72 -9 99 -26c49 13 108 31 135 47l8 -76l-130 20c43 -31 68 -83 68 -144c0 -102 -72 -178 -180 -178c-35 0 -65 6 -91 17c-39 -18 -64 -36 -64 -58c0 -21 17 -37 51 -40zM131 351
c-1 -104 43 -167 118 -167c62 0 106 64 106 167c0 104 -44 168 -106 168c-74 0 -118 -64 -118 -168zM241 -198c110 0 178 34 178 114c0 60 -47 93 -118 101c-63 7 -139 13 -164 15c-41 -20 -59 -60 -59 -105c0 -77 65 -125 163 -125z" />
    <glyph glyph-name="gdotaccent" unicode="&#x121;" horiz-adv-x="503" 
d="M250 639c-31 0 -55 24 -55 55c0 28 24 53 55 53c28 0 53 -25 53 -53c0 -31 -25 -55 -53 -55zM145 92l147 -15c110 -9 184 -52 184 -137c0 -93 -99 -149 -235 -149c-118 0 -220 43 -220 129c0 58 52 93 107 113c-45 5 -77 28 -77 63c0 49 44 76 98 98
c-59 30 -92 87 -92 157c0 102 72 179 192 179c38 0 72 -9 99 -26c49 13 108 31 135 47l8 -76l-130 20c43 -31 68 -83 68 -144c0 -102 -72 -178 -180 -178c-35 0 -65 6 -91 17c-39 -18 -64 -36 -64 -58c0 -21 17 -37 51 -40zM131 351c-1 -104 43 -167 118 -167
c62 0 106 64 106 167c0 104 -44 168 -106 168c-74 0 -118 -64 -118 -168zM241 -198c110 0 178 34 178 114c0 60 -47 93 -118 101c-63 7 -139 13 -164 15c-41 -20 -59 -60 -59 -105c0 -77 65 -125 163 -125z" />
    <glyph glyph-name="h" unicode="h" horiz-adv-x="572" 
d="M500 315v-242c0 -29 10 -57 35 -67v-6h-146v6c25 10 35 37 35 67v261c0 111 -52 162 -121 162c-68 0 -120 -30 -152 -73v-350c0 -29 11 -57 36 -67v-6h-146v6c25 10 35 37 35 67v565c0 45 -18 63 -41 83v4l109 43h7v-335c36 54 107 98 187 98c136 0 162 -118 162 -216z
" />
    <glyph glyph-name="hbar" unicode="&#x127;" horiz-adv-x="572" 
d="M500 315v-242c0 -29 10 -57 35 -67v-6h-146v6c25 10 35 37 35 67v261c0 111 -52 162 -121 162c-68 0 -120 -30 -152 -73v-350c0 -29 11 -57 36 -67v-6h-146v6c25 10 35 37 35 67v546h-83v13h83v6c0 45 -18 63 -41 83v4l109 43h7v-136h137v-13h-137v-186
c36 54 107 98 187 98c136 0 162 -118 162 -216z" />
    <glyph glyph-name="hcircumflex" unicode="&#x125;" horiz-adv-x="572" 
d="M269 825h-5l-160 97l-164 -97h-5v1l160 164h20l154 -164v-1zM500 315v-242c0 -29 10 -57 35 -67v-6h-146v6c25 10 35 37 35 67v261c0 111 -52 162 -121 162c-68 0 -120 -30 -152 -73v-350c0 -29 11 -57 36 -67v-6h-146v6c25 10 35 37 35 67v565c0 45 -18 63 -41 83v4
l109 43h7v-335c36 54 107 98 187 98c136 0 162 -118 162 -216z" />
    <glyph glyph-name="i" unicode="i" horiz-adv-x="235" 
d="M115 639c-30 0 -54 23 -54 54c0 29 24 53 54 53c28 0 53 -24 53 -53c0 -31 -25 -54 -53 -54zM194 0h-146v6c25 10 35 38 35 67v320c0 45 -17 62 -41 82v5c30 12 78 29 112 43h5v-450c0 -29 10 -57 35 -67v-6z" />
    <glyph glyph-name="dotlessi" unicode="&#x131;" horiz-adv-x="235" 
d="M194 0h-146v6c25 10 35 38 35 67v320c0 45 -17 62 -41 82v5c30 12 78 29 112 43h5v-450c0 -29 10 -57 35 -67v-6z" />
    <glyph glyph-name="iacute" unicode="&#xed;" horiz-adv-x="235" 
d="M92 613h-5l56 163h92v-1zM194 0h-146v6c25 10 35 38 35 67v320c0 45 -17 62 -41 82v5c30 12 78 29 112 43h5v-450c0 -29 10 -57 35 -67v-6z" />
    <glyph glyph-name="icircumflex" unicode="&#xee;" horiz-adv-x="235" 
d="M119 778h16l139 -164v-1h-5l-143 101l-145 -101h-5v1zM159 523v-450c0 -29 10 -57 35 -67v-6h-146v6c25 10 35 38 35 67v320c0 45 -17 62 -41 82v5c30 12 78 29 112 43h5z" />
    <glyph glyph-name="idieresis" unicode="&#xef;" horiz-adv-x="235" 
d="M37 646c-29 0 -50 22 -50 51c0 28 21 50 50 50c27 0 49 -22 49 -50c0 -29 -22 -51 -49 -51zM209 646c-29 0 -50 22 -50 51c0 28 21 50 50 50c27 0 49 -22 49 -50c0 -29 -22 -51 -49 -51zM194 0h-146v6c25 10 35 38 35 67v320c0 45 -17 62 -41 82v5c30 12 78 29 112 43h5
v-450c0 -29 10 -57 35 -67v-6z" />
    <glyph glyph-name="i.loclTRK" horiz-adv-x="235" 
d="M115 639c-30 0 -54 23 -54 54c0 29 24 53 54 53c28 0 53 -24 53 -53c0 -31 -25 -54 -53 -54zM194 0h-146v6c25 10 35 38 35 67v320c0 45 -17 62 -41 82v5c30 12 78 29 112 43h5v-450c0 -29 10 -57 35 -67v-6z" />
    <glyph glyph-name="igrave" unicode="&#xec;" horiz-adv-x="235" 
d="M151 613h-5l-143 161v2h92zM194 0h-146v6c25 10 35 38 35 67v320c0 45 -17 62 -41 82v5c30 12 78 29 112 43h5v-450c0 -29 10 -57 35 -67v-6z" />
    <glyph glyph-name="ij" unicode="&#x133;" horiz-adv-x="455" 
d="M115 639c-30 0 -54 23 -54 54c0 29 24 53 54 53c28 0 53 -24 53 -53c0 -31 -25 -54 -53 -54zM340 639c-31 0 -55 23 -55 54c0 29 24 53 55 53c28 0 53 -24 53 -53c0 -31 -25 -54 -53 -54zM194 0h-146v6c25 10 35 38 35 67v320c0 45 -17 62 -41 82v5c30 12 78 29 112 43h5
v-450c0 -29 10 -57 35 -67v-6zM299 -208c-46 0 -74 18 -97 80l4 2h1c15 -28 29 -42 54 -42c27 0 46 19 46 55v504c0 44 -18 62 -41 82v4c30 12 78 30 112 43h4v-628c0 -64 -37 -100 -83 -100z" />
    <glyph glyph-name="imacron" unicode="&#x12b;" horiz-adv-x="235" 
d="M233 677h-223v16h223v-16zM194 0h-146v6c25 10 35 38 35 67v320c0 45 -17 62 -41 82v5c30 12 78 29 112 43h5v-450c0 -29 10 -57 35 -67v-6z" />
    <glyph glyph-name="iogonek" unicode="&#x12f;" horiz-adv-x="235" 
d="M115 639c-30 0 -54 23 -54 54c0 29 24 53 54 53c28 0 53 -24 53 -53c0 -31 -25 -54 -53 -54zM194 0h-25c-50 -33 -68 -65 -68 -102c0 -44 30 -66 80 -63l1 -4c-20 -11 -41 -20 -66 -20c-44 0 -73 28 -73 69c0 46 39 83 115 120h-110v6c25 10 35 38 35 67v320
c0 45 -17 62 -41 82v5c30 12 78 29 112 43h5v-450c0 -29 10 -57 35 -67v-6z" />
    <glyph glyph-name="itilde" unicode="&#x129;" horiz-adv-x="235" 
d="M-16 615h-4c0 43 21 115 81 115c59 0 102 -54 139 -54c27 0 57 17 57 57h4c1 -62 -24 -108 -69 -108c-54 0 -93 55 -138 55c-42 0 -67 -44 -70 -65zM194 0h-146v6c25 10 35 38 35 67v320c0 45 -17 62 -41 82v5c30 12 78 29 112 43h5v-450c0 -29 10 -57 35 -67v-6z" />
    <glyph glyph-name="j" unicode="j" horiz-adv-x="227" 
d="M112 639c-31 0 -55 23 -55 54c0 29 24 53 55 53c28 0 52 -24 52 -53c0 -31 -24 -54 -52 -54zM70 -208c-45 0 -73 18 -96 80l3 2h1c15 -28 30 -42 55 -42c27 0 46 19 46 55v504c0 44 -18 62 -41 82v4c30 12 77 30 112 43h4v-628c0 -64 -37 -100 -84 -100z" />
    <glyph glyph-name="uni0237" unicode="&#x237;" horiz-adv-x="224" 
d="M63 -213c-45 0 -72 22 -89 79l2 2h1c12 -26 30 -41 53 -41c31 0 46 18 46 60v504c0 44 -17 62 -41 82v4c30 12 78 30 112 43h4v-620c0 -75 -38 -113 -88 -113z" />
    <glyph glyph-name="jcircumflex" unicode="&#x135;" horiz-adv-x="227" 
d="M105 776h16l140 -163v-1h-5l-143 100l-146 -100h-5v1zM35 473v4c30 12 78 30 112 43h4v-620c0 -75 -38 -113 -88 -113c-45 0 -72 22 -89 79l2 2h1c12 -26 30 -41 53 -41c31 0 46 18 46 60v504c0 44 -17 62 -41 82z" />
    <glyph glyph-name="k" unicode="k" horiz-adv-x="512" 
d="M286 343l147 -233c22 -34 44 -86 87 -104v-6h-152v6c27 14 16 47 -10 91l-121 195l-86 -89v-130c0 -29 11 -57 36 -67v-6h-146v6c25 10 35 38 35 67v565c0 45 -18 63 -41 83v4c30 12 78 29 112 43h4v-543l215 223c19 18 12 47 -11 62v5h126v-5c-45 -21 -73 -40 -96 -65z
" />
    <glyph glyph-name="uni0137" unicode="&#x137;" horiz-adv-x="512" 
d="M286 343l147 -233c22 -34 44 -86 87 -104v-6h-152v6c27 14 16 47 -10 91l-121 195l-86 -89v-130c0 -29 11 -57 36 -67v-6h-146v6c25 10 35 38 35 67v565c0 45 -18 63 -41 83v4c30 12 78 29 112 43h4v-543l215 223c19 18 12 47 -11 62v5h126v-5c-45 -21 -73 -40 -96 -65z
M250 -57c34 0 54 -26 54 -61c0 -65 -44 -119 -107 -125h-1v9c40 5 73 41 74 79c-7 -2 -13 -3 -20 -3c-28 0 -52 20 -52 49c0 30 22 52 52 52z" />
    <glyph glyph-name="kgreenlandic" unicode="&#x138;" horiz-adv-x="514" 
d="M293 342l140 -230c22 -33 45 -88 88 -106v-6h-151v6c27 14 15 47 -11 91l-115 195l-86 -89v-130c0 -29 11 -57 36 -67v-6h-146v6c25 10 35 38 35 67v319c0 44 -18 62 -41 82v4c30 12 78 30 112 43h4v-297l216 224c18 18 11 47 -12 62v5h127v-5c-46 -21 -73 -40 -96 -65z
" />
    <glyph glyph-name="l" unicode="l" horiz-adv-x="228" 
d="M187 0h-146v6c25 10 35 38 35 67v565c0 45 -18 63 -41 83v4c35 14 78 30 110 43h6v-695c0 -29 11 -57 36 -67v-6z" />
    <glyph glyph-name="lacute" unicode="&#x13a;" horiz-adv-x="228" 
d="M86 843h-5l56 163h92v-2zM187 0h-146v6c25 10 35 38 35 67v565c0 45 -18 63 -41 83v4c35 14 78 30 110 43h6v-695c0 -29 11 -57 36 -67v-6z" />
    <glyph glyph-name="lcaron" unicode="&#x13e;" horiz-adv-x="228" 
d="M194 602h-1v8c36 5 58 40 58 76c-6 -2 -12 -3 -19 -3c-26 0 -49 19 -49 47c0 29 21 50 49 50c33 0 52 -24 52 -58c0 -55 -34 -115 -90 -120zM187 0h-146v6c25 10 35 38 35 67v565c0 45 -18 63 -41 83v4c35 14 78 30 110 43h6v-695c0 -29 11 -57 36 -67v-6z" />
    <glyph glyph-name="uni013C" unicode="&#x13c;" horiz-adv-x="228" 
d="M187 0h-146v6c25 10 35 38 35 67v565c0 45 -18 63 -41 83v4c35 14 78 30 110 43h6v-695c0 -29 11 -57 36 -67v-6zM57 -243h-1v9c39 5 73 41 73 79c-7 -2 -12 -3 -20 -3c-27 0 -51 20 -51 49c0 30 21 52 51 52c35 0 55 -26 55 -61c0 -65 -44 -119 -107 -125z" />
    <glyph glyph-name="ldot" unicode="&#x140;" horiz-adv-x="307" 
d="M187 0h-146v6c25 10 35 38 35 67v565c0 45 -18 63 -41 83v4c35 14 78 30 110 43h6v-695c0 -29 11 -57 36 -67v-6zM267 289c-34 0 -62 30 -62 62c0 34 28 61 62 61s61 -27 61 -61s-27 -62 -61 -62z" />
    <glyph glyph-name="lslash" unicode="&#x142;" horiz-adv-x="283" 
d="M178 418v-345c0 -29 11 -57 36 -67v-6h-146v6c25 10 35 38 35 67v302l-78 -44l-6 12l84 48v247c0 45 -18 63 -41 83v4l110 43h6v-334l81 46l7 -12z" />
    <glyph glyph-name="m" unicode="m" horiz-adv-x="929" 
d="M856 315v-242c0 -29 11 -57 36 -67v-6h-146v6c25 10 35 37 35 67v261c0 111 -52 162 -121 162c-68 0 -117 -39 -153 -85v-338c0 -29 11 -57 36 -67v-6h-146v6c25 10 35 37 35 67v261c0 111 -53 162 -122 162c-67 0 -119 -30 -152 -73v-350c0 -29 11 -57 36 -67v-6h-146v6
c25 10 35 37 35 67v319c0 44 -18 62 -41 82v4c36 15 76 31 109 43h4v-92c37 56 107 102 190 102c118 0 151 -92 157 -114c35 59 108 114 193 114c136 0 161 -118 161 -216z" />
    <glyph glyph-name="n" unicode="n" horiz-adv-x="579" 
d="M507 315v-242c0 -29 11 -57 36 -67v-6h-146v6c25 10 35 37 35 67v261c0 111 -53 162 -122 162c-67 0 -119 -30 -152 -73v-350c0 -29 11 -57 36 -67v-6h-146v6c25 10 35 37 35 67v319c0 44 -18 62 -41 82v4c36 15 76 31 109 43h4v-92c37 56 107 102 190 102
c136 0 162 -118 162 -216z" />
    <glyph glyph-name="nacute" unicode="&#x144;" horiz-adv-x="579" 
d="M273 614h-5l56 162h92v-1zM507 315v-242c0 -29 11 -57 36 -67v-6h-146v6c25 10 35 37 35 67v261c0 111 -53 162 -122 162c-67 0 -119 -30 -152 -73v-350c0 -29 11 -57 36 -67v-6h-146v6c25 10 35 37 35 67v319c0 44 -18 62 -41 82v4c36 15 76 31 109 43h4v-92
c37 56 107 102 190 102c136 0 162 -118 162 -216z" />
    <glyph glyph-name="napostrophe" unicode="&#x149;" horiz-adv-x="638" 
d="M35 566h-1v9c37 5 60 41 60 77c-7 -2 -12 -2 -20 -2c-27 0 -51 20 -51 49s22 51 51 51c34 0 53 -26 53 -60c0 -57 -34 -118 -92 -124zM566 315v-242c0 -29 10 -57 35 -67v-6h-146v6c25 10 35 37 35 67v261c0 111 -52 162 -121 162c-68 0 -120 -30 -152 -73v-350
c0 -29 11 -57 36 -67v-6h-146v6c25 10 35 37 35 67v319c0 44 -18 62 -41 82v4c35 15 76 31 109 43h4v-92c36 56 107 102 190 102c136 0 162 -118 162 -216z" />
    <glyph glyph-name="ncaron" unicode="&#x148;" horiz-adv-x="579" 
d="M452 777l-140 -163h-16l-143 163v1h5l146 -100l143 100h5v-1zM507 315v-242c0 -29 11 -57 36 -67v-6h-146v6c25 10 35 37 35 67v261c0 111 -53 162 -122 162c-67 0 -119 -30 -152 -73v-350c0 -29 11 -57 36 -67v-6h-146v6c25 10 35 37 35 67v319c0 44 -18 62 -41 82v4
c36 15 76 31 109 43h4v-92c37 56 107 102 190 102c136 0 162 -118 162 -216z" />
    <glyph glyph-name="uni0146" unicode="&#x146;" horiz-adv-x="579" 
d="M507 315v-242c0 -29 11 -57 36 -67v-6h-146v6c25 10 35 37 35 67v261c0 111 -53 162 -122 162c-67 0 -119 -30 -152 -73v-350c0 -29 11 -57 36 -67v-6h-146v6c25 10 35 37 35 67v319c0 44 -18 62 -41 82v4c36 15 76 31 109 43h4v-92c37 56 107 102 190 102
c136 0 162 -118 162 -216zM235 -243h-1v9c40 5 74 41 74 79c-7 -2 -12 -3 -20 -3c-27 0 -52 20 -52 49c0 30 22 52 52 52c34 0 54 -26 54 -61c0 -65 -43 -119 -107 -125z" />
    <glyph glyph-name="eng" unicode="&#x14b;" horiz-adv-x="574" 
d="M345 531c136 0 162 -118 162 -216v-408c0 -81 -43 -121 -107 -121c-57 0 -85 33 -106 76l4 3c18 -30 43 -43 79 -43c39 0 55 30 55 76v436c0 111 -53 162 -122 162c-67 0 -119 -30 -152 -73v-350c0 -29 11 -57 36 -67v-6h-146v6c25 10 35 37 35 67v319
c0 44 -18 62 -41 82v4c36 15 76 31 109 43h4v-92c37 56 107 102 190 102z" />
    <glyph glyph-name="ntilde" unicode="&#xf1;" horiz-adv-x="579" 
d="M151 615h-5c0 44 23 115 90 115c65 0 112 -54 153 -54c29 0 62 17 62 57h5c1 -61 -26 -107 -76 -107c-59 0 -102 54 -152 54c-46 0 -74 -44 -77 -65zM507 315v-242c0 -29 11 -57 36 -67v-6h-146v6c25 10 35 37 35 67v261c0 111 -53 162 -122 162c-67 0 -119 -30 -152 -73
v-350c0 -29 11 -57 36 -67v-6h-146v6c25 10 35 37 35 67v319c0 44 -18 62 -41 82v4c36 15 76 31 109 43h4v-92c37 56 107 102 190 102c136 0 162 -118 162 -216z" />
    <glyph glyph-name="o" unicode="o" horiz-adv-x="584" 
d="M292 -7c-144 0 -250 104 -250 266c0 159 108 272 250 272c144 0 250 -106 250 -267s-107 -271 -250 -271zM292 5c98 0 169 95 169 257c0 160 -71 257 -169 257c-97 0 -169 -97 -169 -257c0 -162 72 -257 169 -257z" />
    <glyph glyph-name="oacute" unicode="&#xf3;" horiz-adv-x="584" 
d="M270 613h-5l56 163h92v-1zM292 -7c-144 0 -250 104 -250 266c0 159 108 272 250 272c144 0 250 -106 250 -267s-107 -271 -250 -271zM292 5c98 0 169 95 169 257c0 160 -71 257 -169 257c-97 0 -169 -97 -169 -257c0 -162 72 -257 169 -257z" />
    <glyph glyph-name="obreve" unicode="&#x14f;" horiz-adv-x="584" 
d="M292 609c-73 0 -124 44 -128 168h6c11 -97 77 -120 122 -120c63 0 114 34 124 120h6c-4 -123 -54 -168 -130 -168zM292 -7c-144 0 -250 104 -250 266c0 159 108 272 250 272c144 0 250 -106 250 -267s-107 -271 -250 -271zM292 5c98 0 169 95 169 257
c0 160 -71 257 -169 257c-97 0 -169 -97 -169 -257c0 -162 72 -257 169 -257z" />
    <glyph glyph-name="ocircumflex" unicode="&#xf4;" horiz-adv-x="584" 
d="M436 613l-143 101l-146 -101h-5v1l144 164h15l140 -164v-1h-5zM292 531c144 0 250 -106 250 -267s-107 -271 -250 -271c-144 0 -250 104 -250 266c0 159 108 272 250 272zM292 5c98 0 169 95 169 257c0 160 -71 257 -169 257c-97 0 -169 -97 -169 -257
c0 -162 72 -257 169 -257z" />
    <glyph glyph-name="odieresis" unicode="&#xf6;" horiz-adv-x="584" 
d="M216 646c-30 0 -51 22 -51 51c0 28 21 50 51 50c26 0 48 -22 48 -50c0 -29 -22 -51 -48 -51zM387 646c-29 0 -50 22 -50 51c0 28 21 50 50 50c27 0 49 -22 49 -50c0 -29 -22 -51 -49 -51zM292 -7c-144 0 -250 104 -250 266c0 159 108 272 250 272
c144 0 250 -106 250 -267s-107 -271 -250 -271zM292 5c98 0 169 95 169 257c0 160 -71 257 -169 257c-97 0 -169 -97 -169 -257c0 -162 72 -257 169 -257z" />
    <glyph glyph-name="ograve" unicode="&#xf2;" horiz-adv-x="584" 
d="M329 613h-5l-143 161v2h92zM292 -7c-144 0 -250 104 -250 266c0 159 108 272 250 272c144 0 250 -106 250 -267s-107 -271 -250 -271zM292 5c98 0 169 95 169 257c0 160 -71 257 -169 257c-97 0 -169 -97 -169 -257c0 -162 72 -257 169 -257z" />
    <glyph glyph-name="ohungarumlaut" unicode="&#x151;" horiz-adv-x="584" 
d="M211 613h-4l24 173h75v-1zM363 613h-5l25 173h74v-1zM292 -7c-144 0 -250 104 -250 266c0 159 108 272 250 272c144 0 250 -106 250 -267s-107 -271 -250 -271zM292 5c98 0 169 95 169 257c0 160 -71 257 -169 257c-97 0 -169 -97 -169 -257c0 -162 72 -257 169 -257z
" />
    <glyph glyph-name="omacron" unicode="&#x14d;" horiz-adv-x="584" 
d="M444 677h-291v16h291v-16zM292 -7c-144 0 -250 104 -250 266c0 159 108 272 250 272c144 0 250 -106 250 -267s-107 -271 -250 -271zM292 5c98 0 169 95 169 257c0 160 -71 257 -169 257c-97 0 -169 -97 -169 -257c0 -162 72 -257 169 -257z" />
    <glyph glyph-name="uni01EB" unicode="&#x1eb;" horiz-adv-x="584" 
d="M360 2c-51 -34 -69 -67 -69 -104c0 -44 29 -66 80 -62l1 -4c-20 -12 -42 -20 -66 -20c-44 0 -73 27 -73 68c0 45 36 82 107 117c-15 -3 -31 -4 -48 -4c-144 0 -250 104 -250 266c0 159 108 272 250 272c144 0 250 -106 250 -267c0 -134 -74 -233 -182 -262zM123 262
c0 -162 72 -257 169 -257c98 0 169 95 169 257c0 160 -71 257 -169 257c-97 0 -169 -97 -169 -257z" />
    <glyph glyph-name="oslash" unicode="&#xf8;" horiz-adv-x="584" 
d="M465 552l-34 -61c68 -45 111 -125 111 -227c0 -161 -107 -271 -250 -271c-45 0 -87 10 -123 30l-31 -56h-18l35 64c-69 44 -113 124 -113 228c0 159 108 272 250 272c46 0 89 -11 125 -31l29 52h19zM123 262c0 -85 20 -151 53 -195l223 401c-28 33 -65 51 -107 51
c-97 0 -169 -97 -169 -257zM292 5c98 0 169 95 169 257c0 82 -19 148 -51 192l-224 -401c29 -31 65 -48 106 -48z" />
    <glyph glyph-name="oslashacute" unicode="&#x1ff;" horiz-adv-x="584" 
d="M413 776v-1l-143 -162h-5l56 163h92zM465 552l-34 -61c68 -45 111 -125 111 -227c0 -161 -107 -271 -250 -271c-45 0 -87 10 -123 30l-31 -56h-18l35 64c-69 44 -113 124 -113 228c0 159 108 272 250 272c46 0 89 -11 125 -31l29 52h19zM123 262c0 -85 20 -151 53 -195
l223 401c-28 33 -65 51 -107 51c-97 0 -169 -97 -169 -257zM292 5c98 0 169 95 169 257c0 82 -19 148 -51 192l-224 -401c29 -31 65 -48 106 -48z" />
    <glyph glyph-name="otilde" unicode="&#xf5;" horiz-adv-x="584" 
d="M148 615h-5c0 43 23 115 90 115c65 0 112 -54 153 -54c29 0 62 17 62 57h5c1 -62 -27 -108 -76 -108c-59 0 -102 55 -152 55c-47 0 -74 -44 -77 -65zM292 -7c-144 0 -250 104 -250 266c0 159 108 272 250 272c144 0 250 -106 250 -267s-107 -271 -250 -271zM292 5
c98 0 169 95 169 257c0 160 -71 257 -169 257c-97 0 -169 -97 -169 -257c0 -162 72 -257 169 -257z" />
    <glyph glyph-name="oe" unicode="&#x153;" horiz-adv-x="952" 
d="M919 299h-377v-12c0 -143 81 -246 194 -246c73 0 127 20 168 77l3 -4c-35 -70 -98 -121 -194 -121c-92 0 -168 42 -212 114c-44 -71 -120 -114 -209 -114c-144 0 -250 104 -250 266c0 159 108 272 250 272c91 0 166 -42 210 -114c42 70 113 114 201 114
c141 0 215 -85 216 -224v-8zM292 5c98 0 169 95 169 257c0 160 -71 257 -169 257c-97 0 -169 -97 -169 -257c0 -162 72 -257 169 -257zM705 519c-92 0 -155 -93 -162 -208h304c0 132 -47 208 -142 208z" />
    <glyph glyph-name="p" unicode="p" horiz-adv-x="585" 
d="M336 531c114 0 206 -96 206 -268c0 -173 -112 -270 -229 -270c-50 0 -118 24 -158 68v-186c0 -29 10 -57 35 -67v-6h-146v6c25 10 35 37 35 67v517c0 44 -17 62 -41 82v4c36 15 77 31 110 43h4v-98h1c38 62 103 108 183 108zM289 23c97 0 172 71 172 235
c0 149 -63 237 -153 237c-65 0 -120 -32 -153 -79v-346c32 -33 78 -47 134 -47z" />
    <glyph glyph-name="thorn" unicode="&#xfe;" horiz-adv-x="577" 
d="M328 531c114 0 206 -96 206 -268c0 -173 -112 -270 -229 -270c-49 0 -117 24 -157 67v-185c0 -29 11 -57 36 -67v-6h-146v6c25 10 35 37 35 67v763c0 45 -18 63 -41 83v4c35 14 79 30 112 43h4v-340c38 60 102 103 180 103zM281 23c97 0 172 71 172 235
c0 149 -63 237 -153 237c-64 0 -118 -31 -152 -76v-350c32 -33 78 -46 133 -46z" />
    <glyph glyph-name="q" unicode="q" horiz-adv-x="572" 
d="M502 447v-572c0 -30 11 -57 36 -67v-6h-146v6c25 10 35 38 35 67v218c-39 -57 -100 -100 -176 -100c-116 0 -208 93 -208 247c0 183 110 291 260 291c75 0 151 -31 199 -84zM277 29c64 0 116 28 150 72v323c-20 54 -70 94 -121 94c-125 0 -182 -115 -182 -273
c0 -130 62 -216 153 -216z" />
    <glyph glyph-name="r" unicode="r" horiz-adv-x="407" 
d="M312 531c39 0 67 -13 89 -32l-25 -59h-3c-22 37 -52 51 -88 51c-78 0 -115 -61 -127 -86v-332c0 -29 11 -57 36 -67v-6h-146v6c25 10 35 37 35 67v323c0 36 -18 58 -41 78v4c36 15 76 31 109 43h4v-108c33 64 90 118 157 118z" />
    <glyph glyph-name="racute" unicode="&#x155;" horiz-adv-x="407" 
d="M195 613h-5l55 162h93v-1zM312 531c39 0 67 -13 89 -32l-25 -59h-3c-22 37 -52 51 -88 51c-78 0 -115 -61 -127 -86v-332c0 -29 11 -57 36 -67v-6h-146v6c25 10 35 37 35 67v323c0 36 -18 58 -41 78v4c36 15 76 31 109 43h4v-108c33 64 90 118 157 118z" />
    <glyph glyph-name="rcaron" unicode="&#x159;" horiz-adv-x="407" 
d="M376 776l-140 -163h-16l-143 163v1h5l146 -100l143 100h5v-1zM312 531c39 0 67 -13 89 -32l-25 -59h-3c-22 37 -52 51 -88 51c-78 0 -115 -61 -127 -86v-332c0 -29 11 -57 36 -67v-6h-146v6c25 10 35 37 35 67v323c0 36 -18 58 -41 78v4c36 15 76 31 109 43h4v-108
c33 64 90 118 157 118z" />
    <glyph glyph-name="uni0157" unicode="&#x157;" horiz-adv-x="407" 
d="M312 531c39 0 67 -13 89 -32l-25 -59h-3c-22 37 -52 51 -88 51c-78 0 -115 -61 -127 -86v-332c0 -29 11 -57 36 -67v-6h-146v6c25 10 35 37 35 67v323c0 36 -18 58 -41 78v4c36 15 76 31 109 43h4v-108c33 64 90 118 157 118zM61 -243h-1v9c39 5 73 41 74 79
c-7 -2 -13 -3 -20 -3c-28 0 -52 20 -52 49c0 30 22 52 52 52c34 0 54 -26 54 -61c0 -65 -44 -119 -107 -125z" />
    <glyph glyph-name="s" unicode="s" horiz-adv-x="446" 
d="M215 -7c-74 0 -142 24 -186 61l33 74h5c16 -56 72 -123 151 -123c58 0 115 31 115 102c0 68 -51 96 -132 135c-66 32 -145 70 -145 154c0 81 73 135 186 135c65 0 120 -20 160 -51l-32 -76h-5c-17 57 -56 115 -127 115c-65 0 -110 -36 -110 -100c0 -50 26 -77 121 -121
c78 -38 154 -72 154 -161c0 -93 -79 -144 -188 -144z" />
    <glyph glyph-name="sacute" unicode="&#x15b;" horiz-adv-x="446" 
d="M198 612h-5l56 162h92v-1zM215 -7c-74 0 -142 24 -186 61l33 74h5c16 -56 72 -123 151 -123c58 0 115 31 115 102c0 68 -51 96 -132 135c-66 32 -145 70 -145 154c0 81 73 135 186 135c65 0 120 -20 160 -51l-32 -76h-5c-17 57 -56 115 -127 115
c-65 0 -110 -36 -110 -100c0 -50 26 -77 121 -121c78 -38 154 -72 154 -161c0 -93 -79 -144 -188 -144z" />
    <glyph glyph-name="scaron" unicode="&#x161;" horiz-adv-x="446" 
d="M391 775l-140 -163h-15l-143 163v1h5l145 -100l143 100h5v-1zM249 298c78 -38 154 -72 154 -161c0 -93 -79 -144 -188 -144c-74 0 -142 24 -186 61l33 74h5c16 -56 72 -123 151 -123c58 0 115 31 115 102c0 68 -51 96 -132 135c-66 32 -145 70 -145 154
c0 81 73 135 186 135c65 0 120 -20 160 -51l-32 -76h-5c-17 57 -56 115 -127 115c-65 0 -110 -36 -110 -100c0 -50 26 -77 121 -121z" />
    <glyph glyph-name="scedilla" unicode="&#x15f;" horiz-adv-x="446" 
d="M215 -7h-5l-13 -45c7 3 17 5 30 5c32 0 69 -22 69 -69c0 -53 -42 -78 -82 -78c-42 0 -64 20 -78 43l4 3c12 -13 29 -21 53 -21c25 0 47 16 47 51c0 29 -16 45 -36 45c-11 0 -18 -2 -25 -6l-3 2l21 70c-67 4 -128 27 -168 61l33 74h5c16 -56 72 -123 151 -123
c58 0 115 31 115 102c0 68 -51 96 -132 135c-66 32 -145 70 -145 154c0 81 73 135 186 135c65 0 120 -20 160 -51l-32 -76h-5c-17 57 -56 115 -127 115c-65 0 -110 -36 -110 -100c0 -50 26 -77 121 -121c78 -38 154 -72 154 -161c0 -93 -79 -144 -188 -144z" />
    <glyph glyph-name="scircumflex" unicode="&#x15d;" horiz-adv-x="446" 
d="M384 612l-143 100l-146 -100h-5v1l143 163h16l140 -163v-1h-5zM249 298c78 -38 154 -72 154 -161c0 -93 -79 -144 -188 -144c-74 0 -142 24 -186 61l33 74h5c16 -56 72 -123 151 -123c58 0 115 31 115 102c0 68 -51 96 -132 135c-66 32 -145 70 -145 154
c0 81 73 135 186 135c65 0 120 -20 160 -51l-32 -76h-5c-17 57 -56 115 -127 115c-65 0 -110 -36 -110 -100c0 -50 26 -77 121 -121z" />
    <glyph glyph-name="uni0219" unicode="&#x219;" horiz-adv-x="446" 
d="M215 -7c-74 0 -142 24 -186 61l33 74h5c16 -56 72 -123 151 -123c58 0 115 31 115 102c0 68 -51 96 -132 135c-66 32 -145 70 -145 154c0 81 73 135 186 135c65 0 120 -20 160 -51l-32 -76h-5c-17 57 -56 115 -127 115c-65 0 -110 -36 -110 -100c0 -50 26 -77 121 -121
c78 -38 154 -72 154 -161c0 -93 -79 -144 -188 -144zM161 -244h-1v8c39 6 73 42 73 79c-7 -2 -12 -2 -20 -2c-27 0 -51 19 -51 49s21 52 51 52c35 0 55 -26 55 -61c0 -66 -44 -120 -107 -125z" />
    <glyph glyph-name="germandbls" unicode="&#xdf;" horiz-adv-x="631" 
d="M440 -7c-73 0 -124 22 -170 54l29 73h5c20 -65 80 -115 136 -115c62 0 98 39 98 110c0 153 -207 179 -207 309c0 108 133 138 133 223c0 65 -40 120 -122 121c-136 1 -190 -124 -190 -228v-467c0 -29 13 -57 38 -67v-6h-150v6c25 10 37 38 37 67v445
c0 160 100 262 269 262c110 0 193 -42 193 -125c0 -108 -180 -98 -180 -215c0 -116 247 -117 247 -299c0 -75 -52 -148 -166 -148z" />
    <glyph glyph-name="t" unicode="t" horiz-adv-x="330" 
d="M325 70l4 -4c-27 -50 -63 -73 -114 -73c-84 0 -126 59 -126 140v370h-68v3c50 26 96 56 141 90h3v-81h136v-12h-136v-373c0 -66 33 -94 85 -94c35 0 56 13 75 34z" />
    <glyph glyph-name="tbar" unicode="&#x167;" horiz-adv-x="332" 
d="M325 70l4 -4c-27 -50 -63 -73 -114 -73c-84 0 -126 59 -126 140v154h-52v12h52v204h-68v3c50 26 96 56 141 90h3v-81h136v-12h-136v-204h128v-12h-128v-157c0 -66 33 -94 85 -94c35 0 56 13 75 34z" />
    <glyph glyph-name="tcaron" unicode="&#x165;" horiz-adv-x="330" 
d="M261 575h-1v8c37 5 59 40 59 75c-7 -2 -12 -2 -19 -2c-26 0 -49 19 -49 47c0 29 20 50 49 50c33 0 52 -25 52 -58c0 -55 -34 -115 -91 -120zM325 70l4 -4c-27 -50 -63 -73 -114 -73c-84 0 -126 59 -126 140v370h-68v3c50 26 96 56 141 90h3v-81h136v-12h-136v-373
c0 -66 33 -94 85 -94c35 0 56 13 75 34z" />
    <glyph glyph-name="uni0163" unicode="&#x163;" horiz-adv-x="330" 
d="M215 -7c-5 0 -9 0 -14 1l-12 -44c7 3 17 5 30 5c32 0 69 -22 69 -69c0 -52 -42 -77 -82 -77c-41 0 -64 20 -78 42l5 3c12 -13 28 -20 52 -20c26 0 48 15 48 51c0 29 -17 44 -37 44c-11 0 -18 -2 -25 -5l-2 1l20 70c-67 11 -100 66 -100 138v370h-68v3c50 26 96 56 141 90
h3v-81h136v-12h-136v-373c0 -66 33 -94 85 -94c35 0 56 13 75 34l4 -4c-27 -50 -63 -73 -114 -73z" />
    <glyph glyph-name="uni021B" unicode="&#x21b;" horiz-adv-x="330" 
d="M325 70l4 -4c-27 -50 -63 -73 -114 -73c-84 0 -126 59 -126 140v370h-68v3c50 26 96 56 141 90h3v-81h136v-12h-136v-373c0 -66 33 -94 85 -94c35 0 56 13 75 34zM158 -243h-1v9c39 5 73 41 74 79c-7 -2 -13 -3 -20 -3c-28 0 -52 20 -52 49c0 30 22 52 52 52
c34 0 54 -26 54 -61c0 -65 -44 -119 -107 -125z" />
    <glyph glyph-name="u" unicode="u" horiz-adv-x="561" 
d="M484 521v-448c0 -29 10 -57 35 -67v-6h-102l-5 92c-39 -51 -101 -99 -170 -99c-109 0 -168 68 -168 198v201c0 44 -18 62 -41 82v4c30 12 78 30 112 43h4v-336c0 -107 49 -156 126 -156c63 0 108 37 133 71v292c0 44 -17 62 -41 82v4c30 12 78 30 112 43h5z" />
    <glyph glyph-name="uacute" unicode="&#xfa;" horiz-adv-x="561" 
d="M395 776v-1l-143 -162h-5l56 163h92zM484 521v-448c0 -29 10 -57 35 -67v-6h-102l-5 92c-39 -51 -101 -99 -170 -99c-109 0 -168 68 -168 198v201c0 44 -18 62 -41 82v4c30 12 78 30 112 43h4v-336c0 -107 49 -156 126 -156c63 0 108 37 133 71v292c0 44 -17 62 -41 82v4
c30 12 78 30 112 43h5z" />
    <glyph glyph-name="ubreve" unicode="&#x16d;" horiz-adv-x="561" 
d="M283 609c-74 0 -124 44 -128 168h6c11 -97 77 -120 122 -120c63 0 114 34 123 120h6c-4 -123 -54 -168 -129 -168zM484 521v-448c0 -29 10 -57 35 -67v-6h-102l-5 92c-39 -51 -101 -99 -170 -99c-109 0 -168 68 -168 198v201c0 44 -18 62 -41 82v4c30 12 78 30 112 43h4
v-336c0 -107 49 -156 126 -156c63 0 108 37 133 71v292c0 44 -17 62 -41 82v4c30 12 78 30 112 43h5z" />
    <glyph glyph-name="ucircumflex" unicode="&#xfb;" horiz-adv-x="561" 
d="M429 613l-143 101l-145 -101h-5v1l143 164h16l139 -164v-1h-5zM484 521v-448c0 -29 10 -57 35 -67v-6h-102l-5 92c-39 -51 -101 -99 -170 -99c-109 0 -168 68 -168 198v201c0 44 -18 62 -41 82v4c30 12 78 30 112 43h4v-336c0 -107 49 -156 126 -156c63 0 108 37 133 71
v292c0 44 -17 62 -41 82v4c30 12 78 30 112 43h5z" />
    <glyph glyph-name="udieresis" unicode="&#xfc;" horiz-adv-x="561" 
d="M197 646c-29 0 -50 22 -50 51c0 28 21 50 50 50c27 0 49 -22 49 -50c0 -29 -22 -51 -49 -51zM369 646c-29 0 -50 22 -50 51c0 28 21 50 50 50c27 0 49 -22 49 -50c0 -29 -22 -51 -49 -51zM484 521v-448c0 -29 10 -57 35 -67v-6h-102l-5 92c-39 -51 -101 -99 -170 -99
c-109 0 -168 68 -168 198v201c0 44 -18 62 -41 82v4c30 12 78 30 112 43h4v-336c0 -107 49 -156 126 -156c63 0 108 37 133 71v292c0 44 -17 62 -41 82v4c30 12 78 30 112 43h5z" />
    <glyph glyph-name="ugrave" unicode="&#xf9;" horiz-adv-x="561" 
d="M255 776l56 -163h-5l-143 161v2h92zM484 521v-448c0 -29 10 -57 35 -67v-6h-102l-5 92c-39 -51 -101 -99 -170 -99c-109 0 -168 68 -168 198v201c0 44 -18 62 -41 82v4c30 12 78 30 112 43h4v-336c0 -107 49 -156 126 -156c63 0 108 37 133 71v292c0 44 -17 62 -41 82v4
c30 12 78 30 112 43h5z" />
    <glyph glyph-name="uhungarumlaut" unicode="&#x171;" horiz-adv-x="561" 
d="M281 787v-2l-94 -171h-5l25 173h74zM433 787v-2l-94 -171h-5l25 173h74zM484 521v-448c0 -29 10 -57 35 -67v-6h-102l-5 92c-39 -51 -101 -99 -170 -99c-109 0 -168 68 -168 198v201c0 44 -18 62 -41 82v4c30 12 78 30 112 43h4v-336c0 -107 49 -156 126 -156
c63 0 108 37 133 71v292c0 44 -17 62 -41 82v4c30 12 78 30 112 43h5z" />
    <glyph glyph-name="umacron" unicode="&#x16b;" horiz-adv-x="561" 
d="M135 693h291v-16h-291v16zM484 521v-448c0 -29 10 -57 35 -67v-6h-102l-5 92c-39 -51 -101 -99 -170 -99c-109 0 -168 68 -168 198v201c0 44 -18 62 -41 82v4c30 12 78 30 112 43h4v-336c0 -107 49 -156 126 -156c63 0 108 37 133 71v292c0 44 -17 62 -41 82v4
c30 12 78 30 112 43h5z" />
    <glyph glyph-name="uogonek" unicode="&#x173;" horiz-adv-x="561" 
d="M520 -166l1 -4c-20 -11 -42 -20 -66 -20c-44 0 -73 28 -73 69c0 47 40 85 117 121h-82l-5 92c-39 -51 -101 -99 -170 -99c-109 0 -168 68 -168 198v201c0 44 -18 62 -41 82v4c30 12 78 30 112 43h4v-336c0 -107 49 -156 126 -156c63 0 108 37 133 71v292
c0 44 -17 62 -41 82v4c30 12 78 30 112 43h5v-448c0 -29 10 -57 35 -67v-6h-10c-51 -33 -69 -66 -69 -103c0 -44 30 -66 80 -63z" />
    <glyph glyph-name="uring" unicode="&#x16f;" horiz-adv-x="561" 
d="M282 617c-43 0 -82 33 -82 79s39 79 82 79c44 0 82 -33 82 -79s-38 -79 -82 -79zM282 752c-36 0 -57 -25 -57 -56c0 -32 21 -57 57 -57c37 0 57 25 57 57c0 31 -20 56 -57 56zM484 521v-448c0 -29 10 -57 35 -67v-6h-102l-5 92c-39 -51 -101 -99 -170 -99
c-109 0 -168 68 -168 198v201c0 44 -18 62 -41 82v4c30 12 78 30 112 43h4v-336c0 -107 49 -156 126 -156c63 0 108 37 133 71v292c0 44 -17 62 -41 82v4c30 12 78 30 112 43h5z" />
    <glyph glyph-name="utilde" unicode="&#x169;" horiz-adv-x="561" 
d="M207 680c-47 0 -74 -44 -77 -65h-5c0 43 23 115 90 115c65 0 112 -54 153 -54c29 0 62 17 62 57h5c1 -62 -27 -108 -76 -108c-59 0 -102 55 -152 55zM484 521v-448c0 -29 10 -57 35 -67v-6h-102l-5 92c-39 -51 -101 -99 -170 -99c-109 0 -168 68 -168 198v201
c0 44 -18 62 -41 82v4c30 12 78 30 112 43h4v-336c0 -107 49 -156 126 -156c63 0 108 37 133 71v292c0 44 -17 62 -41 82v4c30 12 78 30 112 43h5z" />
    <glyph glyph-name="v" unicode="v" horiz-adv-x="486" 
d="M381 509v6h114v-6c-39 -24 -49 -49 -58 -69l-193 -440h-9l-180 426c-19 43 -30 62 -60 83v6h169v-6c-32 -11 -54 -35 -32 -86l138 -327l146 335c15 34 -2 59 -35 78z" />
    <glyph glyph-name="w" unicode="w" horiz-adv-x="736" 
d="M627 509v6h114v-6c-38 -21 -50 -50 -58 -70l-168 -439h-9l-123 336l-141 -336h-9l-181 426c-20 43 -30 62 -60 83v6h169v-6c-32 -11 -55 -35 -32 -87l139 -326l107 262l-24 68c-17 44 -29 62 -59 83v6h169v-6c-33 -11 -51 -36 -33 -87l110 -322l124 330
c12 31 -3 57 -35 79z" />
    <glyph glyph-name="wacute" unicode="&#x1e83;" horiz-adv-x="736" 
d="M338 613h-5l56 163h92v-1zM627 509v6h114v-6c-38 -21 -50 -50 -58 -70l-168 -439h-9l-123 336l-141 -336h-9l-181 426c-20 43 -30 62 -60 83v6h169v-6c-32 -11 -55 -35 -32 -87l139 -326l107 262l-24 68c-17 44 -29 62 -59 83v6h169v-6c-33 -11 -51 -36 -33 -87l110 -322
l124 330c12 31 -3 57 -35 79z" />
    <glyph glyph-name="wcircumflex" unicode="&#x175;" horiz-adv-x="736" 
d="M530 613l-143 101l-146 -101h-5v1l144 164h15l140 -164v-1h-5zM627 509v6h114v-6c-38 -21 -50 -50 -58 -70l-168 -439h-9l-123 336l-141 -336h-9l-181 426c-20 43 -30 62 -60 83v6h169v-6c-32 -11 -55 -35 -32 -87l139 -326l107 262l-24 68c-17 44 -29 62 -59 83v6h169
v-6c-33 -11 -51 -36 -33 -87l110 -322l124 330c12 31 -3 57 -35 79z" />
    <glyph glyph-name="wdieresis" unicode="&#x1e85;" horiz-adv-x="736" 
d="M288 646c-29 0 -50 22 -50 51c0 28 21 50 50 50c27 0 49 -22 49 -50c0 -29 -22 -51 -49 -51zM460 646c-29 0 -50 22 -50 51c0 28 21 50 50 50c26 0 49 -22 49 -50c0 -29 -23 -51 -49 -51zM627 509v6h114v-6c-38 -21 -50 -50 -58 -70l-168 -439h-9l-123 336l-141 -336h-9
l-181 426c-20 43 -30 62 -60 83v6h169v-6c-32 -11 -55 -35 -32 -87l139 -326l107 262l-24 68c-17 44 -29 62 -59 83v6h169v-6c-33 -11 -51 -36 -33 -87l110 -322l124 330c12 31 -3 57 -35 79z" />
    <glyph glyph-name="wgrave" unicode="&#x1e81;" horiz-adv-x="736" 
d="M397 613h-5l-143 161v2h93zM627 509v6h114v-6c-38 -21 -50 -50 -58 -70l-168 -439h-9l-123 336l-141 -336h-9l-181 426c-20 43 -30 62 -60 83v6h169v-6c-32 -11 -55 -35 -32 -87l139 -326l107 262l-24 68c-17 44 -29 62 -59 83v6h169v-6c-33 -11 -51 -36 -33 -87
l110 -322l124 330c12 31 -3 57 -35 79z" />
    <glyph glyph-name="x" unicode="x" horiz-adv-x="498" 
d="M393 440l-110 -161l140 -195c24 -34 39 -59 79 -78v-6h-167v6c37 18 26 43 4 75l-117 161l-118 -167c-17 -25 -16 -53 7 -69v-6h-109v6c26 11 65 44 83 69l128 180l-134 185c-21 30 -32 52 -70 69v6h159v-6c-34 -16 -20 -43 2 -75l103 -142l100 147c20 29 17 54 -5 70v6
h109v-6c-26 -12 -65 -43 -84 -69z" />
    <glyph glyph-name="y" unicode="y" horiz-adv-x="490" 
d="M384 510v5h114v-5c-35 -18 -50 -52 -58 -72l-181 -481l-17 -43c-33 -87 -73 -124 -126 -124c-23 0 -52 8 -79 28l21 60h5c13 -19 49 -40 80 -39c30 1 60 17 77 55l26 58l-192 474c-18 44 -30 62 -60 83v6h169v-6c-32 -11 -53 -35 -32 -87l150 -365l140 377
c11 29 -2 59 -37 76z" />
    <glyph glyph-name="yacute" unicode="&#xfd;" horiz-adv-x="490" 
d="M208 613h-5l55 162h93v-1zM384 510v5h114v-5c-35 -18 -50 -52 -58 -72l-181 -481l-17 -43c-33 -87 -73 -124 -126 -124c-23 0 -52 8 -79 28l21 60h5c13 -19 49 -40 80 -39c30 1 60 17 77 55l26 58l-192 474c-18 44 -30 62 -60 83v6h169v-6c-32 -11 -53 -35 -32 -87
l150 -365l140 377c11 29 -2 59 -37 76z" />
    <glyph glyph-name="ycircumflex" unicode="&#x177;" horiz-adv-x="490" 
d="M399 613l-143 100l-146 -100h-5v1l143 163h16l140 -163v-1h-5zM384 510v5h114v-5c-35 -18 -50 -52 -58 -72l-181 -481l-17 -43c-33 -87 -73 -124 -126 -124c-23 0 -52 8 -79 28l21 60h5c13 -19 49 -40 80 -39c30 1 60 17 77 55l26 58l-192 474c-18 44 -30 62 -60 83v6
h169v-6c-32 -11 -53 -35 -32 -87l150 -365l140 377c11 29 -2 59 -37 76z" />
    <glyph glyph-name="ydieresis" unicode="&#xff;" horiz-adv-x="490" 
d="M163 646c-29 0 -51 21 -51 51c0 27 22 49 51 49c26 0 48 -22 48 -49c0 -30 -22 -51 -48 -51zM334 646c-29 0 -50 21 -50 51c0 27 21 49 50 49c27 0 49 -22 49 -49c0 -30 -22 -51 -49 -51zM384 510v5h114v-5c-35 -18 -50 -52 -58 -72l-181 -481l-17 -43
c-33 -87 -73 -124 -126 -124c-23 0 -52 8 -79 28l21 60h5c13 -19 49 -40 80 -39c30 1 60 17 77 55l26 58l-192 474c-18 44 -30 62 -60 83v6h169v-6c-32 -11 -53 -35 -32 -87l150 -365l140 377c11 29 -2 59 -37 76z" />
    <glyph glyph-name="ygrave" unicode="&#x1ef3;" horiz-adv-x="490" 
d="M304 613h-5l-143 161v1h93zM384 510v5h114v-5c-35 -18 -50 -52 -58 -72l-181 -481l-17 -43c-33 -87 -73 -124 -126 -124c-23 0 -52 8 -79 28l21 60h5c13 -19 49 -40 80 -39c30 1 60 17 77 55l26 58l-192 474c-18 44 -30 62 -60 83v6h169v-6c-32 -11 -53 -35 -32 -87
l150 -365l140 377c11 29 -2 59 -37 76z" />
    <glyph glyph-name="uni1EF9" unicode="&#x1ef9;" horiz-adv-x="490" 
d="M116 614h-6c0 44 24 115 90 115c65 0 112 -54 153 -54c30 0 62 17 62 57h5c1 -61 -26 -107 -76 -107c-59 0 -102 54 -152 54c-46 0 -73 -44 -76 -65zM384 510v5h114v-5c-35 -18 -50 -52 -58 -72l-181 -481l-17 -43c-33 -87 -73 -124 -126 -124c-23 0 -52 8 -79 28l21 60
h5c13 -19 49 -40 80 -39c30 1 60 17 77 55l26 58l-192 474c-18 44 -30 62 -60 83v6h169v-6c-32 -11 -53 -35 -32 -87l150 -365l140 377c11 29 -2 59 -37 76z" />
    <glyph glyph-name="z" unicode="z" horiz-adv-x="464" 
d="M436 130h4l-25 -130h-374v11l296 494h-139c-84 0 -135 -70 -160 -120h-4l25 130h352v-10l-295 -495h159c84 0 136 69 161 120z" />
    <glyph glyph-name="zacute" unicode="&#x17a;" horiz-adv-x="464" 
d="M198 613h-5l55 162h93v-1zM436 130h4l-25 -130h-374v11l296 494h-139c-84 0 -135 -70 -160 -120h-4l25 130h352v-10l-295 -495h159c84 0 136 69 161 120z" />
    <glyph glyph-name="zcaron" unicode="&#x17e;" horiz-adv-x="464" 
d="M386 776l-140 -163h-16l-143 163v1h5l146 -100l143 100h5v-1zM436 130h4l-25 -130h-374v11l296 494h-139c-84 0 -135 -70 -160 -120h-4l25 130h352v-10l-295 -495h159c84 0 136 69 161 120z" />
    <glyph glyph-name="zdotaccent" unicode="&#x17c;" horiz-adv-x="464" 
d="M229 639c-31 0 -54 24 -54 55c0 28 23 53 54 53c28 0 53 -25 53 -53c0 -31 -25 -55 -53 -55zM436 130h4l-25 -130h-374v11l296 494h-139c-84 0 -135 -70 -160 -120h-4l25 130h352v-10l-295 -495h159c84 0 136 69 161 120z" />
    <glyph glyph-name="c.ss01" horiz-adv-x="522" 
d="M293 -7c-148 0 -250 102 -250 267s106 271 250 271c91 0 188 -55 188 -179h-5c-1 107 -97 144 -166 144c-110 0 -186 -100 -186 -238c0 -131 76 -230 184 -230c86 0 170 47 170 144h6c0 -120 -91 -179 -191 -179z" />
    <glyph glyph-name="cacute.ss01" horiz-adv-x="522" 
d="M251 605h-5l56 162h92v-1zM293 -7c-148 0 -250 102 -250 267s106 271 250 271c91 0 188 -55 188 -179h-5c-1 107 -97 144 -166 144c-110 0 -186 -100 -186 -238c0 -131 76 -230 184 -230c86 0 170 47 170 144h6c0 -120 -91 -179 -191 -179z" />
    <glyph glyph-name="ccaron.ss01" horiz-adv-x="522" 
d="M433 768l-140 -163h-16l-143 163v1h5l146 -100l143 100h5v-1zM478 172h6c0 -120 -91 -179 -191 -179c-148 0 -250 102 -250 267s106 271 250 271c91 0 188 -55 188 -179h-5c-1 107 -97 144 -166 144c-110 0 -186 -100 -186 -238c0 -131 76 -230 184 -230
c86 0 170 47 170 144z" />
    <glyph glyph-name="ccedilla.ss01" horiz-adv-x="522" 
d="M293 -7h-1l-11 -43c7 3 16 5 29 5c32 0 70 -22 70 -69c0 -52 -43 -77 -82 -77c-42 0 -65 20 -79 42l5 3c12 -13 29 -20 52 -20c26 0 48 15 48 51c0 29 -16 44 -36 44c-12 0 -18 -2 -25 -5l-3 1l19 68c-140 6 -236 107 -236 267c0 165 106 271 250 271
c91 0 188 -55 188 -179h-5c-1 107 -97 144 -166 144c-110 0 -186 -100 -186 -238c0 -131 76 -230 184 -230c86 0 170 47 170 144h6c0 -120 -91 -179 -191 -179z" />
    <glyph glyph-name="ccircumflex.ss01" horiz-adv-x="522" 
d="M429 605l-143 100l-146 -100h-5v1l143 163h16l140 -163v-1h-5zM478 172h6c0 -120 -91 -179 -191 -179c-148 0 -250 102 -250 267s106 271 250 271c91 0 188 -55 188 -179h-5c-1 107 -97 144 -166 144c-110 0 -186 -100 -186 -238c0 -131 76 -230 184 -230
c86 0 170 47 170 144z" />
    <glyph glyph-name="cdotaccent.ss01" horiz-adv-x="522" 
d="M286 639c-31 0 -55 24 -55 55c0 28 24 53 55 53c28 0 52 -25 52 -53c0 -31 -24 -55 -52 -55zM293 -7c-148 0 -250 102 -250 267s106 271 250 271c91 0 188 -55 188 -179h-5c-1 107 -97 144 -166 144c-110 0 -186 -100 -186 -238c0 -131 76 -230 184 -230
c86 0 170 47 170 144h6c0 -120 -91 -179 -191 -179z" />
    <glyph glyph-name="f.ss01" horiz-adv-x="302" 
d="M232 771c88 0 121 -57 121 -141h-5c0 76 -41 110 -89 110c-75 0 -99 -50 -99 -126v-99h144v-12h-144v-428c0 -34 14 -60 36 -69v-6h-146v6c25 11 35 38 35 69v428h-61v12h61v90c0 95 50 166 147 166z" />
    <glyph glyph-name="j.ss01" horiz-adv-x="236" 
d="M121 638c-31 0 -55 24 -55 55c0 29 24 54 55 54c28 0 53 -25 53 -54c0 -31 -25 -55 -53 -55zM57 -211c-83 0 -100 75 -100 120h5c0 -44 18 -87 71 -87c42 0 55 36 55 103v464c0 45 -18 63 -41 83v4c28 12 47 16 112 44h4v-585c0 -96 -34 -146 -106 -146z" />
    <glyph glyph-name="uni0237.ss01" horiz-adv-x="236" 
d="M57 -211c-83 0 -100 75 -100 120h5c0 -44 18 -87 71 -87c42 0 55 36 55 103v464c0 45 -18 63 -41 83v4c28 12 47 16 112 44h4v-585c0 -96 -34 -146 -106 -146z" />
    <glyph glyph-name="jcircumflex.ss01" horiz-adv-x="236" 
d="M113 776h16l139 -163v-1h-5l-143 100l-145 -100h-5v1zM47 472v4c28 12 47 16 112 44h4v-585c0 -96 -34 -146 -106 -146c-83 0 -100 75 -100 120h5c0 -44 18 -87 71 -87c42 0 55 36 55 103v464c0 45 -18 63 -41 83z" />
    <glyph glyph-name="s.ss01" horiz-adv-x="437" 
d="M218 -7c-114 0 -180 68 -180 159h5c0 -72 67 -126 159 -126c77 0 123 35 123 95c0 140 -273 114 -273 277c0 78 68 133 169 133c100 0 161 -62 161 -152h-6c0 66 -54 119 -135 119c-71 0 -117 -35 -117 -85c0 -114 273 -108 273 -276c0 -88 -69 -144 -179 -144z" />
    <glyph glyph-name="sacute.ss01" horiz-adv-x="437" 
d="M186 612h-5l55 162h93v-1zM218 -7c-114 0 -180 68 -180 159h5c0 -72 67 -126 159 -126c77 0 123 35 123 95c0 140 -273 114 -273 277c0 78 68 133 169 133c100 0 161 -62 161 -152h-6c0 66 -54 119 -135 119c-71 0 -117 -35 -117 -85c0 -114 273 -108 273 -276
c0 -88 -69 -144 -179 -144z" />
    <glyph glyph-name="scaron.ss01" horiz-adv-x="437" 
d="M366 769l-140 -164h-16l-143 164v1h5l146 -101l143 101h5v-1zM124 413c0 -114 273 -108 273 -276c0 -88 -69 -144 -179 -144c-114 0 -180 68 -180 159h5c0 -72 67 -126 159 -126c77 0 123 35 123 95c0 140 -273 114 -273 277c0 78 68 133 169 133c100 0 161 -62 161 -152
h-6c0 66 -54 119 -135 119c-71 0 -117 -35 -117 -85z" />
    <glyph glyph-name="scedilla.ss01" horiz-adv-x="437" 
d="M397 137c0 -85 -64 -140 -167 -144l-12 -43c7 3 16 5 29 5c32 0 70 -22 70 -69c0 -52 -43 -77 -82 -77c-42 0 -65 20 -79 42l5 3c12 -13 29 -20 52 -20c26 0 48 15 48 51c0 29 -16 44 -36 44c-12 0 -18 -2 -25 -5l-3 1l20 68c-113 0 -179 68 -179 159h5
c0 -72 67 -126 159 -126c77 0 123 35 123 95c0 140 -273 114 -273 277c0 78 68 133 169 133c100 0 161 -62 161 -152h-6c0 66 -54 119 -135 119c-71 0 -117 -35 -117 -85c0 -114 273 -108 273 -276z" />
    <glyph glyph-name="scircumflex.ss01" horiz-adv-x="437" 
d="M357 605l-143 101l-146 -101h-5v1l143 164h16l140 -164v-1h-5zM124 413c0 -114 273 -108 273 -276c0 -88 -69 -144 -179 -144c-114 0 -180 68 -180 159h5c0 -72 67 -126 159 -126c77 0 123 35 123 95c0 140 -273 114 -273 277c0 78 68 133 169 133
c100 0 161 -62 161 -152h-6c0 66 -54 119 -135 119c-71 0 -117 -35 -117 -85z" />
    <glyph glyph-name="uni0219.ss01" horiz-adv-x="437" 
d="M218 -7c-114 0 -180 68 -180 159h5c0 -72 67 -126 159 -126c77 0 123 35 123 95c0 140 -273 114 -273 277c0 78 68 133 169 133c100 0 161 -62 161 -152h-6c0 66 -54 119 -135 119c-71 0 -117 -35 -117 -85c0 -114 273 -108 273 -276c0 -88 -69 -144 -179 -144zM180 -243
h-1v9c40 5 74 41 74 79c-7 -2 -12 -3 -20 -3c-27 0 -52 20 -52 49c0 30 22 52 52 52c34 0 54 -26 54 -61c0 -65 -43 -119 -107 -125z" />
    <glyph glyph-name="t.ss01" horiz-adv-x="326" 
d="M309 142h5c0 -60 -17 -149 -110 -149c-79 0 -114 60 -114 147v362h-68v3c50 30 95 62 140 97h3v-87h136v-12h-136v-371c0 -77 32 -106 68 -106c59 0 76 60 76 116z" />
    <glyph glyph-name="tbar.ss01" horiz-adv-x="338" 
d="M315 142h5c0 -60 -17 -149 -110 -149c-79 0 -114 60 -114 147v153h-53v12h53v197h-68v3c50 30 95 62 140 97h3v-87h136v-12h-136v-198h122v-12h-122v-161c0 -77 32 -106 68 -106c59 0 76 60 76 116z" />
    <glyph glyph-name="tcaron.ss01" horiz-adv-x="327" 
d="M262 579h-1v8c36 6 58 40 58 76c-6 -2 -11 -2 -19 -2c-26 0 -49 19 -49 47s21 50 49 50c33 0 52 -25 52 -59c0 -55 -33 -114 -90 -120zM309 142h5c0 -60 -17 -149 -110 -149c-79 0 -114 60 -114 147v362h-68v3c50 30 95 62 140 97h3v-87h136v-12h-136v-371
c0 -77 32 -106 68 -106c59 0 76 60 76 116z" />
    <glyph glyph-name="uni0163.ss01" horiz-adv-x="326" 
d="M216 -45c33 0 70 -22 70 -69c0 -52 -43 -77 -82 -77c-42 0 -65 20 -78 42l4 3c12 -13 29 -20 52 -20c26 0 48 15 48 51c0 29 -16 44 -36 44c-11 0 -18 -2 -25 -5l-3 1l20 69c-66 8 -96 66 -96 146v362h-68v3c50 30 95 62 140 97h3v-87h136v-12h-136v-371
c0 -77 32 -106 68 -106c59 0 76 60 76 116h5c0 -60 -17 -149 -110 -149h-6l-11 -43c7 3 17 5 29 5z" />
    <glyph glyph-name="uni021B.ss01" horiz-adv-x="326" 
d="M309 142h5c0 -60 -17 -149 -110 -149c-79 0 -114 60 -114 147v362h-68v3c50 30 95 62 140 97h3v-87h136v-12h-136v-371c0 -77 32 -106 68 -106c59 0 76 60 76 116zM151 -243h-1v9c39 5 73 41 73 79c-7 -2 -12 -3 -20 -3c-27 0 -51 20 -51 49c0 30 21 52 51 52
c34 0 54 -26 54 -61c0 -65 -43 -119 -106 -125z" />
    <glyph glyph-name="ordfeminine" unicode="&#xaa;" horiz-adv-x="413" 
d="M376 417h2c-10 -34 -28 -50 -56 -50s-54 20 -58 67v2c-32 -40 -76 -69 -130 -69c-52 0 -85 29 -85 73s34 78 112 106l103 37v27c0 43 -16 99 -87 99c-64 0 -106 -55 -106 -98h-4c0 59 43 121 123 121c90 0 124 -58 124 -139v-157c0 -32 10 -43 30 -43c12 0 24 7 32 24z
M158 391c52 0 85 28 106 52v135l-85 -35c-66 -29 -84 -61 -84 -94c0 -34 23 -58 63 -58z" />
    <glyph glyph-name="ordmasculine" unicode="&#xba;" horiz-adv-x="436" 
d="M218 369c-98 0 -174 70 -174 182c0 113 76 183 174 183s174 -70 174 -183c0 -112 -76 -182 -174 -182zM218 380c69 0 121 57 121 171c0 113 -52 171 -121 171s-121 -58 -121 -171c0 -114 51 -171 121 -171z" />
    <glyph glyph-name="zero" unicode="0" horiz-adv-x="710" 
d="M355 -7c-166 0 -305 147 -305 370c0 224 139 371 305 371s305 -147 305 -371c0 -223 -139 -370 -305 -370zM355 7c125 0 217 133 217 357s-92 356 -217 356s-217 -132 -217 -356s92 -357 217 -357z" />
    <glyph glyph-name="one" unicode="1" horiz-adv-x="292" 
d="M240 0h-175v6c25 10 47 46 47 77v521c0 26 -12 45 -44 45h-33v3c51 20 108 50 155 86h3v-655c0 -31 22 -67 47 -77v-6z" />
    <glyph glyph-name="two" unicode="2" horiz-adv-x="537" 
d="M499 140h4l-46 -140h-428v9c200 186 356 367 356 524c0 101 -58 162 -151 162c-138 0 -184 -101 -186 -183h-5c1 107 69 222 210 222c127 0 213 -70 213 -188c0 -177 -203 -335 -370 -486h281c71 0 103 45 122 80z" />
    <glyph glyph-name="three" unicode="3" horiz-adv-x="537" 
d="M293 388c76 -13 193 -68 193 -190c0 -125 -106 -205 -244 -205c-137 0 -202 102 -202 179h5c1 -71 79 -149 183 -149c108 0 172 75 172 176c0 120 -85 180 -202 180h-28v8c149 0 209 66 209 174c0 92 -49 144 -145 144c-93 0 -171 -77 -172 -148h-5c0 76 64 177 203 177
c117 0 204 -64 204 -167c0 -107 -95 -162 -171 -179z" />
    <glyph glyph-name="four" unicode="4" horiz-adv-x="543" 
d="M416 245h102v-15h-102v-147c0 -31 23 -67 48 -77v-6h-175v6c25 10 47 46 47 77v147h-333v14l400 494h13v-493zM336 245v381l-310 -381h310z" />
    <glyph glyph-name="five" unicode="5" horiz-adv-x="558" 
d="M283 432c121 -3 214 -81 214 -220c0 -144 -114 -219 -259 -219c-143 0 -207 98 -207 172h4c1 -70 75 -147 192 -147c114 0 188 67 188 191c0 115 -61 200 -165 200c-77 0 -130 -28 -173 -55l-5 5l72 369h266c70 0 103 28 122 63h4l-45 -123h-341l-54 -290
c37 27 88 55 187 54z" />
    <glyph glyph-name="six" unicode="6" horiz-adv-x="603" 
d="M341 433c115 0 216 -90 216 -209c0 -133 -100 -231 -245 -231c-158 0 -259 127 -259 347c0 228 121 394 288 394c120 0 184 -78 193 -182h-5c-14 90 -78 155 -176 155c-114 0 -217 -114 -217 -364v-31c34 67 117 121 205 121zM309 8c126 0 167 97 167 210
c0 119 -58 194 -151 194c-83 0 -151 -50 -189 -111v-14c0 -187 65 -279 173 -279z" />
    <glyph glyph-name="seven" unicode="7" horiz-adv-x="488" 
d="M13 587h-4l46 141h450v-11c-208 -278 -271 -504 -272 -717h-91c-5 117 132 459 319 668h-326c-73 0 -102 -45 -122 -81z" />
    <glyph glyph-name="eight" unicode="8" horiz-adv-x="589" 
d="M356 393l29 -15c104 -62 152 -120 152 -196c0 -119 -114 -189 -249 -189c-148 0 -241 75 -241 180c0 93 82 158 194 199l-29 16c-93 51 -131 109 -131 176c0 95 96 170 224 170c135 0 215 -74 216 -161c1 -89 -85 -148 -165 -180zM149 589c0 -55 26 -96 103 -139l95 -51
c74 35 108 86 108 167c0 92 -50 153 -154 153c-92 0 -152 -52 -152 -130zM291 8c104 0 175 51 175 153c0 56 -25 102 -120 153l-97 54c-101 -45 -136 -97 -136 -189c0 -99 65 -171 178 -171z" />
    <glyph glyph-name="nine" unicode="9" horiz-adv-x="603" 
d="M291 734c158 0 259 -127 259 -347c0 -228 -121 -394 -289 -394c-120 0 -184 78 -192 182h5c14 -90 71 -155 175 -155c115 0 218 114 218 362v31c-34 -67 -117 -121 -205 -121c-115 0 -216 90 -216 211c0 133 100 231 245 231zM278 313c83 0 151 50 189 111v16
c0 187 -66 279 -173 279c-126 0 -168 -97 -168 -210c0 -121 59 -196 152 -196z" />
    <glyph glyph-name="uni2070" unicode="&#x2070;" horiz-adv-x="476" 
d="M238 333c-111 0 -197 94 -197 201c0 108 86 201 197 201c110 0 197 -93 197 -201c0 -107 -87 -201 -197 -201zM238 348c83 0 136 81 136 188c0 105 -53 185 -136 185c-84 0 -137 -81 -137 -185c0 -107 53 -188 137 -188z" />
    <glyph glyph-name="uni00B9" unicode="&#xb9;" horiz-adv-x="230" 
d="M175 315h-107v3c13 5 25 26 25 43v256c0 29 -13 43 -50 43v4c29 13 66 36 105 67h2v-370c0 -17 12 -38 25 -43v-3z" />
    <glyph glyph-name="uni00B2" unicode="&#xb2;" horiz-adv-x="395" 
d="M345 405h2l-29 -90h-262v5c118 113 205 201 205 290c0 57 -32 94 -87 94c-76 0 -104 -54 -107 -104h-3c1 67 45 137 132 137c79 0 130 -44 130 -114c0 -100 -123 -179 -221 -262h164c37 0 61 20 76 44z" />
    <glyph glyph-name="uni00B3" unicode="&#xb3;" horiz-adv-x="356" 
d="M202 536c39 -8 101 -38 101 -111c0 -71 -53 -121 -132 -121c-58 0 -100 41 -119 84l4 2c16 -34 50 -64 95 -64c58 0 97 44 97 101c1 76 -57 104 -114 104h-12v4c78 1 121 39 121 98c0 52 -36 85 -84 85c-55 0 -99 -48 -101 -91h-2c0 50 41 111 123 111
c74 0 117 -43 117 -100c0 -64 -52 -93 -94 -102z" />
    <glyph glyph-name="fraction" unicode="&#x2044;" horiz-adv-x="466" 
d="M1 0h-23l486 724h24z" />
    <glyph glyph-name="onehalf" unicode="&#xbd;" horiz-adv-x="670" 
d="M120 362v255c0 29 -14 44 -50 44v3c28 14 66 36 104 68h3v-370c0 -17 12 -38 25 -43v-4h-107v4c13 5 25 26 25 43zM51 0l486 724h24l-487 -724h-23zM629 90h2l-29 -90h-262v5c118 114 206 201 206 290c0 57 -32 94 -87 94c-77 0 -105 -54 -108 -104h-3
c1 67 45 137 132 137c79 0 130 -44 130 -113c0 -101 -124 -180 -220 -263h164c36 0 61 20 75 44z" />
    <glyph glyph-name="uni2153" unicode="&#x2153;" horiz-adv-x="670" 
d="M132 361v256c0 29 -13 43 -50 43v4c29 13 66 36 105 67h2v-370c0 -17 12 -38 25 -43v-3h-107v3c13 5 25 26 25 43zM40 0l486 724h24l-486 -724h-24zM519 224c39 -9 100 -38 100 -111c0 -71 -53 -121 -132 -121c-58 0 -99 41 -119 84l4 2c17 -34 50 -64 96 -64
c57 0 96 44 97 101c0 76 -57 104 -115 104h-12v4c78 1 122 39 122 98c0 52 -37 85 -85 85c-54 0 -99 -48 -100 -91h-3c0 50 41 111 124 111c73 0 116 -43 116 -100c0 -64 -51 -93 -93 -102z" />
    <glyph glyph-name="onequarter" unicode="&#xbc;" horiz-adv-x="662" 
d="M97 361v256c0 29 -14 43 -50 43v4c28 13 66 36 104 67h2v-370c0 -17 12 -38 26 -43v-3h-108v3c13 5 26 26 26 43zM57 0l486 724h24l-487 -724h-23zM628 154v-12h-60v-91c0 -19 15 -41 30 -47v-4h-113v4c16 6 30 28 30 47v91l-209 1v8l251 302h11v-299h60zM514 381
l-188 -227h189z" />
    <glyph glyph-name="threequarters" unicode="&#xbe;" horiz-adv-x="721" 
d="M291 423c0 -70 -53 -120 -129 -120c-54 0 -98 35 -123 76l4 3c20 -31 49 -57 96 -57c59 0 97 45 97 102c0 75 -56 103 -113 103h-13v4c79 1 122 39 122 98c0 52 -36 85 -84 85c-58 0 -102 -48 -104 -91h-2c0 50 41 111 125 111c75 0 118 -44 118 -100
c-1 -63 -52 -92 -94 -102c39 -8 100 -36 100 -112zM133 0l486 724h24l-487 -724h-23zM686 154v-12h-60v-91c0 -19 15 -41 30 -47v-4h-113v4c16 6 29 28 29 47v91l-208 1v8l250 302h12v-299h60zM572 381l-188 -227h188v227z" />
    <glyph glyph-name="period" unicode="." horiz-adv-x="230" 
d="M115 -12c-34 0 -62 30 -62 62c0 33 28 61 62 61s61 -28 61 -61c0 -35 -27 -62 -61 -62z" />
    <glyph glyph-name="comma" unicode="," horiz-adv-x="239" 
d="M118 123c36 0 64 -28 64 -78c0 -62 -44 -143 -129 -168l-3 8v1c46 16 88 64 89 118c-6 -1 -13 -2 -22 -2c-34 0 -61 23 -61 58s27 63 62 63z" />
    <glyph glyph-name="colon" unicode=":" horiz-adv-x="253" 
d="M127 234c-34 0 -62 29 -62 62s28 61 62 61c33 0 61 -28 61 -61c0 -35 -28 -62 -61 -62zM127 -9c-34 0 -62 30 -62 62c0 34 28 61 62 61c33 0 61 -27 61 -61s-28 -62 -61 -62z" />
    <glyph glyph-name="semicolon" unicode=";" horiz-adv-x="264" 
d="M133 234c-34 0 -62 30 -62 62c0 33 28 61 62 61s61 -28 61 -61c0 -35 -27 -62 -61 -62zM133 115c36 0 63 -28 63 -78c0 -62 -43 -143 -128 -168l-4 8v1c47 16 88 64 89 118c-5 -1 -12 -2 -21 -2c-35 0 -61 23 -61 58s26 63 62 63z" />
    <glyph glyph-name="ellipsis" unicode="&#x2026;" horiz-adv-x="642" 
d="M115 -7c-34 0 -62 30 -62 62c0 33 28 61 62 61s61 -28 61 -61c0 -35 -27 -62 -61 -62zM321 -7c-34 0 -62 30 -62 62c0 33 28 61 62 61c33 0 61 -28 61 -61c0 -35 -28 -62 -61 -62zM527 -7c-35 0 -62 30 -62 62c0 33 27 61 62 61c33 0 61 -28 61 -61
c0 -35 -28 -62 -61 -62z" />
    <glyph glyph-name="exclam" unicode="!" horiz-adv-x="246" 
d="M128 147h-10l-37 525c-4 35 9 62 44 62c36 0 46 -27 42 -62zM123 -34c-37 0 -67 32 -67 68c0 37 30 66 67 66s67 -29 67 -66c0 -38 -30 -68 -67 -68z" />
    <glyph glyph-name="exclamdown" unicode="&#xa1;" horiz-adv-x="235" 
d="M117 378c-37 0 -67 28 -67 62c0 32 30 63 67 63s67 -28 67 -63c0 -34 -30 -62 -67 -62zM119 -201c-35 0 -47 26 -42 61l35 468h10l37 -468c5 -35 -5 -61 -40 -61z" />
    <glyph glyph-name="question" unicode="?" horiz-adv-x="488" 
d="M223 151h-11v29c0 164 147 195 147 353c0 111 -69 159 -147 159c-94 0 -173 -70 -173 -157h-9c3 99 86 199 219 199c117 0 204 -76 204 -184c0 -181 -230 -208 -230 -370v-29zM218 -30c-37 0 -66 31 -66 65c0 36 29 65 66 65c35 0 65 -29 65 -65s-30 -65 -65 -65z" />
    <glyph glyph-name="questiondown" unicode="&#xbf;" horiz-adv-x="479" 
d="M264 373c-36 0 -65 27 -65 61s29 61 65 61c37 0 66 -29 66 -61c0 -34 -29 -61 -66 -61zM233 -201c-117 0 -201 69 -201 166c0 165 227 188 227 331v27h11v-27c0 -145 -147 -174 -147 -314c0 -97 69 -141 147 -141c92 0 173 59 173 139h9c-3 -88 -86 -181 -219 -181z" />
    <glyph glyph-name="periodcentered" unicode="&#xb7;" horiz-adv-x="247" 
d="M124 274c-35 0 -62 30 -62 62c0 33 27 61 62 61c33 0 61 -28 61 -61c0 -35 -28 -62 -61 -62z" />
    <glyph glyph-name="bullet" unicode="&#x2022;" horiz-adv-x="359" 
d="M180 259c-50 0 -90 38 -90 86c0 47 40 86 90 86c49 0 89 -39 89 -86c0 -48 -40 -86 -89 -86z" />
    <glyph glyph-name="asterisk" unicode="*" horiz-adv-x="449" 
d="M362 527c16 -6 25 -17 25 -32c0 -20 -15 -33 -33 -33c-28 0 -64 52 -125 95c16 -80 30 -105 30 -123c0 -22 -11 -38 -35 -38c-21 0 -34 17 -34 39c0 20 13 48 28 122c-60 -43 -96 -95 -123 -95c-19 0 -34 13 -34 33c0 15 10 26 25 32c17 7 46 7 132 38
c-86 24 -118 24 -134 32c-14 7 -23 17 -23 32c0 20 15 33 33 33c29 0 65 -49 126 -90c-16 81 -30 110 -30 131c0 22 13 39 34 39c24 0 35 -17 35 -38c0 -20 -16 -46 -31 -132c62 41 98 90 127 90c18 0 33 -13 33 -33c0 -15 -9 -25 -23 -32c-17 -8 -49 -8 -136 -32
c86 -25 117 -31 133 -38z" />
    <glyph glyph-name="numbersign" unicode="#" horiz-adv-x="747" 
d="M712 518v-20h-138l-85 -230h189v-20h-196l-92 -248h-22l92 248h-255l-92 -248h-21l92 248h-146v20h153l85 230h-204v20h212l76 206h22l-77 -206h255l76 206h22l-76 -206h130zM213 268h254l85 230h-254z" />
    <glyph glyph-name="slash" unicode="/" horiz-adv-x="552" 
d="M45 0h-24l486 724h25z" />
    <glyph glyph-name="backslash" unicode="\" horiz-adv-x="554" 
d="M533 0h-25l-487 724h25z" />
    <glyph glyph-name="parenleft" unicode="(" horiz-adv-x="288" 
d="M280 -45l-4 -5c-125 91 -230 223 -231 421c0 241 161 363 231 409l3 -5c-112 -86 -157 -274 -157 -404c0 -169 49 -320 158 -416z" />
    <glyph glyph-name="parenright" unicode=")" horiz-adv-x="288" 
d="M11 -50l-3 5c108 96 157 247 157 416c0 130 -44 318 -156 404l3 5c70 -46 231 -168 231 -409c0 -198 -106 -330 -232 -421z" />
    <glyph glyph-name="braceleft" unicode="{" horiz-adv-x="302" 
d="M172 75c0 -27 20 -133 99 -148l-1 -10c-85 22 -165 73 -165 184c0 51 22 103 22 136c0 53 -89 112 -122 112v12c47 0 123 39 123 99c0 38 -22 79 -22 125c0 110 75 161 183 183l1 -10c-83 -17 -115 -116 -116 -155c-1 -55 22 -89 22 -133c0 -59 -44 -90 -128 -119
c79 -31 128 -64 127 -124c0 -47 -23 -75 -23 -152z" />
    <glyph glyph-name="braceright" unicode="}" horiz-adv-x="302" 
d="M174 460c0 -60 76 -99 123 -99v-12c-34 0 -122 -59 -122 -112c0 -33 21 -85 21 -136c0 -111 -79 -162 -164 -184l-1 10c79 15 99 121 99 148c0 77 -24 105 -24 152c0 60 48 93 127 124c-84 29 -128 60 -128 119c0 44 23 78 23 133c0 39 -34 138 -117 155l1 10
c109 -22 183 -73 183 -183c0 -46 -21 -87 -21 -125z" />
    <glyph glyph-name="bracketleft" unicode="[" horiz-adv-x="329" 
d="M321 -75h-233v850l233 -1v-12h-160v-825h160v-12z" />
    <glyph glyph-name="bracketright" unicode="]" horiz-adv-x="329" 
d="M241 -75h-233v12h161v825h-161v12l233 1v-850z" />
    <glyph glyph-name="hyphen" unicode="-" horiz-adv-x="417" 
d="M380 339h-343v20h343v-20z" />
    <glyph glyph-name="endash" unicode="&#x2013;" horiz-adv-x="517" 
d="M480 338h-443v20h443v-20z" />
    <glyph glyph-name="emdash" unicode="&#x2014;" horiz-adv-x="762" 
d="M725 338h-688v20h688v-20z" />
    <glyph glyph-name="underscore" unicode="_" horiz-adv-x="411" 
d="M411 -36h-411v22h411v-22z" />
    <glyph glyph-name="quotesinglbase" unicode="&#x201a;" horiz-adv-x="239" 
d="M118 123c36 0 64 -28 64 -78c0 -62 -44 -143 -129 -168l-3 8v1c46 16 88 64 89 118c-6 -1 -13 -2 -22 -2c-34 0 -61 23 -61 58s27 63 62 63z" />
    <glyph glyph-name="quotedblbase" unicode="&#x201e;" horiz-adv-x="437" 
d="M118 123c36 0 64 -28 64 -78c0 -62 -44 -143 -129 -168l-3 8v1c46 16 88 64 89 118c-6 -1 -13 -2 -22 -2c-34 0 -61 23 -61 58s27 63 62 63zM316 123c36 0 63 -28 63 -78c0 -62 -43 -143 -128 -168l-3 8v1c46 16 87 64 88 118c-5 -1 -12 -2 -21 -2c-35 0 -61 23 -61 58
s26 63 62 63z" />
    <glyph glyph-name="quotedblleft" unicode="&#x201c;" horiz-adv-x="405" 
d="M110 518c-36 0 -64 27 -64 78c0 62 44 143 129 168l3 -8v-1c-46 -16 -88 -64 -89 -118c6 1 13 2 22 2c34 0 61 -23 61 -58s-27 -63 -62 -63zM292 518c-36 0 -63 27 -63 78c0 62 43 143 128 168l4 -8v-1c-47 -16 -88 -64 -89 -118c5 1 12 2 21 2c35 0 61 -23 61 -58
s-26 -63 -62 -63z" />
    <glyph glyph-name="quotedblright" unicode="&#x201d;" horiz-adv-x="420" 
d="M122 801c36 0 64 -28 64 -79c0 -62 -43 -142 -128 -167l-4 8v1c47 16 88 64 89 118c-6 -1 -13 -3 -21 -3c-35 0 -61 24 -61 58c0 36 26 64 61 64zM319 801c36 0 63 -28 63 -79c0 -62 -43 -142 -128 -167l-3 8v1c46 16 87 64 88 118c-5 -1 -12 -3 -21 -3
c-35 0 -61 24 -61 58c0 36 26 64 62 64z" />
    <glyph glyph-name="quoteleft" unicode="&#x2018;" horiz-adv-x="223" 
d="M110 518c-36 0 -64 27 -64 78c0 62 44 143 129 168l3 -8v-1c-46 -16 -88 -64 -89 -118c6 1 13 2 22 2c34 0 61 -23 61 -58s-27 -63 -62 -63z" />
    <glyph glyph-name="quoteright" unicode="&#x2019;" horiz-adv-x="223" 
d="M122 801c36 0 64 -28 64 -79c0 -62 -43 -142 -128 -167l-4 8v1c47 16 88 64 89 118c-6 -1 -13 -3 -21 -3c-35 0 -61 24 -61 58c0 36 26 64 61 64z" />
    <glyph glyph-name="guillemotleft" unicode="&#xab;" horiz-adv-x="581" 
d="M287 153v-21l-242 160v25l242 161v-21l-216 -152zM514 153v-21l-243 160v25l243 161v-21l-217 -152z" />
    <glyph glyph-name="guillemotright" unicode="&#xbb;" horiz-adv-x="581" 
d="M68 457v21l242 -161v-25l-242 -160v21l216 152zM294 457v21l242 -161v-25l-242 -160v21l217 152z" />
    <glyph glyph-name="guilsinglleft" unicode="&#x2039;" horiz-adv-x="355" 
d="M45 291v25l242 161v-20l-216 -153l216 -152v-21z" />
    <glyph glyph-name="guilsinglright" unicode="&#x203a;" horiz-adv-x="355" 
d="M284 305l-216 152v21l242 -161v-25l-242 -160v21z" />
    <glyph glyph-name="quotedbl" unicode="&#x22;" horiz-adv-x="305" 
d="M82 596h-5l-36 226h82zM226 596h-5l-36 226h81z" />
    <glyph glyph-name="quotesingle" unicode="'" horiz-adv-x="161" 
d="M82 596h-5l-36 226h81z" />
    <glyph glyph-name="uni00A0" unicode="&#xa0;" horiz-adv-x="248" 
 />
    <glyph glyph-name="cent" unicode="&#xa2;" horiz-adv-x="563" 
d="M503 249h5c-10 -123 -87 -172 -172 -179v-63h-15v62h-8c-146 0 -253 106 -253 268c0 163 107 269 253 269h6v43h16v-44c83 -7 160 -56 170 -179h-5c-12 113 -96 145 -165 148l1 -473c71 3 155 35 167 148zM145 336c0 -131 73 -232 176 -235l-2 473
c-101 -4 -174 -105 -174 -238z" />
    <glyph glyph-name="currency" unicode="&#xa4;" horiz-adv-x="529" 
d="M458 320c0 -51 -18 -98 -49 -133l45 -44l-12 -13l-44 45c-33 -33 -79 -53 -133 -53c-55 0 -101 20 -135 53l-42 -42l-12 12l43 43c-31 35 -48 82 -48 132c0 49 16 94 45 128l-40 40l12 13l39 -40c34 34 82 55 138 55c55 0 102 -21 136 -54l41 41l12 -12l-42 -42
c29 -34 46 -80 46 -129zM265 140c108 0 161 92 161 179s-53 179 -161 179c-109 0 -162 -92 -162 -179s53 -179 162 -179z" />
    <glyph glyph-name="dollar" unicode="$" horiz-adv-x="549" 
d="M500 183c0 -113 -85 -184 -221 -190v-70h-15v70h-3c-90 0 -204 40 -216 176h5c17 -128 137 -152 210 -152h4v317c-101 51 -211 97 -211 216c0 107 85 177 211 183v63h15v-62h5c85 0 199 -40 212 -176h-5c-17 128 -137 154 -206 154h-6v-295c104 -50 221 -101 221 -234z
M121 580c0 -78 66 -118 143 -156v287c-89 -7 -143 -58 -143 -131zM279 327v-309c95 5 151 52 151 132c0 91 -71 136 -151 177z" />
    <glyph glyph-name="Euro" unicode="&#x20ac;" horiz-adv-x="674" 
d="M440 20c60 0 146 21 165 149h5c-15 -136 -95 -176 -182 -176c-137 0 -264 105 -271 349h-117l2 14h115v8c0 26 1 50 4 73h-90l3 14h88c27 197 143 283 274 283c79 0 161 -40 174 -176h-5c-17 128 -105 149 -165 149c-99 0 -173 -76 -189 -256h173l-2 -13h-173
c-1 -23 -2 -48 -2 -74v-8h146l-3 -14h-143c6 -220 83 -322 193 -322z" />
    <glyph glyph-name="sterling" unicode="&#xa3;" horiz-adv-x="579" 
d="M535 169h6c0 -110 -48 -176 -138 -176c-69 0 -118 39 -159 78c-25 -46 -64 -78 -118 -78c-52 0 -92 35 -92 83c0 47 41 85 96 85c32 0 60 -10 86 -24v12c0 69 -27 129 -54 194h-73v16h67c-23 58 -44 120 -44 196c0 107 75 179 201 179c98 0 181 -40 192 -176h-5
c-15 128 -103 152 -175 152c-81 0 -139 -52 -139 -154c0 -68 28 -133 53 -196h150v-16h-144c17 -45 31 -88 31 -131c0 -35 -5 -70 -16 -102c43 -26 87 -52 148 -52c59 0 126 45 127 110zM125 7c45 0 75 43 86 95c-27 25 -53 45 -83 45c-44 0 -64 -35 -64 -69
c0 -38 21 -71 61 -71z" />
    <glyph glyph-name="yen" unicode="&#xa5;" horiz-adv-x="651" 
d="M491 722v6h137v-6c-41 -13 -72 -54 -88 -86l-174 -345h133v-15h-138v-76h138v-16h-138v-111c0 -29 13 -57 38 -67v-6h-160v6c25 10 37 38 37 67v111h-135v16h135v76h-135v15h128l-169 342c-13 25 -31 69 -74 89v6h165v-6c-35 -14 -33 -33 -9 -80l171 -340l171 338
c16 32 16 61 -33 82z" />
    <glyph glyph-name="plus" unicode="+" horiz-adv-x="419" 
d="M216 312h153v-16h-153v-162h-20v162h-146v16h146v141h20v-141z" />
    <glyph glyph-name="minus" unicode="&#x2212;" horiz-adv-x="419" 
d="M369 298h-319v16h319v-16z" />
    <glyph glyph-name="multiply" unicode="&#xd7;" horiz-adv-x="383" 
d="M302 425l13 -12l-112 -117l112 -117l-13 -12l-111 116l-111 -116l-12 12l111 117l-111 117l12 12l111 -116z" />
    <glyph glyph-name="divide" unicode="&#xf7;" horiz-adv-x="449" 
d="M220 354c-32 0 -58 28 -58 58c0 31 26 57 58 57c31 0 57 -26 57 -57c0 -32 -26 -58 -57 -58zM384 245h-319v16h319v-16zM221 24c-32 0 -58 28 -58 58c0 31 26 56 58 56c31 0 56 -25 56 -56c0 -32 -25 -58 -56 -58z" />
    <glyph glyph-name="equal" unicode="=" horiz-adv-x="460" 
d="M389 322h-319v16h319v-16zM389 232h-319v16h319v-16z" />
    <glyph glyph-name="notequal" unicode="&#x2260;" horiz-adv-x="460" 
d="M389 338v-16h-125l-39 -74h164v-16h-172l-54 -103h-21l55 103h-126v16h134l39 74h-173v16h182l55 104h19l-54 -104h116z" />
    <glyph glyph-name="greater" unicode="&#x3e;" horiz-adv-x="432" 
d="M351 276l-271 131v19l298 -140v-19l-298 -141v20z" />
    <glyph glyph-name="less" unicode="&#x3c;" horiz-adv-x="432" 
d="M54 267v19l298 140v-19l-271 -131l271 -130v-20z" />
    <glyph glyph-name="plusminus" unicode="&#xb1;" horiz-adv-x="461" 
d="M235 146h-20v162h-145v16h145v141h20v-141h153v-16h-153v-162zM71 80v16h319v-16h-319z" />
    <glyph glyph-name="approxequal" unicode="&#x2248;" horiz-adv-x="494" 
d="M75 267h-5c0 39 24 95 95 95c75 0 122 -54 181 -54c38 0 72 44 72 75h5c0 -46 -24 -92 -80 -92c-66 0 -109 54 -182 54c-50 0 -82 -38 -86 -78zM75 117h-5c0 39 24 95 95 95c75 0 122 -54 181 -54c38 0 72 44 72 75h5c0 -46 -24 -92 -80 -92c-66 0 -109 54 -182 54
c-50 0 -82 -38 -86 -78z" />
    <glyph glyph-name="asciitilde" unicode="~" horiz-adv-x="490" 
d="M75 273h-5c0 39 24 95 95 95c74 0 122 -54 180 -54c39 0 73 44 73 75h5c0 -46 -24 -92 -81 -92c-65 0 -108 54 -181 54c-50 0 -82 -38 -86 -78z" />
    <glyph glyph-name="asciicircum" unicode="^" horiz-adv-x="361" 
d="M170 742h21l118 -183h-17l-111 151l-111 -151h-18z" />
    <glyph glyph-name="percent" unicode="%" horiz-adv-x="925" 
d="M229 333c-111 0 -196 94 -197 201c-1 108 86 201 197 201c110 0 196 -93 197 -201c0 -107 -87 -201 -197 -201zM227 0h-24l486 724h24zM229 348c83 0 136 81 136 188c0 105 -53 185 -136 185c-84 0 -137 -81 -137 -185c0 -107 53 -188 137 -188zM696 -7
c-111 0 -196 93 -197 201c-1 107 86 200 197 200c110 0 196 -93 196 -200c1 -108 -86 -201 -196 -201zM696 7c83 0 136 82 136 188c0 105 -53 185 -136 185c-84 0 -137 -81 -137 -185c0 -106 53 -188 137 -188z" />
    <glyph glyph-name="perthousand" unicode="&#x2030;" horiz-adv-x="1323" 
d="M230 333c-111 0 -196 94 -197 201c-1 108 86 201 197 201c110 0 196 -93 197 -201c0 -107 -87 -201 -197 -201zM199 0h-24l486 724h24zM230 348c83 0 136 81 136 188c0 105 -53 185 -136 185c-85 0 -137 -81 -137 -185c0 -107 52 -188 137 -188zM643 -7
c-111 0 -197 93 -197 201c-1 107 86 200 197 200c110 0 195 -93 196 -200c1 -108 -86 -201 -196 -201zM1094 -7c-111 0 -196 93 -197 201c-1 107 86 200 197 200c110 0 196 -93 197 -200c0 -108 -87 -201 -197 -201zM643 7c83 0 136 82 136 188c0 105 -53 185 -137 185
s-136 -81 -136 -185c0 -106 52 -188 137 -188zM1094 7c83 0 136 82 136 188c0 105 -53 185 -136 185c-84 0 -137 -81 -137 -185c0 -106 53 -188 137 -188z" />
    <glyph glyph-name="uniF8FF" unicode="&#xf8ff;" horiz-adv-x="2307" 
d="M561 199c-62 0 -87 25 -87 83v228h99c0 -40 -29 -85 -67 -102l1 -4s28 17 58 17h51v-79h-42v-48c0 -12 7 -17 18 -17c10 0 18 3 24 7v-75c-12 -7 -31 -10 -55 -10zM735 204h-99v306h98c0 -44 -35 -84 -79 -94l2 -3s41 8 70 8h8v-217zM1371 199c-62 0 -88 25 -88 83v228
h99c0 -40 -28 -85 -67 -102l2 -4s28 17 58 17h50v-79h-42v-48c0 -12 7 -17 18 -17c10 0 18 3 24 7v-75c-12 -7 -31 -10 -54 -10zM199 204h-99v305h99v-305zM285 199c-43 0 -70 25 -70 61c0 38 27 66 74 66c34 0 54 -9 66 -21h2v35c0 15 -8 25 -23 25s-23 -9 -23 -29l-90 14
c11 49 50 78 122 78s114 -35 114 -90v-134h-98v22h-3c-7 -10 -30 -27 -71 -27zM855 204h-99v217h97v-65h3c6 50 32 70 71 70c45 0 73 -30 73 -88v-134h-100v129c0 19 -7 27 -19 27c-15 0 -19 -8 -26 -32v-124zM1141 199c-82 0 -126 47 -126 113s46 114 126 114
c81 0 126 -48 126 -114c0 -65 -44 -113 -126 -113zM1791 132h-100v289h99v-65h3c6 40 27 70 73 70c51 0 83 -34 83 -114s-42 -113 -86 -113c-33 0 -57 13 -69 43h-3v-110zM2087 199c-80 0 -124 47 -124 113s48 114 127 114c71 0 117 -49 117 -109v-9h-150
c0 -24 12 -46 34 -46c21 0 28 16 30 34l82 -8c-12 -66 -63 -89 -116 -89zM1511 128h-39v66h65c42 0 60 4 67 12l-1 3h-68c-28 0 -44 13 -52 39l-54 173h100c9 -54 24 -119 28 -173h2c6 54 19 119 30 173h99l-71 -207c-20 -56 -55 -86 -106 -86zM2057 320h6c42 0 55 8 55 24
c0 13 -7 22 -24 22c-22 0 -37 -18 -37 -46zM1825 247c20 0 30 16 30 57s-6 61 -27 61c-15 0 -25 -12 -30 -33v-72c8 -10 17 -13 27 -13zM1141 261c17 0 29 14 29 51c0 38 -12 52 -29 52c-18 0 -28 -14 -28 -52c0 -37 11 -51 28 -51zM335 229c10 0 18 5 22 11v51
c-3 5 -10 8 -19 8c-16 0 -27 -13 -27 -35s6 -35 24 -35z" />
    <glyph glyph-name="at" unicode="@" horiz-adv-x="818" 
d="M729 24h1l4 -3c-44 -54 -122 -177 -317 -177c-222 0 -372 167 -372 373c0 248 167 404 377 404c199 0 353 -132 353 -336c0 -157 -121 -237 -216 -237c-40 0 -75 10 -114 48c-37 -29 -66 -48 -107 -48c-90 0 -122 60 -122 134c0 134 115 248 213 248c52 0 82 -36 98 -65
l11 34c19 0 30 1 47 9h3l-91 -279c-11 -35 20 -61 72 -61c78 0 170 77 170 218c0 182 -148 322 -315 323c-186 0 -343 -161 -343 -385c0 -194 138 -368 336 -368c171 0 255 98 312 168zM281 231c-20 -96 12 -168 71 -168c29 0 64 16 88 48l80 244c-9 25 -36 62 -83 62
c-71 0 -135 -91 -156 -186z" />
    <glyph glyph-name="ampersand" unicode="&#x26;" horiz-adv-x="758" 
d="M566 128l34 -36c38 -40 82 -79 132 -86v-6h-146l-69 73c-59 -52 -137 -80 -241 -80c-127 0 -233 58 -233 185c0 96 53 155 185 199c-58 59 -105 115 -105 182c0 119 88 178 202 178c122 0 191 -53 191 -146c0 -91 -100 -164 -200 -199c12 -11 23 -23 35 -35l205 -218
c39 51 62 113 62 179c0 36 -34 74 -72 73v7h180v-7c-32 0 -59 -28 -72 -71c-23 -77 -51 -141 -88 -192zM325 723c-79 0 -128 -55 -128 -138c0 -72 49 -122 106 -179c95 33 150 109 150 191c0 84 -47 126 -128 126zM301 11c76 0 148 28 204 75l-212 226l-50 50
c-101 -44 -118 -100 -118 -175c0 -103 68 -176 176 -176z" />
    <glyph glyph-name="paragraph" unicode="&#xb6;" horiz-adv-x="683" 
d="M303 724h339v-16h-88v-787h-20v787h-122v-787h-20v311l-89 1c-139 1 -257 78 -257 245c0 169 111 246 257 246z" />
    <glyph glyph-name="section" unicode="&#xa7;" horiz-adv-x="479" 
d="M315 160c55 -30 94 -69 94 -138c0 -85 -75 -143 -178 -143c-104 0 -162 64 -162 148h5c5 -73 62 -123 150 -123c73 0 134 36 134 97c0 67 -61 94 -142 128c-88 37 -164 81 -164 179c0 75 46 124 113 144c-56 31 -94 70 -94 139c0 85 75 142 178 142
c104 0 162 -64 163 -148h-6c-4 74 -62 123 -150 123c-73 0 -134 -35 -134 -96c0 -65 58 -94 137 -126c89 -37 169 -81 169 -181c0 -75 -46 -125 -113 -145zM96 334c0 -72 60 -103 143 -139c23 -9 44 -19 64 -29c49 18 82 60 82 112c0 75 -65 106 -152 143
c-20 8 -39 16 -57 25c-48 -18 -80 -60 -80 -112z" />
    <glyph glyph-name="copyright" unicode="&#xa9;" horiz-adv-x="808" 
d="M404 -4c-205 0 -345 148 -344 347c1 198 140 347 344 347c205 0 343 -149 344 -347c1 -199 -139 -347 -344 -347zM403 23c176 0 312 134 313 320c1 185 -133 320 -312 320c-180 0 -312 -137 -312 -318c0 -176 127 -322 311 -322zM406 158c-97 0 -168 70 -168 182
c0 105 69 185 177 185c53 0 89 -24 110 -40l-23 -56h-2c-8 20 -34 84 -89 84c-74 0 -114 -77 -113 -160c0 -96 47 -159 129 -159c43 0 78 10 102 44l2 -3c-17 -41 -66 -77 -125 -77z" />
    <glyph glyph-name="registered" unicode="&#xae;" horiz-adv-x="808" 
d="M748 343c1 -199 -139 -347 -344 -347s-345 148 -344 347c1 198 140 347 344 347c205 0 343 -149 344 -347zM716 343c1 185 -133 320 -312 320c-180 0 -312 -137 -312 -318c0 -176 127 -322 311 -322c176 0 312 134 313 320zM448 347l66 -121c10 -17 24 -43 44 -53v-5h-78
v5c13 7 5 22 -7 44l-66 122c-9 -1 -19 -2 -29 -2h-44v-132c0 -15 9 -28 18 -32v-5h-80v5c12 5 18 17 18 32v287c0 18 -6 28 -18 32v5h107c78 0 152 -7 152 -93c0 -44 -35 -75 -83 -89zM334 348h42c64 0 108 26 108 89c0 74 -45 81 -108 81h-42v-170z" />
    <glyph glyph-name="trademark" unicode="&#x2122;" horiz-adv-x="795" 
d="M45 728h283l12 -67h-2c-12 29 -38 56 -81 56h-50v-303c0 -14 6 -26 20 -32v-4h-84v4c13 6 19 18 19 32v303h-46c-42 0 -70 -27 -83 -56h-1zM412 728l129 -292l134 292h49v-4c-12 -6 -18 -18 -18 -32v-278c0 -14 7 -26 19 -32v-4h-82v4c12 6 18 18 18 32v256l-131 -291h-6
l-139 308v-271c0 -13 7 -25 20 -34v-4h-54v4c14 10 21 21 21 34v276c0 14 -7 26 -19 32v4h59z" />
    <glyph glyph-name="degree" unicode="&#xb0;" horiz-adv-x="338" 
d="M169 511c-67 0 -127 51 -127 128s60 127 127 127s127 -50 127 -127s-60 -128 -127 -128zM169 530c65 0 106 48 106 110c0 63 -41 107 -106 107s-106 -44 -106 -107c0 -62 41 -110 106 -110z" />
    <glyph glyph-name="bar" unicode="|" horiz-adv-x="202" 
d="M113 -169h-24v978h24v-978z" />
    <glyph glyph-name="brokenbar" unicode="&#xa6;" horiz-adv-x="202" 
d="M113 380h-24v429h24v-429zM113 -169h-24v427h24v-427z" />
    <glyph glyph-name="dagger" unicode="&#x2020;" horiz-adv-x="509" 
d="M441 526c22 0 42 -13 42 -37s-20 -36 -41 -36c-48 0 -119 23 -183 33c0 -55 26 -113 22 -194l-23 -463h-9l-32 461c-4 78 31 143 28 195c-61 -10 -131 -32 -178 -32c-21 0 -41 12 -41 36s20 37 42 37c46 0 111 -18 176 -30c-6 87 -36 200 -36 242c0 25 15 49 44 49
c28 0 40 -22 40 -48c0 -44 -31 -154 -33 -244c68 12 135 31 182 31z" />
    <glyph glyph-name="daggerdbl" unicode="&#x2021;" horiz-adv-x="546" 
d="M458 132c22 0 43 -13 43 -37s-21 -36 -42 -36c-48 0 -121 24 -185 33c0 -95 35 -202 35 -247c0 -26 -11 -48 -40 -48c-28 0 -44 24 -44 49c0 43 40 158 41 246c-60 -8 -132 -33 -182 -33c-20 0 -41 12 -41 36s21 37 42 37c49 0 116 -21 181 -33c-1 33 -21 117 -30 190
c-9 80 33 143 32 197c-61 -8 -133 -33 -182 -33c-21 0 -41 12 -41 36s20 37 42 37c48 0 115 -21 181 -33c-5 87 -41 202 -41 245c0 25 15 49 44 49c28 0 40 -22 40 -48c0 -45 -35 -151 -36 -246c69 12 137 33 185 33c22 0 42 -13 42 -37s-20 -36 -41 -36
c-49 0 -121 25 -186 33c1 -49 35 -114 27 -196c-7 -78 -26 -163 -28 -191c70 12 136 33 184 33z" />
    <glyph glyph-name="uni0308" unicode="&#x308;" 
d="M-244 616c-29 0 -50 21 -50 51c0 27 21 49 50 49c27 0 49 -22 49 -49c0 -30 -22 -51 -49 -51zM-72 616c-29 0 -51 21 -51 51c0 27 22 49 51 49c26 0 49 -22 49 -49c0 -30 -23 -51 -49 -51z" />
    <glyph glyph-name="uni0307" unicode="&#x307;" 
d="M-84 630c-31 0 -54 24 -54 55c0 28 23 53 54 53c28 0 53 -25 53 -53c0 -31 -25 -55 -53 -55z" />
    <glyph glyph-name="gravecomb" unicode="&#x300;" 
d="M-10 583h-5l-143 161v1h92z" />
    <glyph glyph-name="acutecomb" unicode="&#x301;" 
d="M-134 581h-5l56 163h92v-2z" />
    <glyph glyph-name="uni030B" unicode="&#x30b;" 
d="M-272 580h-5l25 173h74v-2zM-120 580h-5l25 173h74v-2z" />
    <glyph glyph-name="uni030C.alt" 
d="M-101 572h-1v8c36 5 58 40 58 75c-6 -2 -11 -2 -19 -2c-26 0 -49 19 -49 47c0 29 21 50 49 50c33 0 52 -25 52 -59c0 -54 -33 -114 -90 -119z" />
    <glyph glyph-name="uni0302" unicode="&#x302;" 
d="M-173 747h16l140 -163v-1h-5l-143 100l-146 -100h-5v1z" />
    <glyph glyph-name="uni030C" unicode="&#x30c;" 
d="M-165 647l143 101h5v-1l-140 -164h-16l-143 164v1h5z" />
    <glyph glyph-name="uni0306" unicode="&#x306;" 
d="M-161 579c-74 0 -125 44 -128 168h6c11 -97 76 -121 122 -121c62 0 114 34 123 121h6c-4 -124 -54 -168 -129 -168z" />
    <glyph glyph-name="uni030A" unicode="&#x30a;" 
d="M-96 586c-44 0 -82 33 -82 79s38 79 82 79c43 0 82 -33 82 -79s-39 -79 -82 -79zM-96 608c37 0 57 25 57 57s-20 57 -57 57s-57 -25 -57 -57s20 -57 57 -57z" />
    <glyph glyph-name="tildecomb" unicode="&#x303;" 
d="M-329 585h-5c0 43 23 114 90 114c65 0 112 -54 153 -54c29 0 62 17 62 57h5c1 -61 -27 -107 -76 -107c-59 0 -102 55 -152 55c-47 0 -74 -45 -77 -65z" />
    <glyph glyph-name="uni0304" unicode="&#x304;" 
d="M-24 646h-292v17h292v-17z" />
    <glyph glyph-name="uni0326" unicode="&#x326;" 
d="M-134 -243h-1v9c39 5 73 41 73 79c-7 -2 -12 -3 -20 -3c-27 0 -51 20 -51 49c0 30 21 52 51 52c34 0 55 -26 55 -61c0 -65 -44 -119 -107 -125z" />
    <glyph glyph-name="uni0327" unicode="&#x327;" 
d="M-87 -45c33 0 70 -22 70 -69c0 -52 -42 -77 -82 -77c-42 0 -65 20 -78 42l4 3c12 -13 29 -20 53 -20c25 0 47 15 47 51c0 29 -16 44 -36 44c-11 0 -18 -2 -25 -5l-3 1l24 81h12l-15 -56c7 3 16 5 29 5z" />
    <glyph glyph-name="uni0328" unicode="&#x328;" 
d="M-89 -193c-44 0 -73 27 -73 68c0 49 42 87 123 125h9c-55 -35 -74 -68 -74 -107c0 -44 30 -65 80 -62l1 -4c-19 -11 -41 -20 -66 -20z" />
    <glyph glyph-name="uni0335" unicode="&#x335;" 
d="M19 264h-295v13h295v-13z" />
    <glyph glyph-name="uni0336" unicode="&#x336;" 
d="M-40 547h-705v17h705v-17z" />
    <glyph glyph-name="uni0337" unicode="&#x337;" 
d="M-51 429l-241 -137l-5 12l240 137z" />
    <glyph glyph-name="uni0338" unicode="&#x338;" 
d="M-354 -37h-19l326 585h19z" />
    <glyph glyph-name="dieresis" unicode="&#xa8;" 
d="M-244 616c-29 0 -50 21 -50 51c0 27 21 49 50 49c27 0 49 -22 49 -49c0 -30 -22 -51 -49 -51zM-72 616c-29 0 -51 21 -51 51c0 27 22 49 51 49c26 0 49 -22 49 -49c0 -30 -23 -51 -49 -51z" />
    <glyph glyph-name="dotaccent" unicode="&#x2d9;" 
d="M-84 630c-31 0 -54 24 -54 55c0 28 23 53 54 53c28 0 53 -25 53 -53c0 -31 -25 -55 -53 -55z" />
    <glyph glyph-name="grave" unicode="`" 
d="M-10 583h-5l-143 161v1h92z" />
    <glyph glyph-name="acute" unicode="&#xb4;" 
d="M-134 581h-5l56 163h92v-2z" />
    <glyph glyph-name="hungarumlaut" unicode="&#x2dd;" 
d="M-272 580h-5l25 173h74v-2zM-120 580h-5l25 173h74v-2z" />
    <glyph glyph-name="circumflex" unicode="&#x2c6;" 
d="M-173 747h16l140 -163v-1h-5l-143 100l-146 -100h-5v1z" />
    <glyph glyph-name="caron" unicode="&#x2c7;" 
d="M-165 647l143 101h5v-1l-140 -164h-16l-143 164v1h5z" />
    <glyph glyph-name="breve" unicode="&#x2d8;" 
d="M-161 579c-74 0 -125 44 -128 168h6c11 -97 76 -121 122 -121c62 0 114 34 123 121h6c-4 -124 -54 -168 -129 -168z" />
    <glyph glyph-name="ring" unicode="&#x2da;" 
d="M-96 586c-44 0 -82 33 -82 79s38 79 82 79c43 0 82 -33 82 -79s-39 -79 -82 -79zM-96 608c37 0 57 25 57 57s-20 57 -57 57s-57 -25 -57 -57s20 -57 57 -57z" />
    <glyph glyph-name="tilde" unicode="&#x2dc;" 
d="M-329 585h-5c0 43 23 114 90 114c65 0 112 -54 153 -54c29 0 62 17 62 57h5c1 -61 -27 -107 -76 -107c-59 0 -102 55 -152 55c-47 0 -74 -45 -77 -65z" />
    <glyph glyph-name="macron" unicode="&#xaf;" 
d="M-24 646h-292v17h292v-17z" />
    <glyph glyph-name="cedilla" unicode="&#xb8;" 
d="M-87 -45c33 0 70 -22 70 -69c0 -52 -42 -77 -82 -77c-42 0 -65 20 -78 42l4 3c12 -13 29 -20 53 -20c25 0 47 15 47 51c0 29 -16 44 -36 44c-11 0 -18 -2 -25 -5l-3 1l24 81h12l-15 -56c7 3 16 5 29 5z" />
    <glyph glyph-name="ogonek" unicode="&#x2db;" 
d="M-89 -193c-44 0 -73 27 -73 68c0 49 42 87 123 125h9c-55 -35 -74 -68 -74 -107c0 -44 30 -65 80 -62l1 -4c-19 -11 -41 -20 -66 -20z" />
    <glyph glyph-name="caron.alt" 
d="M-101 572h-1v8c36 5 58 40 58 75c-6 -2 -11 -2 -19 -2c-26 0 -49 19 -49 47c0 29 21 50 49 50c33 0 52 -25 52 -59c0 -54 -33 -114 -90 -119z" />
    <glyph glyph-name="uni0308.case" 
d="M-291 604c-29 0 -49 21 -49 49c0 26 20 48 49 48c26 0 48 -22 48 -48c0 -28 -22 -49 -48 -49zM-87 604c-28 0 -49 21 -49 49c0 26 21 48 49 48c26 0 48 -22 48 -48c0 -28 -22 -49 -48 -49z" />
    <glyph glyph-name="uni0307.case" 
d="M-75 604c-29 0 -50 21 -50 49c0 25 21 47 50 47c26 0 48 -22 48 -47c0 -28 -22 -49 -48 -49z" />
    <glyph glyph-name="gravecomb.case" 
d="M2 562h-4l-211 167v3h108z" />
    <glyph glyph-name="acutecomb.case" 
d="M-146 562h-5l107 170h109v-3z" />
    <glyph glyph-name="uni030B.case" 
d="M-270 563h-5l22 173h73v-1zM-116 563h-5l24 173h73v-1z" />
    <glyph glyph-name="uni0302.case" 
d="M-176 727h20l156 -164v-1h-5l-162 98l-166 -98h-5v1z" />
    <glyph glyph-name="uni030C.case" 
d="M-164 630l163 97h5v-1l-157 -164h-20l-162 164v1h5z" />
    <glyph glyph-name="uni0306.case" 
d="M-161 549c-78 0 -129 60 -132 181h9c13 -97 73 -126 123 -126c66 0 116 42 124 126h9c-2 -121 -54 -181 -133 -181z" />
    <glyph glyph-name="uni030A.case" 
d="M-98 556c-42 0 -79 31 -79 80c0 48 37 79 79 79s78 -31 78 -79c0 -49 -36 -80 -78 -80zM-97 580c32 0 52 24 52 56c0 33 -20 56 -52 56c-35 0 -56 -23 -56 -56c0 -32 21 -56 56 -56z" />
    <glyph glyph-name="tildecomb.case" 
d="M-366 560h-6c0 45 19 120 100 120c72 0 118 -67 165 -67c38 0 68 32 68 65h6c0 -64 -28 -111 -86 -111c-61 0 -117 67 -174 67c-48 0 -70 -41 -73 -74z" />
    <glyph glyph-name="uni0304.case" 
d="M-24 623h-292v17h292v-17z" />
    <glyph glyph-name="uni0337.case" 
d="M-26 354l-272 -155l-10 16l272 155z" />
    <glyph glyph-name="uni0338.case" 
d="M-550 -17h-22v3l481 764h22v-1z" />
    <glyph glyph-name="dieresis.case" 
d="M-291 604c-29 0 -49 21 -49 49c0 26 20 48 49 48c26 0 48 -22 48 -48c0 -28 -22 -49 -48 -49zM-87 604c-28 0 -49 21 -49 49c0 26 21 48 49 48c26 0 48 -22 48 -48c0 -28 -22 -49 -48 -49z" />
    <glyph glyph-name="dotaccent.case" 
d="M-75 604c-29 0 -50 21 -50 49c0 25 21 47 50 47c26 0 48 -22 48 -47c0 -28 -22 -49 -48 -49z" />
    <glyph glyph-name="grave.case" 
d="M2 562h-4l-211 167v3h108z" />
    <glyph glyph-name="acute.case" 
d="M-146 562h-5l107 170h109v-3z" />
    <glyph glyph-name="hungarumlaut.case" 
d="M-270 563h-5l22 173h73v-1zM-116 563h-5l24 173h73v-1z" />
    <glyph glyph-name="circumflex.case" 
d="M-176 727h20l156 -164v-1h-5l-162 98l-166 -98h-5v1z" />
    <glyph glyph-name="caron.case" 
d="M-164 630l163 97h5v-1l-157 -164h-20l-162 164v1h5z" />
    <glyph glyph-name="breve.case" 
d="M-161 549c-78 0 -129 60 -132 181h9c13 -97 73 -126 123 -126c66 0 116 42 124 126h9c-2 -121 -54 -181 -133 -181z" />
    <glyph glyph-name="ring.case" 
d="M-98 556c-42 0 -79 31 -79 80c0 48 37 79 79 79s78 -31 78 -79c0 -49 -36 -80 -78 -80zM-97 580c32 0 52 24 52 56c0 33 -20 56 -52 56c-35 0 -56 -23 -56 -56c0 -32 21 -56 56 -56z" />
    <glyph glyph-name="tilde.case" 
d="M-366 560h-6c0 45 19 120 100 120c72 0 118 -67 165 -67c38 0 68 32 68 65h6c0 -64 -28 -111 -86 -111c-61 0 -117 67 -174 67c-48 0 -70 -41 -73 -74z" />
    <glyph glyph-name="macron.case" 
d="M-24 623h-292v17h292v-17z" />
    <glyph glyph-name="IJacute" horiz-adv-x="556" 
d="M111 791h-5l107 169h109v-3zM393 791h-5l107 169h109v-3zM217 0h-155v6c25 10 37 38 37 67v582c0 29 -12 57 -37 67v6h155v-6c-25 -10 -37 -38 -37 -67v-582c0 -29 12 -57 37 -67v-6zM288 -3v6c41 -5 94 17 94 111v541c0 29 -12 57 -37 67v6h156v-6
c-25 -10 -39 -38 -39 -67v-515c0 -141 -110 -156 -174 -143z" />
    <glyph glyph-name="ijacute" horiz-adv-x="455" 
d="M92 613h-5l56 163h92v-1zM300 612h-5l55 162h93v-1zM194 0h-146v6c25 10 35 38 35 67v320c0 45 -17 62 -41 82v5c30 12 78 29 112 43h5v-450c0 -29 10 -57 35 -67v-6zM291 -213c-45 0 -73 22 -89 79l1 2h1c13 -26 31 -41 53 -41c31 0 47 18 47 60v504c0 44 -18 62 -41 82
v4c30 12 77 30 112 43h4v-620c0 -75 -39 -113 -88 -113z" />
    </font>
</defs>
</svg>
