<?xml version="1.0" encoding="UTF-8"?>
<svg id="Capa_2" data-name="Capa 2" xmlns="http://www.w3.org/2000/svg" viewBox="0 0 217.22 135.76">
  <defs>
    <style>
      .cls-1 {
        fill: #d5d1ca;
      }
    </style>
  </defs>
  <g id="Capa_1-2" data-name="Capa 1">
    <path class="cls-1" d="M119.74,116c-.27,8.23-8.85,14.4-21.2,14.4-15.2,0-24.24-10.28-27.64-23.52-5.1,4.65-7.69,10.64-7.69,16.1s2.14,10.02,6.53,12.61v.18c-4.56-2.59-6.71-7.51-6.71-12.79s2.59-11.54,7.78-16.28c-1.16-4.56-1.61-9.57-1.43-14.49.45-13.5,5.64-26.56,6.98-37.12-2.06-.18-4.03-.45-5.72-.89-4.29,6.89-8.85,14.13-15.12,21.55-9.03,10.64-23.88,19.23-38.1,19.85h-.36c6.17,2.15,11.9,4.03,19.59,4.03s16.37-2.41,17.98-8.14h.27c-1.88,5.9-10.73,8.32-18.25,8.32-8.5,0-13.86-2.06-20.04-4.2-1.16,0-2.41.09-3.67.09H2.48c-4.38-.9-2.32-5.54,1.25-5.54,3.85,0,8.05,4.74,13.69,4.74,13.78,0,29.96-21.82,48.29-42.66-3.4-1.97-5.27-4.56-5.19-7.6.09-3.49,2.59-5.54,5.99-5.54s5.9,1.34,7.88,3.49c9.3-9.84,19.14-18.6,29.42-23.52-7.69-2.59-17.88-5.81-33.36-5.81-28.98.09-59.48,30.59-61.89,49.73-.72,6.17,1.7,15.11,12.34,15.11,13.95,0,27.01-13.33,27.01-27.19,0-3.94-1.79-7.25-5.9-7.87l.27-.18c4.03.62,5.81,3.93,5.81,8.05,0,13.95-13.15,27.37-27.19,27.37-11.09,0-15.83-8.59-13.15-21.2C13.93,32.91,41.66,12.97,70.37,12.88c15.65,0,26.02,3.31,33.72,5.99,5.28-2.5,10.64-3.94,16.73-4.12,3.93,0,6.08.9,6.08,3.04,0,2.59-4.03,4.38-10.29,4.38-3.49,0-7.34-1.34-12.25-2.95-3.4,1.7-6.62,3.84-9.48,5.99-8.23,5.99-13.68,12.7-18.6,20.12,1.34,2.68,2.24,5.99,2.59,9.48,20.3-.18,38.1-27.46,64.3-43.55C156.67,2.95,170.71,0,191.73,0c7.87,0,22.54,3.93,25.49,10.82-.09.18,0,.09-.18.09q-.09,0-.18-.09c-2.77-6.44-17.35-10.47-24.95-10.47-44,0-90.34,54.91-111.89,54.91h-1.07c.54,5.37.27,11.18-.36,15.92-1.43,11-5.63,22.9-5.9,32.11v1.88c5.1-3.94,12.34-6.62,21.56-6.62,12.88,0,25.94,5.99,25.49,17.44ZM65.8,52.05c2.77-3.04,5.45-6.17,8.32-9.12-1.88-2.33-4.56-3.67-7.61-3.67-3.4,0-5.72,1.97-5.81,5.37-.09,3.04,1.79,5.63,5.1,7.42ZM76.36,54.73c.18-.98.18-2.06.27-3.04.09-2.15-.27-4.02-.81-5.63-1.7,2.51-3.31,5.19-5.01,7.87,1.7.45,3.58.71,5.54.8ZM72.69,105.45c.54,15.83,12.7,24.77,26.21,24.77,11.72,0,20.39-5.9,20.66-14.22.45-11.36-12.43-17.26-25.31-17.26-9.21,0-16.46,2.68-21.56,6.71ZM104.71,19.05c4.74,1.61,8.5,2.95,11.89,2.95,6.17,0,10.1-1.7,10.1-4.2,0-2.06-2.14-2.86-5.99-2.86-5.99.18-11.27,1.79-16.01,4.12Z"/>
  </g>
</svg>