<?xml version="1.0" encoding="UTF-8"?>
<svg id="Capa_2" data-name="Capa 2" xmlns="http://www.w3.org/2000/svg" viewBox="0 0 71.19 78.79">
  <defs>
    <style>
      .cls-1 {
        fill: #4c222a;
      }
    </style>
  </defs>
  <g id="Capa_1-2" data-name="Capa 1">
    <path class="cls-1" d="M25.31,38.55c-7.96,10.64-15.38,21.55-20.84,29.69-2.24,3.31-3.49,5.81-3.58,7.51-.17,1.7.18,2.86,1.7,2.86,4.56,0,12.16-11.99,17.53-19.77l.09.18c-4.21,5.9-12.61,19.77-17.8,19.77-4.29,0-2.86-13.06,4.38-23.52l3.49-5.19C32.1,18.51,52.76,0,66.09,0c2.86,0,5.1,2.32,5.1,5.63,0,9.39-14.04,15.38-21.92,19.23-8.14,4.03-17.08,8.05-23.97,13.69ZM25.75,38.01c6.88-5.37,15.65-9.48,23.43-13.24,6.35-3.13,21.82-9.57,21.82-19.14,0-3.22-2.14-5.46-5-5.46-9.57,0-25.76,18.51-40.25,37.83Z"/>
  </g>
</svg>