<?xml version="1.0" encoding="UTF-8"?>
<svg id="Capa_2" data-name="Capa 2" xmlns="http://www.w3.org/2000/svg" viewBox="0 0 168.4 178.71">
  <defs>
    <style>
      .cls-1 {
        fill: #d7d2cb;
      }
    </style>
  </defs>
  <g id="Capa_1-2" data-name="Capa 1">
    <path class="cls-1" d="M123.4,86.29c25.23-4.17,37.14-23.8,37.14-42.46,0-26.27-19.25-43.83-52.45-43.83H0v1.47c5.53,2.45,8.19,8.84,8.19,18.41v138.94c0,9.57-2.66,15.96-8.19,18.41v1.47h105.22c36.96,0,63.19-10.66,63.19-46.99,0-25.78-16.67-40.51-45-45.42ZM26.11,3.19h77.11c22.57,0,38.06,9.08,38.06,36.09,0,23.57-12.15,44.94-32.07,44.94l-8.29.03c12.03-4.91,17.77-16.02,17.77-26.66,0-17.76-13.02-29.63-35.46-29.63h-47.14v1c3.74,1.66,5.54,5.97,5.54,12.45v43.03l-15.52.05V3.19ZM53.75,87.99l38.8.11c10.95,1.65,18.34,7.49,18.22,23.83-.15,26.88-13.61,34.68-30.22,34.68h-26.8v-58.63ZM88.63,84.28l-34.88.11V30.11h26.2c15.26,0,25.73,6.14,25.73,24.4,0,14.01-6.36,26.88-17.05,29.77ZM104.11,175.52H26.11v-87.61l15.52.04v47.38c0,6.47-1.8,10.79-5.54,12.45v1h45.2c24.99,0,42.72-7.21,42.72-31.77,0-14.95-8.3-24.4-22.74-28.88l8.15.02c22.79,0,39.61,6.12,39.39,36.07-.22,39.77-20.14,51.3-44.7,51.3Z"/>
  </g>
</svg>