<?xml version="1.0" encoding="UTF-8"?>
<svg id="Capa_2" data-name="Capa 2" xmlns="http://www.w3.org/2000/svg" viewBox="0 0 166.24 86.22">
  <defs>
    <style>
      .cls-1 {
        fill: #4c222a;
      }
    </style>
  </defs>
  <g id="Capa_1-2" data-name="Capa 1">
    <path class="cls-1" d="M123.49,11.45c-2.77-.8-5.54-1.97-9.3-1.97-11.62.36-19.76,9.21-21.19,30.5-.72,8.23-2.42,17.71-5.82,25.13-2.24,4.65-4.56,8.68-7.24,11.9,11.27-11.36,22.36-33.72,33.27-47.49,15.29-19.14,27.01-25.58,39.71-25.58,8.94,0,13.33,4.38,13.33,8.59,0,2.5-1.52,4.92-4.29,6.53l-.18-.18c2.77-1.61,4.3-4.03,4.3-6.35,0-3.94-4.21-8.41-13.15-8.41-12.79,0-24.42,6.98-39.44,25.67-15.11,18.87-30.05,54.02-46.32,54.56l-.36-.36c18.24-2.95,14.84-26.74,18.78-44.81,3.04-15.83,10.46-25.13,19.49-28.44-32.29,9.66-53.21,75.48-87.38,75.48h-.18C3.55,86.22-1.19,75.31.24,63.14c1.52-13.41,16.19-27.64,32.02-28.44C37.71,15.12,66.07,0,90.04,0c13.86,0,23.88,4.03,33.36,11.18l.09.27ZM109,9.66c4.2-.72,9.3-.36,13.95,1.34C117.32,6.8,107.3.45,90.93.27c-25.22-.18-47.13,18.87-54.29,34.52,7.34,1.16,13.51,6.8,12.79,15.56-.18,1.25-.36,2.59-.8,3.85,8.85-2.69,19.32-12.16,19.32-23.43,0-3.22-1.43-5.54-4.65-5.99l.45-.18c2.86.54,4.38,2.95,4.38,6.17,0,11.63-10.64,21.02-19.59,23.7-1.7,5.46-5.81,10.56-11.71,11.27h-.18l.18-.09c5.54-.63,9.84-5.81,11.54-11.18-1.52.45-3.13.72-4.47.72-8.32,0-12.52-5.28-12.52-13.86,0-2.15.27-4.29.9-6.44-15.21,1.16-28.26,19.5-29.69,33.63-1.16,9.39,4.2,17.44,14.94,17.44h.27c35.15,0,56.52-70.74,91.23-76.29ZM36.55,34.97c-1.61,3.49-2.41,6.71-2.41,9.48,0,4.92,2.24,10.55,9.75,10.55,1.43,0,2.95-.27,4.56-.72.36-1.34.72-2.68.81-3.93.62-8.05-4.83-14.22-12.7-15.38Z"/>
  </g>
</svg>