<?xml version="1.0" encoding="UTF-8"?>
<svg id="Capa_2" data-name="Capa 2" xmlns="http://www.w3.org/2000/svg" viewBox="0 0 47.94 43.29">
  <defs>
    <style>
      .cls-1 {
        fill: #d5d1ca;
      }
    </style>
  </defs>
  <g id="Capa_1-2" data-name="Capa 1">
    <path class="cls-1" d="M34.79,16.46c5.45-5.54,11.71-10.47,11.71-13.77,0-1.34-.62-2.42-2.06-2.42-3.04,0-8.85,5.9-14.49,13.15-7.69,9.66-15.21,21.64-16.99,25.22h-.45c-2.95-.81-7.51-2.32-12.26,4.65h-.27L24.42,10.38c2.32-3.22,3.4-5.1,3.58-6.8.18-1.7-.54-2.95-2.06-2.95-2.69,0-9.04,9.03-16.19,19.68l-.09-.18c2.59-3.84,8.31-12.16,10.64-14.93C22.36,2.77,24.59.45,26.03.45c5.82,0,.8,15.92-5.9,25.31l-.09.18h.53C29.61,12.7,39.71,0,44.45,0c1.96,0,3.49,2.15,3.49,5.19s-.98,6.08-2.59,8.76c-1.61,2.77-3.85,5.46-6.8,8.68-2.06,2.15-10.82,10.02-11.27,15.11-.09,1.52.81,2.15,1.88,2.15,3.49,0,12.52-11.9,17.89-19.77l.09.18c-5.81,8.41-14.4,19.77-18.07,19.77-3.4,0-4.56-3.93-3.84-8.41.8-5.28,5.01-10.55,9.57-15.2Z"/>
  </g>
</svg>