<?xml version="1.0" encoding="UTF-8"?>
<svg id="Capa_2" data-name="Capa 2" xmlns="http://www.w3.org/2000/svg" viewBox="0 0 33.37 39.71">
  <defs>
    <style>
      .cls-1 {
        fill: #4c222a;
      }
    </style>
  </defs>
  <g id="Capa_1-2" data-name="Capa 1">
    <path class="cls-1" d="M.01,33.63c.45-5.28,4.29-12.97,7.06-16.91C14.95,5.63,25.77,0,31.58,0c1.25,0,1.79,1.25,1.79,2.15,0,5.19-4.74,11.71-8.77,16.99-2.32,3.22-5,6.71-6.44,8.32l-.63.71c2.69-.09,7.78-2.68,11.99-8.5l.09.18c-4.83,6.53-10.11,8.5-11.99,8.5h-.27c-5.64,6.8-10.47,11.36-12.97,11.36C1.35,39.71-.17,36.76.01,33.63ZM2.97,37.38c0,1.34.62,2.06,1.61,2.06,2.24,0,7.06-4.47,12.61-11.09-.98-.27-1.52-1.16-1.43-2.59.45-4.92,9.21-14.13,12.88-12.43,2.24-3.49,4.56-7.96,4.56-11.18,0-.81-.45-1.97-1.61-1.97-2.24,0-8.85,5.63-17.26,17.35C7.8,26.38,2.97,33.81,2.97,37.38Z"/>
  </g>
</svg>