<?xml version="1.0" encoding="UTF-8"?>
<svg id="Capa_2" data-name="Capa 2" xmlns="http://www.w3.org/2000/svg" viewBox="0 0 131.73 86.84">
  <defs>
    <style>
      .cls-1 {
        fill: #d5d1ca;
      }
    </style>
  </defs>
  <g id="Capa_1-2" data-name="Capa 1">
    <path class="cls-1" d="M63.58,38.55c-.53-1.16-.8-2.59-.8-4.12,0-3.49,1.79-6.89,4.2-9.39h.18c-2.51,2.41-4.2,6.08-4.2,9.39,0,1.43.27,2.77.81,4.03,9.75-11.81,20.12-23.25,31.12-30.5-4.65-4.02-12.34-5.54-18.6-5.54C48.64,2.41,15.28,31.57,10.19,49.82c-1.7,5.9-.72,14.49,9.39,14.49s29.87-12.25,29.87-27.91c0-2.95-1.43-5.28-4.65-5.72h.36c3.04.45,4.38,2.68,4.38,5.72,0,15.83-19.49,28.09-29.96,28.09s-13.6-8.32-9.39-20.3C19.66,21.11,49,2.24,76.28,2.24c6.71,0,14.05,1.7,19.32,5.19,7.06-4.56,14.49-7.42,22.18-7.42,5.99,0,11.18,2.5,13.95,8.32l-.09.09C129.58,3.76,124.75.09,118.05.09c-8.5,0-15.83,3.31-22.18,7.6,5.54,3.76,8.76,9.57,6.52,17.62-3.93,14.22-21.19,22.09-32.28,18.96-.99-.27-1.97-.72-2.77-1.25-3.76,6.53-7.78,13.24-13.33,19.94-8.76,10.64-23.43,19.5-37.56,20.12h-.8c5.72,1.88,11.27,3.58,18.33,3.58,6.08,0,15.2-1.88,17.35-7.51h.18c-2.06,5.37-10.37,7.69-17.53,7.69-7.96,0-13.33-1.79-18.96-3.76-.99,0-1.88.09-2.78.09H2.22c-4.11-.81-1.88-5.19,1.52-5.19s7.42,4.47,12.7,4.47c13.78,0,29.42-22.45,47.13-43.91ZM67.43,42.75c.89.63,1.79.98,2.86,1.25,10.28,1.97,24.42-11.63,27.72-21.73,2.06-6.44.54-11-2.86-14.13l-3.13,2.32c-11.81,8.68-17.62,20.12-24.59,32.29Z"/>
  </g>
</svg>