<?xml version="1.0" encoding="UTF-8"?>
<svg id="Capa_2" data-name="Capa 2" xmlns="http://www.w3.org/2000/svg" viewBox="0 0 93.64 91.28">
  <defs>
    <style>
      .cls-1 {
        fill: #4c222a;
      }
    </style>
  </defs>
  <g id="Capa_1-2" data-name="Capa 1">
    <path class="cls-1" d="M87.92.77c-14.76,3.04-28,25.31-32.02,31.03l-.09-.18c3.67-5.1,17.53-28.89,33.09-31.21,1.7-.53,3.22-.53,4.74-.09v.27c-1.07-.18-2.06-.18-3.13-.18-7.61,1.43-17.08,15.12-24.24,26.56,7.16-10.28,13.06-15.21,15.74-15.21,1.69,0,3.67,1.88,3.67,6.35,0,2.77-1.17,8.14-4.57,13.86-6.71,11.63-16.81,16.81-22.09,18.07,5.64-.27,16.46-3.13,26.74-18.43l.09.18c-10.64,16.55-22.81,18.43-28,18.51-.45,0-.8.09-1.07.09-1.52,0-2.15-.9-2.15-2.24,0-.54.18-1.16.36-1.79-8.23,14.13-16.01,26.74-23.35,33.63-8.76,8.32-20.39,11.89-26.92,11.18-2.95-.36-4.74-2.86-4.74-6.08,0-1.97.72-3.49,1.97-5.19v.27c-.8,1.07-1.79,2.95-1.79,4.92,0,3.49,1.88,5.54,4.74,5.72,13.33.98,39.35-33.9,58.49-62.61C74.95,11.59,82.28,3.28,87.92.77ZM64.04,30.55c-3.04,5.19-5.9,10.37-8.77,15.38-.27.81-.45,1.52-.45,2.15,0,1.25.45,2.06,1.7,2.06,2.5,0,9.66-6.53,17.35-18.6,5.72-8.94,8.94-14.4,8.94-17.44,0-1.16-.36-2.06-1.25-2.06-2.41,0-9.66,6.44-17.53,18.51Z"/>
  </g>
</svg>