<?xml version="1.0" encoding="UTF-8"?>
<svg id="Capa_2" data-name="Capa 2" xmlns="http://www.w3.org/2000/svg" viewBox="0 0 53.75 84.88">
  <defs>
    <style>
      .cls-1 {
        fill: #4c222a;
      }
    </style>
  </defs>
  <g id="Capa_1-2" data-name="Capa 1">
    <path class="cls-1" d="M5.64,37.47c.17-5.37,3.93-12.52,6.61-16.37C19.94,10.11,30.68,3.84,36.49,3.84c1.34,0,2.15,1.34,2.15,2.5,0,1.25-.63,2.86-1.52,4.56l4.2-6.26c3.04.81,7.34,2.24,12.16-4.65h.27l-23.07,29.96c-2.77,3.67-7.51,10.02-12.34,17.08,9.3-3.93,18.43-12.97,25.67-23.52l.09.18c-7.42,10.73-16.55,19.77-25.94,23.61-1.88,2.86-3.75,5.72-5.54,8.59,1.79,3.58,2.5,7.87,2.5,11.54,0,4.38-3.21,17.44-9.83,17.44-3.85,0-5.28-4.2-5.28-8.76,0-1.61.18-3.22.45-4.74.98-4.83,3.75-10.29,9.39-19.14-1.52-1.52-3.48-2.77-5.99-3.49-.09,0-.27-.18.09-.18,2.68.62,5.37.71,7.96.36,4.2-6.44,9.75-14.4,16.9-24.87h-.45l-.89,1.25c-6.8,9.75-13.24,18.24-17.53,18.24-3.04,0-4.47-2.86-4.29-6.08ZM12.52,56.08c-5.9,9.48-10.73,18.69-10.73,23.43,0,2.41,1.26,5.19,3.76,5.19,5.9,0,9.39-12.25,9.39-17.26,0-3.58-.63-7.78-2.42-11.36ZM11.81,49.1c-2.15.36-4.38.36-6.53-.09,1.88.8,3.4,1.88,4.65,3.13.63-.98,1.17-1.97,1.88-3.04ZM8.32,40.96c-.09,1.52.63,2.41,1.7,2.41,4.2,0,10.91-9.03,17.98-19.14.27-.45.72-1.07,1.26-1.7l3.13-4.47,3.31-4.92c1.52-2.68,2.68-5.19,2.68-6.89,0-1.07-.71-2.24-1.96-2.24-2.24,0-8.68,5.46-16.99,17.35-6.08,8.76-10.91,16.37-11.09,19.59Z"/>
  </g>
</svg>