<?xml version="1.0" encoding="UTF-8"?>
<svg id="Capa_2" data-name="Capa 2" xmlns="http://www.w3.org/2000/svg" viewBox="0 0 23.26 56.34">
  <defs>
    <style>
      .cls-1 {
        fill: #d5d1ca;
      }
    </style>
  </defs>
  <g id="Capa_1-2" data-name="Capa 1">
    <path class="cls-1" d="M18.77,12.52c-4.56,8.59-12.52,19.59-15.65,24.06l-.09-.18c3.22-4.74,11.18-15.65,15.66-23.97-1.52-2.06-2.42-4.65-2.15-7.78.17-3.13,1.96-4.65,3.31-4.65,1.25,0,2.41,1.43,2.24,4.12-.18,2.06-1.43,4.92-3.22,8.32l.36.36c2.15,2.5,4.3,6.62,4.03,9.75-.18,2.24-1.07,4.83-2.59,7.51-1.61,2.95-3.94,5.54-6.89,8.76-1.96,2.06-10.91,10.37-11.36,15.29-.09,1.52.72,2.06,1.79,2.06,3.58,0,12.61-11.9,18.06-19.77l.09.18c-5.81,8.41-14.49,19.77-18.15,19.77S-.46,52.5.16,48.03c.9-5.37,5.28-10.82,9.84-15.29,5.64-5.63,10.82-10.29,11.54-13.68.45-2.6-1.07-4.56-2.51-6.26l-.27-.27ZM18.77,12.25c1.7-3.31,2.95-6.26,3.13-8.23.18-2.59-.89-3.85-2.05-3.85-1.34,0-2.95,1.61-3.13,4.47-.36,2.86.54,5.63,2.06,7.6Z"/>
  </g>
</svg>