<?xml version="1.0" encoding="UTF-8"?>
<svg id="Capa_2" data-name="Capa 2" xmlns="http://www.w3.org/2000/svg" viewBox="0 0 103.66 118.24">
  <defs>
    <style>
      .cls-1 {
        fill: #d5d1ca;
      }
    </style>
  </defs>
  <g id="Capa_1-2" data-name="Capa 1">
    <path class="cls-1" d="M47.49,108.93c-2.69,5.9-8.58,9.3-15.29,9.3-12.26,0-17.44-10.02-17.44-20.75,0-2.5.27-5.01.81-8.05-10.74-3.31-15.57-12.88-15.57-25.76C0,41.59,22.72,17.8,42.57,17.8c13.78,0,19.49,9.3,18.96,20.39-.18,3.4-1.07,7.15-2.33,10.46l5.72-3.22c.9-5.54,1.61-11.45,2.86-17.17C71.55,11.54,84.61,0,94.54,0c4.3,0,9.13,2.15,9.13,8.14,0,14.49-16.63,24.33-30.32,32.02-.54,3.49-1.16,6.8-1.88,10.11-4.38,19.85-24.77,40.43-47.76,40.43-2.59,0-5.37-.45-7.96-1.16-.45,1.97-.8,4.29-.8,7.96,0,10.73,5,20.57,17.26,20.57,6.62,0,12.52-3.31,15.21-9.21l.09.09ZM59.03,48.74c1.43-3.85,2.33-8.23,2.33-12.16,0-10.28-5.72-18.6-18.78-18.6C22.9,17.98.18,41.86.18,63.68c0,14.31,5.81,22.63,15.47,25.49,1.34-5.19,4.11-10.11,7.51-14.49-6.26-1.79-10.46-7.87-10.46-15.65,0-10.64,9.75-23.7,20.84-23.7,2.51,0,5.63.62,7.96,2.77h-.18c-2.32-1.97-5.19-2.59-7.78-2.59-11.18,0-20.66,13.33-20.66,23.52,0,7.16,3.85,13.69,10.37,15.56,8.41-10.64,22.09-18.43,35.78-25.85ZM15.83,89.26c1.88.54,4.2,1.07,6.89,1.07,9.21,0,33.89-6.17,41.23-39.26.36-1.61.72-3.49.98-5.37l-5.81,3.13c-5.46,15.21-18.6,26.47-31.66,26.47-1.43,0-2.86-.27-4.12-.54-3.49,4.2-6.17,9.12-7.51,14.49ZM23.44,74.59c1.16.36,2.68.54,4.03.54,12.78,0,25.93-11,31.39-26.12-13.87,7.42-27.1,15.21-35.42,25.58ZM73.34,39.98c11.81-6.8,30.14-16.72,30.14-31.84,0-4.47-3.4-7.69-7.69-7.69-9.13,0-16.37,7.06-19.14,19.05-1.25,5.54-2.33,14.04-3.31,20.48Z"/>
  </g>
</svg>