<?xml version="1.0" encoding="UTF-8"?>
<svg id="Capa_2" data-name="Capa 2" xmlns="http://www.w3.org/2000/svg" viewBox="0 0 122.1 106.25">
  <defs>
    <style>
      .cls-1 {
        fill: #d5d1ca;
      }
    </style>
  </defs>
  <g id="Capa_1-2" data-name="Capa 1">
    <path class="cls-1" d="M79.62,14.94c0,1.34-.09,2.68-.36,4.11-2.78,18.07-36.76,39.26-36.22,54.2.09,2.15,2.05,3.67,4.83,3.67,6.53,0,20.39-11.81,31.12-24.42l31.03-41.5c.72.45,1.88.9,2.77.9,2.41,0,4.92-1.52,9.12-7.51l.18.18-46.6,63.32c-7.52,10.19-11.09,19.59-11.09,25.94s2.33,12.16,11.9,12.16,18.07-10.11,18.15-16.37c.09-3.67-1.43-6.89-4.56-6.89v-.18c3.22,0,4.83,3.31,4.74,7.06-.09,6.35-8.14,16.64-18.16,16.64-10.91,0-14.4-7.96-14.4-18.07s6.26-21.47,12.97-30.41l1.34-1.79c-10.64,11.9-22.9,21.11-28.53,21.11-4.47,0-7.42-2.95-7.61-7.51-.8-20.48,33.27-37.38,36.31-56.26.18-.72.09-1.43.09-2.15-.18-6.35-6.17-10.64-14.13-11C34.99.36,4.84,29.42,1.53,47.58c-1.16,5.9.81,14.49,10.74,14.49s27.55-11.63,27.01-26.74c-.09-3.4-1.52-6.35-5.19-6.89l.27-.09c3.67.54,5.01,3.58,5.1,6.97.54,15.21-16.99,26.92-27.19,26.92S-2.04,53.93,1,41.95C7.88,19.05,34.9.36,61.99,0c10.73.09,17.26,5.99,17.62,14.94Z"/>
  </g>
</svg>