<?xml version="1.0" encoding="UTF-8"?>
<svg id="Capa_2" data-name="Capa 2" xmlns="http://www.w3.org/2000/svg" viewBox="0 0 97.38 93.49">
  <defs>
    <style>
      .cls-1 {
        fill: #d5d1ca;
      }
    </style>
  </defs>
  <g id="Capa_1-2" data-name="Capa 1">
    <path class="cls-1" d="M54.5,0c15.57,0,25.31,11.27,24.24,26.21-1.34,17.62-20.93,37.92-34.17,52.32,18.87-9.48,40.79-31.39,43.74-45.53.8-3.84,1.25-6.17,1.16-9.66-.27-7.69,10.46-8.32,7.34,1.79-5.64,18.16-31.13,43.11-52.68,53.93-3.31,5.1-7.15,9.21-7.34,9.39-7.69,9.03-13.59,4.74-2.77-3.67,2.5-1.88,5.54-3.67,9.66-5.99,11.63-15.47,25.85-36.85,27.37-56.7C71.94,10.73,68.18.18,54.5.18h-.17C26.77.45,1.82,34.7,1.11,53.48c-.09,4.92,1.79,10.82,10.28,10.82,10.82,0,29.25-16.1,29.96-36.67.27-4.92-1.43-8.94-5.37-9.75l.45-.09c3.76.98,5.46,4.92,5.19,9.84-.62,20.75-19.32,36.85-30.23,36.85C3.61,64.48-.42,59.21.03,51.07,1.02,23.79,28.2.27,54.32,0h.17Z"/>
  </g>
</svg>