<?xml version="1.0" encoding="UTF-8"?>
<svg id="Capa_2" data-name="Capa 2" xmlns="http://www.w3.org/2000/svg" viewBox="0 0 38.5 41.14">
  <defs>
    <style>
      .cls-1 {
        fill: #d5d1ca;
      }
    </style>
  </defs>
  <g id="Capa_1-2" data-name="Capa 1">
    <path class="cls-1" d="M21.55,25.76c-6.26,7.51-13.59,15.38-17.35,15.38-2.86,0-4.2-2.5-4.2-5.99,0-5.99,5.01-12.16,10.46-17.71,5.46-5.54,11.45-10.73,11.72-13.86.09-1.25-.54-2.42-1.79-2.42C16.36,1.16,8.05,11.54,1.07,21.37l-.09-.18C8.58,10.46,16.36.98,20.39.98c1.7,0,3.31,2.24,3.04,5.37-.36,4.74-3.4,10.73-9.39,17.35-5.37,5.81-11.09,11.71-11.09,15.38,0,1.25.53,1.88,1.43,1.88,3.48,0,11-7.96,17.08-15.38-.09-.63-.09-1.43,0-2.15.54-6.17,10.37-23.43,15.56-23.43,1.25,0,1.61,1.25,1.43,2.77-.45,2.77-7.69,12.07-14.04,19.41-.9,1.16-1.79,2.32-2.77,3.49.18,1.07.98,1.79,2.24,1.79,3.04,0,5.81-3.22,7.96-6.26l.09.18c-2.41,3.22-4.92,6.26-8.05,6.26-1.34,0-2.06-.81-2.33-1.88Z"/>
  </g>
</svg>