<?xml version="1.0" encoding="UTF-8"?>
<svg id="Capa_2" data-name="Capa 2" xmlns="http://www.w3.org/2000/svg" viewBox="0 0 121.32 94.47">
  <defs>
    <style>
      .cls-1 {
        fill: #d5d1ca;
      }
    </style>
  </defs>
  <g id="Capa_1-2" data-name="Capa 1">
    <path class="cls-1" d="M64.67,1.52c4.12-.98,7.69-1.52,11.9-1.52,15.56,0,25.66,11.18,25.04,26.21-.8,18.07-20.84,38.91-33.63,53.4,19.05-9.48,41.32-31.48,44.27-45.62.8-3.84,1.25-6.17,1.16-9.66-.27-7.69,10.47-8.32,7.34,1.79-5.64,18.16-31.3,43.11-53.04,53.93-3.31,5.1-7.16,9.21-7.34,9.39-7.69,9.03-13.6,4.74-2.77-3.67,2.59-1.88,5.64-3.67,9.84-6.08,7.42-10.28,16.19-23.34,21.46-36.94-13.5,18.6-28.17,30.59-42.39,37.3-3.31,5.1-7.16,9.21-7.34,9.39-7.69,9.03-13.59,4.74-2.77-3.67,2.59-1.88,5.63-3.67,9.84-6.08,11.26-15.56,25.4-37.38,26.29-57.6C73.07,10.73,69.05.18,55.37.18,26.48.18,1.35,34.25,1.26,52.95c0,5.72,2.15,12.43,9.66,12.43,11.89,0,31.31-16.82,31.39-38.01.09-4.92-1.79-8.85-5.82-9.66l.45-.09c3.93.98,5.72,4.83,5.64,9.75,0,21.37-19.68,38.19-31.66,38.19C3.49,65.56-.17,59.48,0,50.53.19,23.43,28.09.09,55.37,0c3.4,0,6.44.54,9.3,1.52ZM91.23,36.22c1.43-4.74,2.24-9.48,2.5-14.13.54-11.36-3.48-21.91-17.17-21.91-4.11,0-7.61.54-11.54,1.52,9.93,3.67,15.83,12.97,15.38,24.5-.8,18.07-20.84,38.91-33.63,53.4,18.25-8.68,39-29.25,44.45-43.38Z"/>
  </g>
</svg>