<?xml version="1.0" encoding="UTF-8"?>
<svg id="Capa_2" data-name="Capa 2" xmlns="http://www.w3.org/2000/svg" viewBox="0 0 153.46 137.55">
  <defs>
    <style>
      .cls-1 {
        fill: #d5d1ca;
      }
    </style>
  </defs>
  <g id="Capa_1-2" data-name="Capa 1">
    <path class="cls-1" d="M153.1,10.55c-1.34-.63-3.13-1.07-4.92-1.16-19.77.27-36.94,21.11-48.74,38.01-7.24,10.2-14.04,21.38-21.2,32.11,21.65.81,36.94,11.18,35.33,28.89-1.52,16.55-20.39,29.16-34.89,29.16-20.3,0-22.8-10.47-22.27-17.17.36-3.85,2.51-7.69,5.27-11.18l.09.09c-2.41,2.95-4.65,6.97-5.1,11-.54,6.71,2.05,16.99,22.18,16.99,14.22,0,32.82-12.52,34.34-28.89,1.61-17.62-13.6-27.81-35.15-28.53-17.62,26.74-36.94,50.8-67.61,50.53-7.78-.09-11-4.11-10.37-10.91.09-.54.09-1.07.27-1.7,2.33-13.24,31.75-36.85,71.55-38.19,5.9-7.16,11.62-14.49,17.17-21.47-10.46,11.09-21.91,18.96-27.45,18.96-4.2,0-6.8-2.95-6.8-7.51,0-20.48,34.61-37.38,38.37-56.26.18-.72.18-1.43.18-2.15,0-6.44-6.08-10.64-14.4-11-27.55.18-58.76,29.24-62.78,47.4-1.34,5.9.27,14.49,10.29,14.49s28-11.63,28-26.74c0-3.4-1.26-6.35-4.92-6.89l.27-.09c3.67.54,4.83,3.58,4.83,6.97,0,15.21-17.98,26.92-28.17,26.92s-14.04-8.32-10.64-20.3C23.68,19.05,51.32.36,78.42,0l.09.09v-.09c10.73.09,17.08,5.99,17.08,14.94,0,1.34-.18,2.68-.45,4.11-3.49,18.07-38.19,39.26-38.19,54.2,0,2.15,1.88,3.67,4.65,3.67,5.82,0,18.87-9.75,29.52-21.38l7.15-8.85,2.06-2.5c11.98-14.76,27.37-34.16,46.6-35.06.09-.09.18-.09.27-.09,2.32,0,4.56.27,6.26.98l-.36.54ZM71.62,79.96C32.18,81.48,2.85,105.09.7,117.79c-.18.62-.18,1.16-.27,1.7-.53,6.71,2.51,10.55,10.29,10.55,17.08,0,39.62-24.24,60.91-50.08Z"/>
  </g>
</svg>