<?xml version="1.0" encoding="UTF-8"?>
<svg id="Capa_2" data-name="Capa 2" xmlns="http://www.w3.org/2000/svg" viewBox="0 0 83.8 83.2">
  <defs>
    <style>
      .cls-1 {
        fill: #d5d1ca;
      }
    </style>
  </defs>
  <g id="Capa_1-2" data-name="Capa 1">
    <path class="cls-1" d="M35.69,23.43c7.69-10.55,15.29-19.68,19.23-19.68,1.61,0,3.22,2.15,2.95,5.28-.36,4.83-3.4,10.38-9.13,16.91-5.36,5.81-11.26,12.43-11.54,15.92-.17,1.34.54,1.97,1.52,1.97,3.04,0,12.7-10.64,18.7-18.51l14.31-20.57c2.86.81,7.07,2.15,11.81-4.74h.27c-7.33,9.39-18.78,20.93-24.59,31.48-3.49,6.17-6.62,11.54-9.48,16.19,5.37-3.31,10.29-7.24,14.04-12.16,3.13-3.75,5.99-7.78,8.77-12.07l.09.18c-2.77,4.38-5.72,8.32-8.77,11.99-3.84,5.1-8.85,9.03-14.4,12.43-6.71,10.82-12.25,18.15-18.06,23.97-8.32,8.41-19.86,11.9-26.3,11.09-2.86-.36-5.1-2.33-5.1-5.46,0-10.28,18.43-15.02,36.49-23.07l2.78-1.25c6.35-8.59,12.7-18.16,18.78-27.9h-.54c-6.26,8.23-15.47,18.69-19.14,18.69-2.5,0-4.47-3.31-3.84-7.96.8-5.28,5.9-11.72,10.46-16.37,5.54-5.54,11.27-10.38,11.54-13.42.18-1.34-.36-2.41-1.7-2.41-4.03,0-11.9,9.93-19.05,19.68l-.09-.18ZM39,53.57c-.8.45-1.7.81-2.51,1.16C18.78,62.61.18,67.43.18,77.63c0,3.13,2.24,4.92,5.01,4.92h.09c8.94.45,21.19-11.99,33.72-28.98Z"/>
  </g>
</svg>