<?xml version="1.0" encoding="UTF-8"?>
<svg id="Capa_2" data-name="Capa 2" xmlns="http://www.w3.org/2000/svg" viewBox="0 0 120.92 127.45">
  <defs>
    <style>
      .cls-1 {
        fill: #d5d1ca;
      }
    </style>
  </defs>
  <g id="Capa_1-2" data-name="Capa 1">
    <path class="cls-1" d="M63.32,104.2c-4.03.72-6.71,5.1-6.71,8.94,0,5.99,4.92,14.13,19.59,14.13,15.74,0,37.11-12.61,37.11-31.48,0-16.19-14.93-25.4-35.42-26.12-5.63,22.09-37.74,50.62-67.52,50.62-7.34,0-10.37-3.75-10.37-9.48,0-15.92,31.75-40.52,73.25-41.32,1.69-4.03,2.68-7.78,2.68-10.73,0-.98-.18-1.97-.36-2.77-2.59.45-5.01.72-7.34.72h-1.07c-1.88-.27-3.58-1.52-3.58-2.69,0-1.61,1.52-3.4,4.48-3.4h.17c3.13,0,5.82,1.52,7.69,3.93,15.29-6.08,41.85-25.49,41.85-42.3,0-6.8-6.08-11.81-18.33-12.07-27.91,0-55.36,27.1-55.36,40.87,0,4.12,2.14,8.41,9.03,8.41,8.95,0,25.67-9.66,25.67-22.54,0-2.41-1.34-4.38-4.12-4.74h.36c2.69.36,3.93,2.24,3.93,4.74,0,12.97-16.81,22.72-25.85,22.72-6.71,0-10.1-3.58-10.1-9.3,0-2.06.36-4.65,1.43-7.24C51.96,14.94,76.11,0,99.46,0c13.95.18,21.46,7.16,21.46,16.73,0,16.9-24.33,34.61-44.19,38.99,1.34,2.06,2.06,4.65,2.06,7.42,0,2.06-.36,4.12-.9,6.35,20.75.72,35.6,10.02,35.6,26.29,0,19.14-21.56,31.66-37.39,31.66-14.76,0-19.68-8.23-19.68-14.31,0-3.67,2.59-8.14,6.71-9.03l.18.09ZM10.55,120.11c25.13,0,53.75-30.05,62.61-50.44C31.75,70.48.18,94.98.18,110.81c0,5.81,3.13,9.3,10.37,9.3ZM75.13,54.83c-1.07-2.41-3.49-4.02-7.06-4.02h-.18c-2.41,0-4.11,1.79-4.11,3.22,0,1.16,2.41,2.33,4.11,2.42h.54c1.69,0,4.02-.54,6.71-1.61Z"/>
  </g>
</svg>