<?xml version="1.0" encoding="UTF-8"?>
<svg id="Capa_2" data-name="Capa 2" xmlns="http://www.w3.org/2000/svg" viewBox="0 0 74.43 84.88">
  <defs>
    <style>
      .cls-1 {
        fill: #4c222a;
      }
    </style>
  </defs>
  <g id="Capa_1-2" data-name="Capa 1">
    <path class="cls-1" d="M62.97,5.1c2.14-1.61,6.52-5.1,9.39-5.1,1.61,0,2.15,1.07,2.06,1.97-.36,4.56-5.37,10.64-9.93,10.64-2.51,0-4.47-1.43-6.44-2.59-8.85,7.78-16.72,17.62-17.35,24.87v.45c-.17,4.03.99,6.62,1.17,11.45,6.97-5.37,17.26-15.2,22.45-23.07l.09.18c-5.54,8.41-14.85,17.08-22.54,23.25,0,1.34,0,2.95-.18,4.83-1.43,13.68-23.79,32.91-37.21,32.91-2.59,0-4.47-1.07-4.47-4.11,0-8.76,27.37-23.07,41.23-33.45v-.09c.17-5.37-5.37-4.56-6.17-9.21-.8-5.37,12.43-19.32,22.81-28.08-1.7-.98-3.4-1.79-5.46-1.34-3.75.89-10.64,10.64-13.6,15.29l-.09-.18c3.4-5.37,14.13-20.03,18.6-20.03,1.88,0,3.75.81,5.64,1.43ZM41.14,48.47c0-.36.09-.63.09-.9C27.37,57.95.18,72.26.18,80.76c0,2.15,1.07,3.67,3.13,3.67,7.61,0,36.49-27.9,37.83-35.95ZM63.14,5.19c1.16.36,2.33.63,3.58.63,2.14,0,7.34-.72,7.6-3.85,0-.81-.45-1.79-1.97-1.79-2.77,0-6.53,3.04-9.21,5.01Z"/>
  </g>
</svg>